<svg width="200" height="200" viewBox="0 0 200 200" fill="none" xmlns="http://www.w3.org/2000/svg">
<path d="M177.408 111.354C178.008 110.122 178.54 108.826 179 107.468C184.266 91.928 176.302 73.312 159.534 68.818C157.72 46.052 141.72 30.432 123.652 27.768C102.97 24.718 84.0241 37.856 77.7201 58.738C70.1221 56.046 62.7181 56.374 55.7401 60.452C52.5741 61.916 49.6781 64.076 47.0801 66.918C43.2661 71.09 40.7861 76.356 39.7761 81.908C38.2801 82.144 36.8101 82.38 35.4241 82.876C27.3441 85.774 22.2461 91.738 20.8481 100.722C19.9781 106.316 21.7341 111.896 22.7141 114.15C26.5841 123.06 35.5581 128.11 44.6761 126.774C45.1301 126.708 45.7901 126.912 46.1801 127.24C46.6621 141.48 53.5761 154.074 63.9481 161.268C80.5901 172.812 102.002 169.256 115.51 153.426C121.298 159.346 128.186 162.222 136.278 161.178C144.324 160.14 150.572 155.7 155.13 148.48C157.236 149.046 159.232 149.862 161.296 150.088C169.38 150.972 175.944 147.758 180.76 140.488C182.604 137.706 184.346 134.1 184.346 127.78C184.348 121.268 181.76 115.334 177.408 111.354Z" fill="#FAFBFC"/>
<path d="M36.7378 95.426H16.6758C16.1238 95.426 15.6758 94.978 15.6758 94.426C15.6758 93.874 16.1238 93.426 16.6758 93.426H36.7358C37.2878 93.426 37.7358 93.874 37.7358 94.426C37.7358 94.978 37.2898 95.426 36.7378 95.426ZM42.4978 95.426H39.6078C39.0558 95.426 38.6078 94.978 38.6078 94.426C38.6078 93.874 39.0558 93.426 39.6078 93.426H42.4978C43.0498 93.426 43.4978 93.874 43.4978 94.426C43.4978 94.978 43.0518 95.426 42.4978 95.426ZM50.6078 95.426H45.5158C44.9638 95.426 44.5158 94.978 44.5158 94.426C44.5158 93.874 44.9638 93.426 45.5158 93.426H50.6078C51.1598 93.426 51.6078 93.874 51.6078 94.426C51.6078 94.978 51.1598 95.426 50.6078 95.426ZM50.6078 99.156H31.3758C30.8238 99.156 30.3758 98.708 30.3758 98.156C30.3758 97.604 30.8238 97.156 31.3758 97.156H50.6078C51.1598 97.156 51.6078 97.604 51.6078 98.156C51.6078 98.708 51.1598 99.156 50.6078 99.156ZM27.9118 99.156H26.7518C26.1998 99.156 25.7518 98.708 25.7518 98.156C25.7518 97.604 26.1998 97.156 26.7518 97.156H27.9118C28.4638 97.156 28.9118 97.604 28.9118 98.156C28.9118 98.708 28.4658 99.156 27.9118 99.156ZM23.1578 99.156H20.2458C19.6938 99.156 19.2458 98.708 19.2458 98.156C19.2458 97.604 19.6938 97.156 20.2458 97.156H23.1578C23.7098 97.156 24.1578 97.604 24.1578 98.156C24.1578 98.708 23.7118 99.156 23.1578 99.156ZM41.4298 91.696H31.3758C30.8238 91.696 30.3758 91.248 30.3758 90.696C30.3758 90.144 30.8238 89.696 31.3758 89.696H41.4298C41.9818 89.696 42.4298 90.144 42.4298 90.696C42.4298 91.248 41.9838 91.696 41.4298 91.696ZM41.4298 87.966H38.9158C38.3638 87.966 37.9158 87.518 37.9158 86.966C37.9158 86.414 38.3638 85.966 38.9158 85.966H41.4298C41.9818 85.966 42.4298 86.414 42.4298 86.966C42.4298 87.518 41.9838 87.966 41.4298 87.966ZM34.8938 102.886H31.3758C30.8238 102.886 30.3758 102.438 30.3758 101.886C30.3758 101.334 30.8238 100.886 31.3758 100.886H34.8938C35.4458 100.886 35.8938 101.334 35.8938 101.886C35.8938 102.438 35.4458 102.886 34.8938 102.886ZM143.092 42.872H123.032C122.48 42.872 122.032 42.424 122.032 41.872C122.032 41.32 122.48 40.872 123.032 40.872H143.092C143.644 40.872 144.092 41.32 144.092 41.872C144.092 42.424 143.646 42.872 143.092 42.872ZM148.854 42.872H145.964C145.412 42.872 144.964 42.424 144.964 41.872C144.964 41.32 145.412 40.872 145.964 40.872H148.854C149.406 40.872 149.854 41.32 149.854 41.872C149.854 42.424 149.406 42.872 148.854 42.872ZM156.964 42.872H151.872C151.32 42.872 150.872 42.424 150.872 41.872C150.872 41.32 151.32 40.872 151.872 40.872H156.964C157.516 40.872 157.964 41.32 157.964 41.872C157.964 42.424 157.516 42.872 156.964 42.872ZM152.912 35.412H133.68C133.128 35.412 132.68 34.964 132.68 34.412C132.68 33.86 133.128 33.412 133.68 33.412H152.912C153.464 33.412 153.912 33.86 153.912 34.412C153.912 34.964 153.466 35.412 152.912 35.412ZM130.218 35.412H129.058C128.506 35.412 128.058 34.964 128.058 34.412C128.058 33.86 128.506 33.412 129.058 33.412H130.218C130.77 33.412 131.218 33.86 131.218 34.412C131.218 34.964 130.77 35.412 130.218 35.412ZM125.464 35.412H122.552C122 35.412 121.552 34.964 121.552 34.412C121.552 33.86 122 33.412 122.552 33.412H125.464C126.016 33.412 126.464 33.86 126.464 34.412C126.464 34.964 126.016 35.412 125.464 35.412ZM147.786 39.142H137.732C137.18 39.142 136.732 38.694 136.732 38.142C136.732 37.59 137.18 37.142 137.732 37.142H147.786C148.338 37.142 148.786 37.59 148.786 38.142C148.786 38.694 148.338 39.142 147.786 39.142Z" fill="#FAFBFC"/>
<path d="M147.786 35.412H145.272C144.72 35.412 144.272 34.964 144.272 34.412C144.272 33.86 144.72 33.412 145.272 33.412H147.786C148.338 33.412 148.786 33.86 148.786 34.412C148.786 34.964 148.338 35.412 147.786 35.412ZM134.822 39.142H131.304C130.752 39.142 130.304 38.694 130.304 38.142C130.304 37.59 130.752 37.142 131.304 37.142H134.822C135.374 37.142 135.822 37.59 135.822 38.142C135.822 38.694 135.374 39.142 134.822 39.142Z" fill="#FAFBFC"/>
<path d="M145.54 112.748C145.54 112.748 166.158 112.748 166.282 112.748C171.044 112.748 174.902 108.888 174.902 104.126C174.902 99.972 171.964 96.506 168.052 95.688C168.098 95.324 168.128 94.956 168.128 94.58C168.128 89.648 164.13 85.65 159.2 85.65C156.288 85.65 153.71 87.05 152.08 89.206C151.664 83.716 146.76 79.482 141.024 80.184C136.83 80.698 133.36 83.94 132.588 88.094C132.34 89.426 132.366 90.72 132.612 91.934C131.488 90.722 129.886 89.96 128.104 89.96C124.84 89.96 122.178 92.5 121.966 95.71C120.484 95.382 118.872 95.404 117.174 96.04C113.93 97.258 111.618 100.314 111.484 103.776C111.292 108.694 115.222 112.742 120.098 112.742C120.468 112.742 121.77 112.742 122.07 112.742H139.972" fill="#FAFBFC"/>
<path d="M166.282 113.748H145.54C144.988 113.748 144.54 113.3 144.54 112.748C144.54 112.196 144.988 111.748 145.54 111.748H166.282C170.486 111.748 173.904 108.33 173.904 104.126C173.904 100.538 171.358 97.4 167.85 96.668C167.342 96.562 166.998 96.084 167.062 95.568C167.102 95.244 167.13 94.916 167.13 94.582C167.13 90.21 163.574 86.652 159.202 86.652C156.702 86.652 154.398 87.804 152.878 89.812C152.628 90.144 152.194 90.286 151.8 90.168C151.4 90.05 151.116 89.7 151.084 89.284C150.902 86.888 149.73 84.636 147.866 83.108C145.984 81.566 143.606 80.878 141.148 81.178C137.38 81.638 134.266 84.558 133.574 88.278C133.36 89.442 133.366 90.606 133.598 91.736C133.688 92.176 133.474 92.62 133.074 92.826C132.68 93.032 132.19 92.948 131.884 92.618C130.892 91.552 129.552 90.964 128.106 90.964C125.4 90.964 123.146 93.08 122.968 95.78C122.948 96.072 122.804 96.34 122.57 96.514C122.336 96.688 122.032 96.75 121.756 96.69C120.294 96.366 118.912 96.46 117.532 96.982C114.632 98.07 112.604 100.818 112.49 103.82C112.408 105.916 113.162 107.902 114.612 109.408C116.064 110.916 118.014 111.746 120.106 111.746H139.98C140.532 111.746 140.98 112.194 140.98 112.746C140.98 113.298 140.532 113.746 139.98 113.746H120.1C117.46 113.746 114.996 112.698 113.164 110.794C111.334 108.89 110.382 106.386 110.484 103.74C110.632 99.944 113.18 96.474 116.824 95.106C118.218 94.582 119.654 94.402 121.124 94.56C121.838 91.346 124.72 88.96 128.102 88.96C129.262 88.96 130.398 89.248 131.414 89.78C131.424 89.158 131.486 88.534 131.604 87.912C132.452 83.344 136.276 79.758 140.9 79.192C143.904 78.822 146.82 79.666 149.13 81.56C150.868 82.986 152.116 84.926 152.712 87.068C154.5 85.514 156.774 84.652 159.198 84.652C164.672 84.652 169.126 89.106 169.126 94.582C169.126 94.7 169.124 94.818 169.118 94.934C173.096 96.164 175.9 99.896 175.9 104.128C175.904 109.432 171.586 113.748 166.282 113.748Z" fill="#232538"/>
<path d="M169.774 96.698C166.778 95.286 163.312 96.286 162.034 98.932C161.876 99.26 161.758 99.6 161.68 99.944" fill="#FAFBFC"/>
<path d="M161.678 100.444C161.64 100.444 161.604 100.44 161.566 100.432C161.296 100.372 161.128 100.102 161.19 99.834C161.28 99.446 161.41 99.068 161.584 98.714C162.976 95.828 166.748 94.72 169.984 96.248C170.234 96.366 170.342 96.664 170.224 96.914C170.104 97.166 169.804 97.268 169.558 97.154C166.814 95.862 163.64 96.758 162.484 99.154C162.344 99.442 162.236 99.744 162.166 100.058C162.114 100.286 161.906 100.444 161.678 100.444Z" fill="#232538"/>
<path d="M135.516 135.494H68.7783C67.6743 135.494 66.7783 134.598 66.7783 133.494V73.068C66.7783 67.948 70.9683 63.758 76.0883 63.758H128.206C133.326 63.758 137.516 67.948 137.516 73.068V133.492C137.516 134.598 136.62 135.494 135.516 135.494Z" fill="#FAFBFC"/>
<path d="M135.516 136.894H68.7779C66.9019 136.894 65.3779 135.368 65.3779 133.494V73.068C65.3779 67.162 70.1819 62.358 76.0859 62.358H128.206C134.112 62.358 138.916 67.162 138.916 73.068V133.492C138.916 135.368 137.392 136.894 135.516 136.894ZM76.0859 65.158C71.7239 65.158 68.1779 68.706 68.1779 73.068V133.492C68.1779 133.824 68.4479 134.092 68.7779 134.092H135.516C135.846 134.092 136.116 133.824 136.116 133.492V73.068C136.116 68.706 132.568 65.158 128.206 65.158H76.0859Z" fill="#232538"/>
<path d="M129.37 64.754L75.0922 64.72C71.0002 64.72 68.1182 68.098 68.1182 72.226V79.698H125.592H136.128V72.226C136.128 68.098 133.462 64.754 129.37 64.754Z" fill="#F1BC19"/>
<path d="M131.04 79.952H129.048C128.634 79.952 128.298 79.616 128.298 79.202C128.298 78.788 128.634 78.452 129.048 78.452H131.04C131.454 78.452 131.79 78.788 131.79 79.202C131.79 79.616 131.454 79.952 131.04 79.952ZM127.056 79.952H67.2764C66.8624 79.952 66.5264 79.616 66.5264 79.202C66.5264 78.788 66.8624 78.452 67.2764 78.452H127.056C127.47 78.452 127.806 78.788 127.806 79.202C127.806 79.616 127.47 79.952 127.056 79.952Z" fill="#232538"/>
<path d="M76.242 70.728C75.7137 70.728 75.207 70.9379 74.8334 71.3114C74.4599 71.685 74.25 72.1917 74.25 72.72C74.25 73.2483 74.4599 73.755 74.8334 74.1286C75.207 74.5021 75.7137 74.712 76.242 74.712C76.7703 74.712 77.277 74.5021 77.6506 74.1286C78.0241 73.755 78.234 73.2483 78.234 72.72C78.234 72.1917 78.0241 71.685 77.6506 71.3114C77.277 70.9379 76.7703 70.728 76.242 70.728Z" fill="#FAFBFC"/>
<path d="M76.242 75.712C74.592 75.712 73.25 74.37 73.25 72.72C73.25 71.07 74.592 69.726 76.242 69.726C77.892 69.726 79.234 71.068 79.234 72.72C79.236 74.37 77.894 75.712 76.242 75.712ZM76.242 71.726C75.696 71.726 75.25 72.172 75.25 72.72C75.25 73.266 75.696 73.712 76.242 73.712C76.788 73.712 77.234 73.266 77.234 72.72C77.236 72.172 76.79 71.726 76.242 71.726Z" fill="#232538"/>
<path d="M128.052 70.728C127.523 70.728 127.017 70.9379 126.643 71.3114C126.269 71.685 126.06 72.1917 126.06 72.72C126.06 73.2483 126.269 73.755 126.643 74.1286C127.017 74.5021 127.523 74.712 128.052 74.712C128.58 74.712 129.087 74.5021 129.46 74.1286C129.834 73.755 130.044 73.2483 130.044 72.72C130.044 72.1917 129.834 71.685 129.46 71.3114C129.087 70.9379 128.58 70.728 128.052 70.728Z" fill="#FAFBFC"/>
<path d="M128.052 75.712C126.402 75.712 125.06 74.37 125.06 72.72C125.06 71.07 126.402 69.726 128.052 69.726C129.702 69.726 131.044 71.068 131.044 72.72C131.044 74.37 129.702 75.712 128.052 75.712ZM128.052 71.726C127.506 71.726 127.06 72.172 127.06 72.72C127.06 73.266 127.506 73.712 128.052 73.712C128.598 73.712 129.044 73.266 129.044 72.72C129.044 72.172 128.598 71.726 128.052 71.726ZM126.558 68.148C125.784 68.148 125.158 67.522 125.158 66.748V60.77C125.158 59.996 125.784 59.37 126.558 59.37C127.332 59.37 127.958 59.996 127.958 60.77V66.748C127.958 67.52 127.33 68.148 126.558 68.148ZM119.582 68.148C118.808 68.148 118.182 67.522 118.182 66.748V60.77C118.182 59.996 118.808 59.37 119.582 59.37C120.356 59.37 120.982 59.996 120.982 60.77V66.748C120.984 67.52 120.356 68.148 119.582 68.148ZM112.608 68.148C111.834 68.148 111.208 67.522 111.208 66.748V60.77C111.208 59.996 111.834 59.37 112.608 59.37C113.382 59.37 114.008 59.996 114.008 60.77V66.748C114.008 67.52 113.382 68.148 112.608 68.148ZM105.634 68.148C104.86 68.148 104.234 67.522 104.234 66.748V60.77C104.234 59.996 104.86 59.37 105.634 59.37C106.408 59.37 107.034 59.996 107.034 60.77V66.748C107.034 67.52 106.406 68.148 105.634 68.148ZM98.6579 68.148C97.8839 68.148 97.2579 67.522 97.2579 66.748V60.77C97.2579 59.996 97.8839 59.37 98.6579 59.37C99.4319 59.37 100.058 59.996 100.058 60.77V66.748C100.06 67.52 99.4319 68.148 98.6579 68.148ZM91.6859 68.148C90.9119 68.148 90.2859 67.522 90.2859 66.748V60.77C90.2859 59.996 90.9119 59.37 91.6859 59.37C92.4599 59.37 93.0859 59.996 93.0859 60.77V66.748C93.0859 67.52 92.4599 68.148 91.6859 68.148ZM84.7119 68.148C83.9379 68.148 83.3119 67.522 83.3119 66.748V60.77C83.3119 59.996 83.9379 59.37 84.7119 59.37C85.4859 59.37 86.1119 59.996 86.1119 60.77V66.748C86.1119 67.52 85.4859 68.148 84.7119 68.148ZM77.7379 68.148C76.9639 68.148 76.3379 67.522 76.3379 66.748V60.77C76.3379 59.996 76.9639 59.37 77.7379 59.37C78.5119 59.37 79.1379 59.996 79.1379 60.77V66.748C79.1379 67.52 78.5099 68.148 77.7379 68.148ZM137.018 79.952H133.032C132.618 79.952 132.282 79.616 132.282 79.202C132.282 78.788 132.618 78.452 133.032 78.452H137.018C137.432 78.452 137.768 78.788 137.768 79.202C137.768 79.616 137.432 79.952 137.018 79.952Z" fill="#232538"/>
<path d="M88.1979 89.164H90.1899V95.142H84.2119V92.154" fill="#CBC9BC"/>
<path d="M90.1899 95.892H84.2139C83.7999 95.892 83.4639 95.556 83.4639 95.142V92.154C83.4639 91.74 83.7999 91.404 84.2139 91.404C84.6279 91.404 84.9639 91.74 84.9639 92.154V94.392H89.4399V89.914H88.1979C87.7839 89.914 87.4479 89.578 87.4479 89.164C87.4479 88.75 87.7839 88.414 88.1979 88.414H90.1899C90.6039 88.414 90.9399 88.75 90.9399 89.164V95.142C90.9399 95.556 90.6039 95.892 90.1899 95.892Z" fill="#232538"/>
<path d="M94.1758 89.164H100.154V95.142H94.1758V89.164Z" fill="#CBC9BC"/>
<path d="M100.156 95.892H94.1777C93.7637 95.892 93.4277 95.556 93.4277 95.142V89.164C93.4277 88.75 93.7637 88.414 94.1777 88.414H100.156C100.57 88.414 100.906 88.75 100.906 89.164V95.142C100.906 95.556 100.57 95.892 100.156 95.892ZM94.9257 94.392H99.4037V89.914H94.9257V94.392Z" fill="#232538"/>
<path d="M104.14 89.164H110.118V95.142H104.14V89.164Z" fill="#CBC9BC"/>
<path d="M110.118 95.892H104.14C103.726 95.892 103.39 95.556 103.39 95.142V89.164C103.39 88.75 103.726 88.414 104.14 88.414H110.118C110.532 88.414 110.868 88.75 110.868 89.164V95.142C110.868 95.556 110.532 95.892 110.118 95.892ZM104.89 94.392H109.368V89.914H104.89V94.392Z" fill="#232538"/>
<path d="M114.102 89.164H120.08V95.142H114.102V89.164Z" fill="#CBC9BC"/>
<path d="M120.08 95.892H114.102C113.688 95.892 113.352 95.556 113.352 95.142V89.164C113.352 88.75 113.688 88.414 114.102 88.414H120.08C120.494 88.414 120.83 88.75 120.83 89.164V95.142C120.83 95.556 120.494 95.892 120.08 95.892ZM114.852 94.392H119.33V89.914H114.852V94.392Z" fill="#232538"/>
<path d="M124.066 89.164H130.044V95.142H124.066V89.164Z" fill="#CBC9BC"/>
<path d="M130.044 95.892H124.066C123.652 95.892 123.316 95.556 123.316 95.142V89.164C123.316 88.75 123.652 88.414 124.066 88.414H130.044C130.458 88.414 130.794 88.75 130.794 89.164V95.142C130.794 95.556 130.458 95.892 130.044 95.892ZM124.816 94.392H129.294V89.914H124.816V94.392Z" fill="#232538"/>
<path d="M84.2119 99.128H90.1899V105.106H84.2119V99.128Z" fill="#CBC9BC"/>
<path d="M90.1899 105.856H84.2139C83.7999 105.856 83.4639 105.52 83.4639 105.106V99.128C83.4639 98.714 83.7999 98.378 84.2139 98.378H90.1899C90.6039 98.378 90.9399 98.714 90.9399 99.128V105.106C90.9399 105.52 90.6039 105.856 90.1899 105.856ZM84.9639 104.356H89.4399V99.878H84.9639V104.356Z" fill="#232538"/>
<path d="M94.1758 99.128H100.154V105.106H94.1758V99.128Z" fill="#CBC9BC"/>
<path d="M100.156 105.856H94.1777C93.7637 105.856 93.4277 105.52 93.4277 105.106V99.128C93.4277 98.714 93.7637 98.378 94.1777 98.378H100.156C100.57 98.378 100.906 98.714 100.906 99.128V105.106C100.906 105.52 100.57 105.856 100.156 105.856ZM94.9257 104.356H99.4037V99.878H94.9257V104.356Z" fill="#232538"/>
<path d="M104.14 99.128H110.118V105.106H104.14V99.128Z" fill="#CBC9BC"/>
<path d="M110.118 105.856H104.14C103.726 105.856 103.39 105.52 103.39 105.106V99.128C103.39 98.714 103.726 98.378 104.14 98.378H110.118C110.532 98.378 110.868 98.714 110.868 99.128V105.106C110.868 105.52 110.532 105.856 110.118 105.856ZM104.89 104.356H109.368V99.878H104.89V104.356Z" fill="#232538"/>
<path d="M114.102 99.128H120.08V105.106H114.102V99.128Z" fill="#CBC9BC"/>
<path d="M120.08 105.856H114.102C113.688 105.856 113.352 105.52 113.352 105.106V99.128C113.352 98.714 113.688 98.378 114.102 98.378H120.08C120.494 98.378 120.83 98.714 120.83 99.128V105.106C120.83 105.52 120.494 105.856 120.08 105.856ZM114.852 104.356H119.33V99.878H114.852V104.356Z" fill="#232538"/>
<path d="M124.066 99.128H130.044V105.106H124.066V99.128Z" fill="#CBC9BC"/>
<path d="M130.044 105.856H124.066C123.652 105.856 123.316 105.52 123.316 105.106V99.128C123.316 98.714 123.652 98.378 124.066 98.378H130.044C130.458 98.378 130.794 98.714 130.794 99.128V105.106C130.794 105.52 130.458 105.856 130.044 105.856ZM124.816 104.356H129.294V99.878H124.816V104.356Z" fill="#232538"/>
<path d="M74.25 99.128H80.228V105.106H74.25V99.128Z" fill="#CBC9BC"/>
<path d="M80.228 105.856H74.252C73.838 105.856 73.502 105.52 73.502 105.106V99.128C73.502 98.714 73.838 98.378 74.252 98.378H80.228C80.642 98.378 80.978 98.714 80.978 99.128V105.106C80.978 105.52 80.642 105.856 80.228 105.856ZM75 104.356H79.476V99.878H75V104.356Z" fill="#232538"/>
<path d="M84.2119 109.09H90.1899V115.068H84.2119V109.09Z" fill="#CBC9BC"/>
<path d="M90.1899 115.818H84.2139C83.7999 115.818 83.4639 115.482 83.4639 115.068V109.09C83.4639 108.676 83.7999 108.34 84.2139 108.34H90.1899C90.6039 108.34 90.9399 108.676 90.9399 109.09V115.068C90.9399 115.482 90.6039 115.818 90.1899 115.818ZM84.9639 114.318H89.4399V109.84H84.9639V114.318Z" fill="#232538"/>
<path d="M94.1758 109.09H100.154V115.068H94.1758V109.09Z" fill="#CBC9BC"/>
<path d="M100.156 115.818H94.1777C93.7637 115.818 93.4277 115.482 93.4277 115.068V109.09C93.4277 108.676 93.7637 108.34 94.1777 108.34H100.156C100.57 108.34 100.906 108.676 100.906 109.09V115.068C100.906 115.482 100.57 115.818 100.156 115.818ZM94.9257 114.318H99.4037V109.84H94.9257V114.318Z" fill="#232538"/>
<path d="M104.14 109.09H110.118V115.068H104.14V109.09Z" fill="#CBC9BC"/>
<path d="M110.118 115.818H104.14C103.726 115.818 103.39 115.482 103.39 115.068V109.09C103.39 108.676 103.726 108.34 104.14 108.34H110.118C110.532 108.34 110.868 108.676 110.868 109.09V115.068C110.868 115.482 110.532 115.818 110.118 115.818ZM104.89 114.318H109.368V109.84H104.89V114.318Z" fill="#232538"/>
<path d="M120.08 115.068H114.102V113.268V109.09H118.068H120.08V115.068Z" fill="#CBC9BC"/>
<path d="M114.102 113.268V109.09H118.068" fill="#CBC9BC"/>
<path d="M114.102 114.018C113.688 114.018 113.352 113.682 113.352 113.268V109.092C113.352 108.678 113.688 108.342 114.102 108.342H118.066C118.48 108.342 118.816 108.678 118.816 109.092C118.816 109.506 118.48 109.842 118.066 109.842H114.852V113.268C114.852 113.682 114.516 114.018 114.102 114.018Z" fill="#232538"/>
<path d="M74.25 109.09H80.228V115.068H74.25V109.09Z" fill="#CBC9BC"/>
<path d="M80.228 115.818H74.252C73.838 115.818 73.502 115.482 73.502 115.068V109.09C73.502 108.676 73.838 108.34 74.252 108.34H80.228C80.642 108.34 80.978 108.676 80.978 109.09V115.068C80.978 115.482 80.642 115.818 80.228 115.818ZM75 114.318H79.476V109.84H75V114.318Z" fill="#232538"/>
<path d="M94.1758 119.054H100.154V125.032H94.1758V119.054Z" fill="#CBC9BC"/>
<path d="M100.156 125.782H94.1777C93.7637 125.782 93.4277 125.446 93.4277 125.032V119.054C93.4277 118.64 93.7637 118.304 94.1777 118.304H100.156C100.57 118.304 100.906 118.64 100.906 119.054V125.032C100.906 125.446 100.57 125.782 100.156 125.782ZM94.9257 124.282H99.4037V119.804H94.9257V124.282Z" fill="#232538"/>
<path d="M109.12 125.032H104.14V119.054H110.118V123.04" fill="#CBC9BC"/>
<path d="M109.122 125.782H104.14C103.726 125.782 103.39 125.446 103.39 125.032V119.054C103.39 118.64 103.726 118.304 104.14 118.304H110.118C110.532 118.304 110.868 118.64 110.868 119.054V123.04C110.868 123.454 110.532 123.79 110.118 123.79C109.704 123.79 109.368 123.454 109.368 123.04V119.804H104.89V124.282H109.122C109.536 124.282 109.872 124.618 109.872 125.032C109.872 125.446 109.536 125.782 109.122 125.782Z" fill="#232538"/>
<path d="M131.887 108.152C126.87 108.152 122.059 110.145 118.512 113.692C114.965 117.239 112.973 122.05 112.973 127.066C112.973 132.082 114.965 136.893 118.512 140.44C122.059 143.987 126.87 145.98 131.887 145.98C136.903 145.98 141.714 143.987 145.261 140.44C148.808 136.893 150.801 132.082 150.801 127.066C150.801 122.05 148.808 117.239 145.261 113.692C141.714 110.145 136.903 108.152 131.887 108.152Z" fill="#FAFBFC"/>
<path d="M131.886 147.38C120.684 147.38 111.572 138.266 111.572 127.066C111.572 115.866 120.686 106.752 131.886 106.752C143.086 106.752 152.2 115.864 152.2 127.066C152.2 138.268 143.086 147.38 131.886 147.38ZM131.886 109.552C122.228 109.552 114.372 117.408 114.372 127.066C114.372 136.724 122.228 144.58 131.886 144.58C141.544 144.58 149.4 136.724 149.4 127.066C149.4 117.408 141.544 109.552 131.886 109.552Z" fill="#232538"/>
<path d="M79.1746 141.446C82.9406 141.446 86.2086 141.446 86.2546 141.446C90.4746 141.446 93.8966 138.098 93.8966 133.968C93.8966 130.364 91.2926 127.358 87.8266 126.648C87.8666 126.332 87.8946 126.014 87.8946 125.688C87.8946 121.41 84.3506 117.942 79.9806 117.942C77.4006 117.942 75.1146 119.156 73.6706 121.028C73.3006 116.266 68.9546 112.592 63.8706 113.202C60.1526 113.648 57.0766 116.46 56.3926 120.064C56.1726 121.22 56.1966 122.342 56.4146 123.394C55.4186 122.344 53.9986 121.682 52.4186 121.682C49.5266 121.682 47.1646 123.886 46.9786 126.67C45.6646 126.386 44.2366 126.404 42.7326 126.956C39.8566 128.012 37.8086 130.662 37.6886 133.668C37.5186 137.934 41.0026 141.446 45.3246 141.446C45.6526 141.446 46.8066 141.446 47.0726 141.446H62.9406H79.1746ZM66.2206 141.446H66.9406H66.2206Z" fill="#FAFBFC"/>
<path d="M86.2544 142.446H79.1744C78.6224 142.446 78.1744 141.998 78.1744 141.446C78.1744 140.894 78.6224 140.446 79.1744 140.446H86.2544C89.9164 140.446 92.8944 137.54 92.8944 133.966C92.8944 130.918 90.6784 128.252 87.6224 127.628C87.1124 127.524 86.7664 127.044 86.8304 126.526C86.8644 126.25 86.8884 125.972 86.8884 125.688C86.8884 121.968 83.7864 118.942 79.9744 118.942C77.7904 118.942 75.7784 119.924 74.4564 121.638C74.2044 121.966 73.7724 122.104 73.3804 121.984C72.9844 121.866 72.7004 121.516 72.6704 121.104C72.5104 119.064 71.5384 117.216 69.9284 115.896C68.2724 114.538 66.1544 113.93 63.9844 114.192C60.6924 114.586 57.9704 117.076 57.3684 120.248C57.1804 121.236 57.1884 122.224 57.3884 123.188C57.4804 123.626 57.2684 124.07 56.8724 124.276C56.4784 124.484 55.9944 124.404 55.6844 124.078C54.8264 123.174 53.6624 122.678 52.4104 122.678C50.0724 122.678 48.1204 124.46 47.9684 126.734C47.9484 127.024 47.8044 127.29 47.5724 127.466C47.3404 127.642 47.0464 127.706 46.7604 127.644C45.4764 127.366 44.2724 127.448 43.0704 127.892C40.5464 128.82 38.7804 131.156 38.6804 133.706C38.6104 135.456 39.2444 137.122 40.4704 138.394C41.7404 139.716 43.4624 140.444 45.3184 140.444H62.9324C63.4844 140.444 63.9324 140.892 63.9324 141.444C63.9324 141.996 63.4844 142.444 62.9324 142.444H45.3184C42.9464 142.444 40.6564 141.474 39.0284 139.78C37.4224 138.112 36.5904 135.924 36.6804 133.626C36.8164 130.278 39.1064 127.218 42.3804 126.016C43.5984 125.568 44.8604 125.404 46.1424 125.528C46.8324 122.736 49.4004 120.68 52.4124 120.68C53.4124 120.68 54.3724 120.9 55.2404 121.318C55.2584 120.838 55.3124 120.358 55.4044 119.876C56.1664 115.856 59.5984 112.704 63.7464 112.208C66.4724 111.888 69.1164 112.644 71.1964 114.35C72.6924 115.576 73.7544 117.17 74.2924 118.956C75.8744 117.66 77.8624 116.942 79.9764 116.942C84.8924 116.942 88.8904 120.866 88.8904 125.688C88.8904 125.756 88.8884 125.824 88.8864 125.892C92.4164 127.002 94.8944 130.268 94.8944 133.968C94.8964 138.644 91.0184 142.446 86.2544 142.446ZM66.9384 142.446H66.2204C65.6684 142.446 65.2204 141.998 65.2204 141.446C65.2204 140.894 65.6684 140.446 66.2204 140.446H66.9384C67.4904 140.446 67.9384 140.894 67.9384 141.446C67.9384 141.998 67.4904 142.446 66.9384 142.446Z" fill="#232538"/>
<path d="M82.8388 130.84C82.8008 130.84 82.7648 130.836 82.7248 130.828C82.4568 130.766 82.2888 130.498 82.3508 130.228C82.4268 129.89 82.5428 129.568 82.6908 129.27C83.8988 126.824 87.2368 125.922 90.1328 127.258C90.3848 127.374 90.4948 127.672 90.3768 127.922C90.2608 128.172 89.9588 128.284 89.7148 128.166C87.3008 127.052 84.5568 127.748 83.5888 129.714C83.4728 129.942 83.3848 130.19 83.3248 130.452C83.2728 130.684 83.0688 130.84 82.8388 130.84Z" fill="#232538"/>
<path d="M72.5226 142.446H70.3086C69.7566 142.446 69.3086 141.998 69.3086 141.446C69.3086 140.894 69.7566 140.446 70.3086 140.446H72.5226C73.0746 140.446 73.5226 140.894 73.5226 141.446C73.5226 141.998 73.0746 142.446 72.5226 142.446Z" fill="#232538"/>
<path d="M122.77 125.68H140.128V134.806H122.77V125.68Z" fill="#F3646A"/>
<path d="M140.13 135.556H122.77C122.356 135.556 122.02 135.22 122.02 134.806V125.68C122.02 125.266 122.356 124.93 122.77 124.93H140.13C140.544 124.93 140.88 125.266 140.88 125.68V134.806C140.88 135.22 140.544 135.556 140.13 135.556ZM123.52 134.056H139.38V126.43H123.52V134.056Z" fill="#232538"/>
<path d="M135.789 125.68C135.789 127.082 134.813 128.228 133.619 128.228C132.425 128.228 131.449 127.082 131.449 125.68H135.789Z" fill="#FAFBFC"/>
<path d="M133.62 128.576C132.232 128.576 131.1 127.276 131.1 125.678C131.1 125.484 131.256 125.328 131.45 125.328H135.79C135.984 125.328 136.14 125.484 136.14 125.678C136.14 127.276 135.008 128.576 133.62 128.576ZM131.822 126.028C131.96 127.074 132.714 127.876 133.618 127.876C134.522 127.876 135.276 127.074 135.414 126.028H131.822Z" fill="#232538"/>
<path d="M131.449 125.68C131.449 127.082 130.473 128.228 129.279 128.228C128.085 128.228 127.109 127.082 127.109 125.68H131.449Z" fill="#FAFBFC"/>
<path d="M129.28 128.576C127.892 128.576 126.76 127.276 126.76 125.678C126.76 125.484 126.916 125.328 127.11 125.328H131.45C131.644 125.328 131.8 125.484 131.8 125.678C131.8 127.276 130.668 128.576 129.28 128.576ZM127.484 126.028C127.622 127.074 128.376 127.876 129.28 127.876C130.184 127.876 130.938 127.074 131.076 126.028H127.484Z" fill="#232538"/>
<path d="M127.11 125.68C127.11 127.082 126.134 128.228 124.94 128.228C123.746 128.228 122.77 127.082 122.77 125.68H127.11Z" fill="#FAFBFC"/>
<path d="M124.94 128.576C123.552 128.576 122.42 127.276 122.42 125.678C122.42 125.484 122.576 125.328 122.77 125.328H127.11C127.304 125.328 127.46 125.484 127.46 125.678C127.46 127.276 126.328 128.576 124.94 128.576ZM123.144 126.028C123.282 127.074 124.036 127.876 124.94 127.876C125.844 127.876 126.598 127.074 126.736 126.028H123.144Z" fill="#232538"/>
<path d="M140.129 125.68C140.129 127.082 139.153 128.228 137.959 128.228C136.765 128.228 135.789 127.082 135.789 125.68H140.129Z" fill="#FAFBFC"/>
<path d="M137.959 128.576C136.571 128.576 135.439 127.276 135.439 125.678C135.439 125.484 135.595 125.328 135.789 125.328H140.129C140.323 125.328 140.479 125.484 140.479 125.678C140.479 127.276 139.347 128.576 137.959 128.576ZM136.161 126.028C136.299 127.074 137.053 127.876 137.957 127.876C138.861 127.876 139.615 127.074 139.753 126.028H136.161Z" fill="#232538"/>
<path d="M129.539 121.932H133.359V125.44H129.539V121.932Z" fill="#FBCD59"/>
<path d="M133.359 125.938H129.539C129.263 125.938 129.039 125.714 129.039 125.438V121.932C129.039 121.656 129.263 121.432 129.539 121.432H133.359C133.635 121.432 133.859 121.656 133.859 121.932V125.438C133.859 125.716 133.635 125.938 133.359 125.938ZM130.039 124.938H132.859V122.432H130.039V124.938Z" fill="#232538"/>
<path d="M131.451 121.69C131.313 121.69 131.201 121.578 131.201 121.44V119.9C131.201 119.762 131.313 119.65 131.451 119.65C131.589 119.65 131.701 119.762 131.701 119.9V121.442C131.701 121.578 131.589 121.69 131.451 121.69Z" fill="#232538"/>
<path d="M132.877 118.674C132.877 120.022 132.239 120.228 131.451 120.228C130.663 120.228 130.025 120.022 130.025 118.674C130.025 117.326 131.451 115.346 131.451 115.346C131.451 115.346 132.877 117.326 132.877 118.674Z" fill="#F1BC19"/>
<path d="M131.451 120.63C130.665 120.63 129.623 120.426 129.623 118.674C129.623 117.214 131.065 115.198 131.127 115.112C131.201 115.008 131.323 114.946 131.451 114.946C131.579 114.946 131.701 115.008 131.775 115.112C131.837 115.196 133.277 117.212 133.277 118.674C133.277 120.426 132.235 120.63 131.451 120.63ZM131.451 116.07C131.011 116.778 130.423 117.9 130.423 118.674C130.423 119.748 130.829 119.828 131.451 119.828C132.071 119.828 132.477 119.748 132.477 118.674C132.477 117.898 131.889 116.776 131.451 116.07Z" fill="#232538"/>
</svg>
