<svg width="200" height="200" viewBox="0 0 200 200" fill="none" xmlns="http://www.w3.org/2000/svg">
<path d="M177.408 111.762C178.008 110.53 178.54 109.234 179 107.876C184.266 92.336 176.302 73.72 159.534 69.226C157.72 46.46 141.72 30.842 123.652 28.176C102.97 25.126 84.0241 38.264 77.7201 59.146C70.1221 56.454 62.7181 56.782 55.7401 60.86C52.5741 62.324 49.6781 64.484 47.0801 67.326C43.2661 71.498 40.7861 76.764 39.7761 82.316C38.2801 82.552 36.8101 82.788 35.4241 83.284C27.3441 86.182 22.2461 92.146 20.8481 101.13C19.9781 106.724 21.7341 112.304 22.7141 114.558C26.5841 123.468 35.5581 128.518 44.6761 127.182C45.1301 127.116 45.7901 127.32 46.1801 127.648C46.6621 141.888 53.5761 154.482 63.9481 161.676C80.5901 173.22 102.002 169.664 115.51 153.834C121.298 159.754 128.186 162.63 136.278 161.586C144.324 160.548 150.572 156.108 155.13 148.888C157.236 149.454 159.232 150.27 161.296 150.496C169.38 151.38 175.944 148.166 180.76 140.896C182.604 138.114 184.346 134.508 184.346 128.188C184.348 121.676 181.76 115.742 177.408 111.762Z" fill="#FAFBFC"/>
<path d="M147.936 100.102C147.936 100.102 171.318 100.102 171.46 100.102C176.86 100.102 181.236 95.724 181.236 90.324C181.236 85.614 177.904 81.682 173.468 80.756C173.52 80.344 173.554 79.926 173.554 79.5C173.554 73.908 169.02 69.374 163.428 69.374C160.126 69.374 157.202 70.962 155.354 73.408C154.882 67.182 149.32 62.38 142.814 63.176C138.056 63.758 134.122 67.436 133.246 72.148C132.966 73.66 132.994 75.126 133.274 76.502C131.998 75.128 130.182 74.264 128.16 74.264C124.46 74.264 121.438 77.146 121.2 80.786C119.52 80.414 117.692 80.438 115.766 81.162C112.086 82.544 109.466 86.008 109.312 89.936C109.094 95.514 113.552 100.106 119.082 100.106C119.502 100.106 120.978 100.106 121.318 100.106H141.62" fill="#FAFBFC"/>
<path d="M171.46 101.102H147.936C147.384 101.102 146.936 100.654 146.936 100.102C146.936 99.55 147.384 99.102 147.936 99.102H171.46C176.298 99.102 180.236 95.164 180.236 90.324C180.236 86.192 177.304 82.578 173.264 81.734C172.754 81.628 172.412 81.15 172.476 80.634C172.522 80.262 172.554 79.884 172.554 79.5C172.554 74.468 168.46 70.374 163.428 70.374C160.55 70.374 157.898 71.7 156.152 74.01C155.902 74.344 155.474 74.492 155.072 74.366C154.674 74.248 154.388 73.898 154.358 73.484C154.15 70.73 152.8 68.142 150.658 66.386C148.492 64.612 145.752 63.82 142.938 64.168C138.606 64.698 135.026 68.054 134.232 72.33C133.982 73.664 133.992 75.002 134.256 76.302C134.346 76.74 134.132 77.186 133.734 77.39C133.336 77.594 132.85 77.51 132.544 77.182C131.394 75.944 129.838 75.264 128.164 75.264C125.026 75.264 122.408 77.718 122.202 80.852C122.182 81.144 122.038 81.412 121.804 81.586C121.57 81.76 121.268 81.822 120.988 81.762C119.308 81.39 117.716 81.498 116.122 82.096C112.784 83.348 110.452 86.514 110.316 89.972C110.222 92.386 111.09 94.672 112.76 96.408C114.43 98.144 116.678 99.102 119.088 99.102H141.626C142.178 99.102 142.626 99.55 142.626 100.102C142.626 100.654 142.178 101.102 141.626 101.102H119.084C116.126 101.102 113.366 99.928 111.316 97.794C109.266 95.662 108.2 92.856 108.316 89.894C108.482 85.642 111.336 81.756 115.418 80.224C117.02 79.624 118.674 79.426 120.354 79.626C121.108 75.982 124.348 73.262 128.164 73.262C129.532 73.262 130.872 73.62 132.052 74.282C132.052 73.512 132.122 72.738 132.266 71.964C133.218 66.84 137.506 62.818 142.696 62.184C146.058 61.77 149.338 62.716 151.926 64.84C153.934 66.486 155.358 68.742 156.002 71.226C158.026 69.394 160.64 68.374 163.43 68.374C169.564 68.374 174.556 73.366 174.556 79.5C174.556 79.666 174.552 79.832 174.542 79.998C179.05 81.342 182.238 85.552 182.238 90.326C182.236 96.266 177.402 101.102 171.46 101.102Z" fill="#232538"/>
<path d="M142.27 78.564C138.654 78.326 135.54 80.824 135.318 84.142C135.29 84.554 135.308 84.96 135.368 85.354C134.67 84.566 133.638 84.032 132.452 83.954C130.282 83.812 128.408 85.244 128.136 87.194C127.742 87.086 127.33 87.014 126.904 86.986C123.74 86.778 121.016 88.964 120.82 91.868" fill="#FAFBFC"/>
<path d="M120.822 92.366C120.81 92.366 120.798 92.366 120.788 92.366C120.512 92.348 120.304 92.11 120.322 91.834C120.536 88.662 123.482 86.264 126.938 86.488C127.208 86.506 127.482 86.542 127.756 86.594C128.304 84.658 130.27 83.304 132.486 83.458C133.336 83.514 134.134 83.778 134.814 84.222C134.814 84.184 134.818 84.148 134.82 84.11C135.062 80.522 138.43 77.816 142.306 78.066C142.582 78.084 142.79 78.322 142.772 78.598C142.754 78.874 142.528 79.088 142.24 79.064C138.928 78.838 136.024 81.138 135.82 84.176C135.796 84.544 135.812 84.916 135.866 85.282C135.9 85.5 135.784 85.716 135.584 85.81C135.382 85.902 135.144 85.854 134.998 85.688C134.362 84.97 133.424 84.522 132.424 84.456C130.52 84.322 128.874 85.566 128.636 87.266C128.616 87.408 128.536 87.534 128.416 87.614C128.294 87.694 128.15 87.718 128.008 87.68C127.632 87.578 127.25 87.512 126.874 87.488C124 87.298 121.496 89.274 121.32 91.9C121.302 92.164 121.082 92.366 120.822 92.366Z" fill="#232538"/>
<path d="M175.418 81.902C172.02 80.3 168.09 81.434 166.64 84.436C166.46 84.808 166.326 85.194 166.238 85.584" fill="#FAFBFC"/>
<path d="M166.238 86.082C166.202 86.082 166.164 86.078 166.126 86.07C165.856 86.008 165.688 85.74 165.75 85.472C165.848 85.042 165.996 84.62 166.19 84.22C167.756 80.978 171.992 79.736 175.63 81.452C175.88 81.57 175.988 81.868 175.87 82.118C175.752 82.37 175.454 82.474 175.204 82.358C172.06 80.876 168.418 81.906 167.09 84.656C166.928 84.99 166.806 85.34 166.724 85.698C166.672 85.924 166.466 86.082 166.238 86.082Z" fill="#232538"/>
<path d="M36.7378 95.834H16.6758C16.1238 95.834 15.6758 95.386 15.6758 94.834C15.6758 94.282 16.1238 93.834 16.6758 93.834H36.7378C37.2898 93.834 37.7378 94.282 37.7378 94.834C37.7378 95.386 37.2898 95.834 36.7378 95.834ZM42.4978 95.834H39.6058C39.0538 95.834 38.6058 95.386 38.6058 94.834C38.6058 94.282 39.0538 93.834 39.6058 93.834H42.4978C43.0498 93.834 43.4978 94.282 43.4978 94.834C43.4978 95.386 43.0518 95.834 42.4978 95.834ZM50.6078 95.834H45.5158C44.9638 95.834 44.5158 95.386 44.5158 94.834C44.5158 94.282 44.9638 93.834 45.5158 93.834H50.6078C51.1598 93.834 51.6078 94.282 51.6078 94.834C51.6078 95.386 51.1598 95.834 50.6078 95.834ZM50.6078 99.564H31.3758C30.8238 99.564 30.3758 99.116 30.3758 98.564C30.3758 98.012 30.8238 97.564 31.3758 97.564H50.6078C51.1598 97.564 51.6078 98.012 51.6078 98.564C51.6078 99.116 51.1598 99.564 50.6078 99.564ZM27.9118 99.564H26.7518C26.1998 99.564 25.7518 99.116 25.7518 98.564C25.7518 98.012 26.1998 97.564 26.7518 97.564H27.9118C28.4638 97.564 28.9118 98.012 28.9118 98.564C28.9118 99.116 28.4658 99.564 27.9118 99.564ZM23.1598 99.564H20.2458C19.6938 99.564 19.2458 99.116 19.2458 98.564C19.2458 98.012 19.6938 97.564 20.2458 97.564H23.1598C23.7118 97.564 24.1598 98.012 24.1598 98.564C24.1598 99.116 23.7118 99.564 23.1598 99.564ZM41.4298 92.106H31.3758C30.8238 92.106 30.3758 91.658 30.3758 91.106C30.3758 90.554 30.8238 90.106 31.3758 90.106H41.4298C41.9818 90.106 42.4298 90.554 42.4298 91.106C42.4298 91.658 41.9838 92.106 41.4298 92.106ZM41.4298 88.374H38.9158C38.3638 88.374 37.9158 87.926 37.9158 87.374C37.9158 86.822 38.3638 86.374 38.9158 86.374H41.4298C41.9818 86.374 42.4298 86.822 42.4298 87.374C42.4298 87.926 41.9838 88.374 41.4298 88.374ZM34.8938 103.294H31.3758C30.8238 103.294 30.3758 102.846 30.3758 102.294C30.3758 101.742 30.8238 101.294 31.3758 101.294H34.8938C35.4458 101.294 35.8938 101.742 35.8938 102.294C35.8938 102.846 35.4458 103.294 34.8938 103.294Z" fill="#FAFBFC"/>
<path d="M83.9939 146.394C87.7599 146.394 91.0279 146.394 91.0739 146.394C95.2939 146.394 98.7159 143.046 98.7159 138.916C98.7159 135.312 96.1119 132.306 92.6459 131.596C92.6859 131.28 92.7139 130.962 92.7139 130.636C92.7139 126.358 89.1699 122.89 84.7999 122.89C82.2199 122.89 79.9339 124.104 78.4899 125.976C78.1199 121.214 73.7739 117.54 68.6899 118.15C64.9719 118.596 61.8959 121.408 61.2119 125.012C60.9919 126.168 61.0159 127.29 61.2339 128.342C60.2379 127.292 58.8179 126.63 57.2379 126.63C54.3459 126.63 51.9839 128.834 51.7979 131.618C50.4839 131.334 49.0559 131.352 47.5519 131.904C44.6759 132.96 42.6279 135.61 42.5079 138.616C42.3379 142.882 45.8219 146.394 50.1439 146.394C50.4719 146.394 51.6259 146.394 51.8919 146.394H67.7599H83.9939ZM71.0399 146.394H71.7599H71.0399Z" fill="#FAFBFC"/>
<path d="M91.0759 147.394H83.9939C83.4419 147.394 82.9939 146.946 82.9939 146.394C82.9939 145.842 83.4419 145.394 83.9939 145.394H91.0759C94.7379 145.394 97.7159 142.488 97.7159 138.916C97.7159 135.868 95.4999 133.202 92.4459 132.576C91.9339 132.472 91.5899 131.992 91.6539 131.474C91.6879 131.198 91.7119 130.92 91.7119 130.638C91.7119 126.918 88.6099 123.892 84.7979 123.892C82.6139 123.892 80.6019 124.874 79.2799 126.588C79.0259 126.916 78.5959 127.054 78.2019 126.934C77.8059 126.816 77.5239 126.466 77.4919 126.054C77.3339 124.016 76.3619 122.166 74.7519 120.846C73.0959 119.488 70.9859 118.882 68.8059 119.142C65.5139 119.536 62.7939 122.026 62.1919 125.198C62.0039 126.186 62.0099 127.174 62.2119 128.14C62.3019 128.578 62.0919 129.022 61.6959 129.228C61.2999 129.436 60.8159 129.354 60.5059 129.03C59.6499 128.126 58.4879 127.63 57.2339 127.63C54.8959 127.63 52.9439 129.412 52.7919 131.684C52.7719 131.974 52.6279 132.242 52.3959 132.416C52.1639 132.592 51.8699 132.656 51.5819 132.594C50.3039 132.316 49.0959 132.4 47.8919 132.842C45.3679 133.77 43.6039 136.106 43.5019 138.654C43.4319 140.404 44.0679 142.07 45.2919 143.344C46.5619 144.666 48.2839 145.392 50.1379 145.392H67.7539C68.3059 145.392 68.7539 145.84 68.7539 146.392C68.7539 146.944 68.3059 147.392 67.7539 147.392H50.1399C47.7699 147.392 45.4779 146.422 43.8499 144.728C42.2459 143.058 41.4119 140.872 41.5039 138.572C41.6379 135.224 43.9279 132.166 47.2039 130.962C48.4239 130.514 49.6859 130.35 50.9639 130.472C51.6519 127.682 54.2219 125.624 57.2339 125.624C58.2199 125.624 59.1879 125.85 60.0619 126.27C60.0799 125.786 60.1359 125.302 60.2279 124.818C60.9919 120.8 64.4219 117.646 68.5679 117.15C71.2919 116.828 73.9359 117.586 76.0199 119.294C77.5159 120.52 78.5759 122.112 79.1119 123.898C80.6939 122.602 82.6819 121.884 84.7959 121.884C89.7119 121.884 93.7099 125.808 93.7099 130.63C93.7099 130.698 93.7099 130.766 93.7079 130.834C97.2359 131.944 99.7139 135.21 99.7139 138.91C99.7159 143.59 95.8399 147.394 91.0759 147.394ZM71.7579 147.394H71.0399C70.4879 147.394 70.0399 146.946 70.0399 146.394C70.0399 145.842 70.4879 145.394 71.0399 145.394H71.7579C72.3099 145.394 72.7579 145.842 72.7579 146.394C72.7579 146.946 72.3119 147.394 71.7579 147.394Z" fill="#232538"/>
<path d="M87.66 135.788C87.624 135.788 87.586 135.784 87.55 135.776C87.28 135.716 87.112 135.448 87.174 135.178C87.25 134.844 87.364 134.522 87.512 134.22C88.72 131.772 92.058 130.87 94.956 132.208C95.206 132.324 95.316 132.622 95.2 132.872C95.082 133.122 94.786 133.232 94.536 133.116C92.124 131.998 89.38 132.698 88.41 134.664C88.294 134.896 88.208 135.144 88.15 135.4C88.094 135.632 87.888 135.788 87.66 135.788Z" fill="#232538"/>
<path d="M77.3419 147.394H75.1279C74.5759 147.394 74.1279 146.946 74.1279 146.394C74.1279 145.842 74.5759 145.394 75.1279 145.394H77.3419C77.8939 145.394 78.3419 145.842 78.3419 146.394C78.3419 146.946 77.8939 147.394 77.3419 147.394Z" fill="#232538"/>
<path d="M143.092 43.28H123.032C122.48 43.28 122.032 42.832 122.032 42.28C122.032 41.728 122.48 41.28 123.032 41.28H143.092C143.644 41.28 144.092 41.728 144.092 42.28C144.092 42.832 143.646 43.28 143.092 43.28ZM148.856 43.28H145.964C145.412 43.28 144.964 42.832 144.964 42.28C144.964 41.728 145.412 41.28 145.964 41.28H148.856C149.408 41.28 149.856 41.728 149.856 42.28C149.856 42.832 149.408 43.28 148.856 43.28ZM156.964 43.28H151.872C151.32 43.28 150.872 42.832 150.872 42.28C150.872 41.728 151.32 41.28 151.872 41.28H156.964C157.516 41.28 157.964 41.728 157.964 42.28C157.964 42.832 157.516 43.28 156.964 43.28ZM152.912 35.82H133.68C133.128 35.82 132.68 35.372 132.68 34.82C132.68 34.268 133.128 33.82 133.68 33.82H152.914C153.466 33.82 153.914 34.268 153.914 34.82C153.914 35.372 153.466 35.82 152.912 35.82ZM130.216 35.82H129.056C128.504 35.82 128.056 35.372 128.056 34.82C128.056 34.268 128.504 33.82 129.056 33.82H130.216C130.768 33.82 131.216 34.268 131.216 34.82C131.216 35.372 130.77 35.82 130.216 35.82ZM125.462 35.82H122.55C121.998 35.82 121.55 35.372 121.55 34.82C121.55 34.268 121.998 33.82 122.55 33.82H125.462C126.014 33.82 126.462 34.268 126.462 34.82C126.462 35.372 126.016 35.82 125.462 35.82ZM147.786 39.552H137.732C137.18 39.552 136.732 39.104 136.732 38.552C136.732 38 137.18 37.552 137.732 37.552H147.786C148.338 37.552 148.786 38 148.786 38.552C148.786 39.104 148.338 39.552 147.786 39.552Z" fill="#FAFBFC"/>
<path d="M147.786 35.82H145.272C144.72 35.82 144.272 35.372 144.272 34.82C144.272 34.268 144.72 33.82 145.272 33.82H147.786C148.338 33.82 148.786 34.268 148.786 34.82C148.786 35.372 148.338 35.82 147.786 35.82ZM134.822 39.552H131.304C130.752 39.552 130.304 39.104 130.304 38.552C130.304 38 130.752 37.552 131.304 37.552H134.822C135.374 37.552 135.822 38 135.822 38.552C135.822 39.104 135.374 39.552 134.822 39.552Z" fill="#FAFBFC"/>
<path d="M104.894 96.516C91.6038 96.516 78.3098 95.216 68.6058 91.204C68.3718 95.104 68.5438 97.848 68.5438 101.94C68.5438 128.698 84.8178 146.662 104.894 146.662C124.97 146.662 141.244 128.7 141.244 101.94C141.244 97.85 140.822 93.898 140.106 90.104C130.404 94.116 118.184 96.516 104.894 96.516Z" fill="#D68E54"/>
<path d="M104.894 148.06C83.0198 148.06 67.1438 128.662 67.1438 101.938C67.1438 100.67 67.1278 99.534 67.1118 98.45C67.0758 95.986 67.0458 93.856 67.2098 91.118L67.3278 89.158L69.1418 89.908C77.4938 93.364 89.5218 95.114 104.894 95.114C117.604 95.114 129.596 92.934 139.57 88.808L141.162 88.15L141.482 89.842C142.252 93.928 142.644 97.998 142.644 101.936C142.644 128.662 126.768 148.06 104.894 148.06ZM69.9158 93.212C69.8618 95.004 69.8838 96.616 69.9118 98.41C69.9278 99.504 69.9458 100.656 69.9458 101.938C69.9458 127.04 84.6438 145.26 104.896 145.26C125.148 145.26 139.846 127.042 139.846 101.938C139.846 98.712 139.572 95.39 139.028 92.042C129.052 95.888 117.296 97.916 104.898 97.916C90.2358 97.916 78.4838 96.334 69.9158 93.212Z" fill="#232538"/>
<path d="M104.45 79.582C94.9271 79.582 85.7942 80.7384 79.0606 82.7968C72.3269 84.8552 68.5439 87.647 68.5439 90.558C68.5439 93.469 72.3269 96.2608 79.0606 98.3192C85.7942 100.378 94.9271 101.534 104.45 101.534C113.973 101.534 123.106 100.378 129.839 98.3192C136.573 96.2608 140.356 93.469 140.356 90.558C140.356 87.647 136.573 84.8552 129.839 82.7968C123.106 80.7384 113.973 79.582 104.45 79.582Z" fill="#B77748"/>
<path d="M104.45 102.934C86.3656 102.934 67.1436 98.596 67.1436 90.558C67.1436 82.52 86.3636 78.182 104.45 78.182C122.536 78.182 141.756 82.52 141.756 90.558C141.756 98.596 122.536 102.934 104.45 102.934ZM104.45 80.982C84.1156 80.982 69.9456 86.028 69.9456 90.558C69.9456 95.088 84.1156 100.134 104.45 100.134C124.784 100.134 138.954 95.088 138.954 90.558C138.954 86.028 124.784 80.982 104.45 80.982Z" fill="#232538"/>
<path d="M135.772 90.33C135.772 93.054 121.714 97.008 104.37 97.008C87.0258 97.008 72.9678 93.054 72.9678 90.33C72.9678 87.606 86.8458 84.34 104.188 84.34C121.53 84.34 135.772 87.606 135.772 90.33Z" fill="#FAFBFC"/>
<path d="M104.37 98.008C89.3858 98.008 71.9678 94.654 71.9678 90.33C71.9678 85.77 90.6798 83.34 104.188 83.34C117.848 83.34 136.772 85.77 136.772 90.33C136.772 94.654 119.354 98.008 104.37 98.008ZM104.19 85.34C86.7698 85.34 74.5458 88.644 73.9638 90.372C74.4838 91.99 86.8358 96.008 104.37 96.008C121.758 96.008 134.05 92.056 134.76 90.336C133.952 88.594 121.614 85.34 104.19 85.34ZM134.778 90.378H134.798H134.778Z" fill="#232538"/>
<path d="M104.292 84.34C87.234 84.34 73.584 87.522 73.584 90.176C73.584 90.772 74.312 91.426 75.584 92.086L76.214 91.75C77.348 91.146 78.856 90.586 80.672 90.086L83.688 89.368C84.026 89.298 83.952 89.31 84.304 89.244L86.98 88.776C91.88 88.014 97.82 87.568 104.222 87.568C117.074 87.568 128.064 89.364 132.51 91.904L132.968 92.294C134.504 91.566 135.358 90.836 135.358 90.178C135.358 87.522 121.352 84.34 104.292 84.34Z" fill="#CDCBBD"/>
<path d="M132.874 92.802C132.756 92.802 132.636 92.772 132.526 92.708C128.008 90.102 116.59 88.352 104.116 88.352C97.8517 88.352 91.8277 88.778 86.6937 89.582C86.3097 89.648 85.9537 89.382 85.8937 88.998C85.8337 88.616 86.0957 88.258 86.4777 88.198C91.6837 87.382 97.7817 86.95 104.116 86.95C117.014 86.95 128.44 88.734 133.226 91.494C133.56 91.688 133.676 92.116 133.482 92.45C133.352 92.676 133.118 92.802 132.874 92.802ZM83.2377 90.198C82.9137 90.198 82.6217 89.97 82.5537 89.64C82.4757 89.262 82.7197 88.89 83.0957 88.812L83.7317 88.684C84.1137 88.608 84.4777 88.86 84.5517 89.24C84.6237 89.62 84.3757 89.988 83.9957 90.06L83.3817 90.184C83.3317 90.192 83.2857 90.198 83.2377 90.198ZM75.6417 92.644C75.3917 92.644 75.1497 92.51 75.0237 92.274C74.8417 91.934 74.9697 91.51 75.3097 91.326C76.4997 90.688 78.0737 90.094 79.9857 89.562C80.3617 89.464 80.7437 89.678 80.8477 90.05C80.9517 90.422 80.7317 90.808 80.3597 90.912C78.5477 91.416 77.0697 91.97 75.9717 92.562C75.8677 92.616 75.7537 92.644 75.6417 92.644Z" fill="#232538"/>
<path d="M112.882 92.946L132.588 43.606L136.332 44.94L117.2 92.844C115.758 92.822 114.32 92.872 112.882 92.946Z" fill="#E6484F"/>
<path d="M111.828 93.7L132.188 42.718L137.252 44.522L117.672 93.55L117.19 93.544C115.964 93.524 114.644 93.556 112.918 93.644L111.828 93.7ZM132.988 44.49L113.936 92.196C114.982 92.154 115.886 92.144 116.728 92.138L135.412 45.352L132.988 44.49Z" fill="#232538"/>
<path d="M132.568 43.648L132.586 43.604L136.33 44.938L134.996 48.276C134.222 46.72 133.41 45.178 132.568 43.648Z" fill="#FAFBFC"/>
<path d="M135.068 49.988L134.37 48.59C133.6 47.042 132.792 45.508 131.954 43.988L131.79 43.69L132.198 42.726L137.25 44.524L135.068 49.988ZM134.022 44.858C134.326 45.43 134.628 46.002 134.924 46.576L135.412 45.352L134.022 44.858Z" fill="#232538"/>
<path d="M127.62 56.04L130.358 49.186C131.182 50.808 131.958 52.448 132.67 54.11L129.832 61.214C129.098 59.488 128.36 57.762 127.62 56.04Z" fill="#FAFBFC"/>
<path d="M129.852 63.052L129.186 61.49C128.452 59.764 127.718 58.04 126.978 56.318L126.862 56.052L130.28 47.494L130.982 48.872C131.84 50.56 132.624 52.232 133.312 53.838L133.426 54.104L129.852 63.052ZM128.378 56.03C128.858 57.146 129.334 58.262 129.81 59.378L131.91 54.12C131.454 53.07 130.958 51.99 130.428 50.898L128.378 56.03Z" fill="#232538"/>
<path d="M115.979 85.188L119.519 76.324C120.273 78.11 120.983 79.912 121.637 81.732L118.203 90.33C117.453 88.618 116.711 86.906 115.979 85.188Z" fill="#FAFBFC"/>
<path d="M118.232 92.144L117.562 90.61C116.812 88.896 116.068 87.18 115.338 85.46L115.224 85.194L119.502 74.48L120.164 76.05C120.948 77.908 121.666 79.738 122.296 81.494L122.386 81.744L118.232 92.144ZM116.738 85.178C117.214 86.292 117.694 87.404 118.176 88.514L120.89 81.72C120.474 80.568 120.018 79.386 119.532 78.184L116.738 85.178Z" fill="#232538"/>
<path d="M121.906 70.346L125.18 62.15C125.916 63.88 126.65 65.61 127.386 67.34L124.15 75.446C123.438 73.732 122.686 72.034 121.906 70.346Z" fill="#FAFBFC"/>
<path d="M124.16 77.302L123.5 75.714C122.792 74.008 122.044 72.318 121.268 70.64L121.142 70.366L125.156 60.314L128.138 67.332L124.16 77.302ZM122.668 70.326C123.168 71.412 123.658 72.504 124.13 73.604L126.628 67.348L125.2 63.986L122.668 70.326Z" fill="#232538"/>
<path d="M86.2479 133.694C84.6379 133.694 82.9719 132.6 82.1539 130.846C81.5879 129.638 81.5119 128.306 81.9439 127.192C82.2899 126.298 82.9419 125.614 83.7799 125.264C85.7039 124.462 88.1179 125.626 89.1619 127.858C89.7279 129.068 89.8039 130.4 89.3719 131.514C89.0259 132.408 88.3719 133.092 87.5339 133.44C87.1219 133.612 86.6879 133.694 86.2479 133.694ZM85.0919 126.404C84.8259 126.404 84.5659 126.452 84.3179 126.556C83.6979 126.814 83.3939 127.318 83.2479 127.696C82.9539 128.456 83.0159 129.386 83.4199 130.25C84.1519 131.814 85.7539 132.668 86.9959 132.146C87.6159 131.888 87.9199 131.384 88.0659 131.006C88.3599 130.246 88.2979 129.314 87.8939 128.45C87.3079 127.2 86.1619 126.404 85.0919 126.404ZM94.7839 140.266C94.2339 140.266 93.6539 140.2 93.0639 140.06C91.4299 139.676 90.0739 138.812 89.4359 137.75C89.0699 137.142 88.9619 136.5 89.1199 135.896C89.5659 134.208 91.9879 133.378 94.6239 133.996C96.2579 134.38 97.6159 135.246 98.2519 136.306C98.6179 136.914 98.7259 137.556 98.5659 138.158C98.2219 139.47 96.6879 140.266 94.7839 140.266ZM92.8859 135.19C91.5819 135.19 90.6319 135.656 90.4719 136.256C90.4099 136.49 90.4659 136.75 90.6339 137.032C91.0759 137.766 92.1279 138.404 93.3839 138.698C95.3839 139.17 97.0039 138.604 97.2159 137.804C97.2779 137.57 97.2219 137.31 97.0539 137.03C96.6139 136.296 95.5599 135.656 94.3039 135.362C93.8019 135.242 93.3239 135.19 92.8859 135.19ZM94.2879 132.524C92.2579 132.524 90.6059 130.436 90.6059 127.87C90.6059 125.304 92.2579 123.216 94.2879 123.216C96.3179 123.216 97.9699 125.304 97.9699 127.87C97.9699 130.436 96.3179 132.524 94.2879 132.524ZM94.2879 124.618C93.0499 124.618 92.0059 126.108 92.0059 127.87C92.0059 129.634 93.0499 131.122 94.2879 131.122C95.5259 131.122 96.5699 129.632 96.5699 127.87C96.5699 126.108 95.5259 124.618 94.2879 124.618Z" fill="#232538"/>
<path d="M75.3884 47.252L75.1364 47.3C74.3304 47.452 73.3264 47.45 73.1504 46.752L72.8864 44.446C72.7104 43.748 73.2284 43.052 74.0344 42.9L74.2864 42.852C75.0924 42.7 75.8964 43.148 76.0704 43.846L77.0264 45.85C77.2004 46.546 76.1944 47.1 75.3884 47.252Z" fill="#E1E0D8"/>
<path d="M74.3481 47.806C73.4661 47.806 72.8941 47.476 72.7381 46.854L72.4621 44.492C72.3661 44.124 72.4401 43.686 72.6821 43.31C72.9541 42.884 73.4181 42.58 73.9541 42.48L74.2061 42.434C75.2421 42.236 76.2521 42.828 76.4801 43.742L77.4081 45.666C77.5121 46.044 77.4581 46.35 77.2801 46.628C76.9041 47.214 76.0701 47.556 75.4681 47.67L75.2161 47.716C74.9001 47.776 74.6101 47.806 74.3481 47.806ZM74.5981 43.246C74.5201 43.246 74.4421 43.254 74.3641 43.268L74.1121 43.314C73.8061 43.372 73.5461 43.536 73.4001 43.768C73.3201 43.892 73.2381 44.094 73.3001 44.34L73.5761 46.702C73.6501 46.99 74.3821 47.014 75.0601 46.882L75.3121 46.836C75.8501 46.734 76.3901 46.45 76.5661 46.172C76.6321 46.07 76.6261 46.002 76.6141 45.954L75.6861 44.03C75.5581 43.544 75.0961 43.246 74.5981 43.246Z" fill="#232538"/>
<path d="M90.2342 69.202C90.9222 63.086 96.8902 66.156 96.8902 66.156C96.8902 66.156 79.5902 44.862 75.0882 45.884C70.8642 46.842 68.1322 71.878 68.6502 74.352C69.0142 72.578 70.1322 71.16 71.7602 70.692C74.0422 70.036 76.5682 71.462 77.8382 73.958C77.1482 70.912 79.1982 67.766 82.6082 66.786C84.3502 66.286 86.1242 66.442 87.6022 67.104" fill="#F1BC19"/>
<path d="M68.6502 74.92C68.3822 74.92 68.1502 74.732 68.0962 74.468C67.5962 72.078 70.1142 46.43 74.9642 45.33C79.6642 44.268 95.5382 63.59 97.3322 65.798C97.5002 66.006 97.5002 66.304 97.3322 66.512C97.1642 66.72 96.8722 66.782 96.6322 66.66C96.6082 66.648 94.0622 65.366 92.3642 66.278C91.4962 66.744 90.9682 67.75 90.7982 69.266C90.7642 69.576 90.4722 69.794 90.1722 69.766C89.8622 69.73 89.6362 69.45 89.6722 69.14C89.8862 67.23 90.6142 65.932 91.8322 65.278C92.9082 64.7 94.1622 64.756 95.1842 64.974C88.4562 56.888 78.0462 45.804 75.2142 46.436C74.0582 46.698 72.2522 50.306 70.6502 59.644C69.8522 64.31 69.3562 68.984 69.2042 71.782C69.8242 70.992 70.6462 70.422 71.6042 70.146C73.5322 69.592 75.6682 70.362 77.1882 72.024C77.5222 69.42 79.5502 67.076 82.4542 66.24C84.2642 65.722 86.1762 65.842 87.8362 66.584C88.1222 66.712 88.2502 67.046 88.1222 67.334C87.9922 67.62 87.6542 67.744 87.3722 67.62C85.9562 66.986 84.3202 66.884 82.7662 67.33C79.6882 68.214 77.7662 71.07 78.3902 73.83C78.4542 74.108 78.3002 74.39 78.0302 74.488C77.7622 74.582 77.4622 74.468 77.3322 74.212C76.1642 71.92 73.8842 70.66 71.9162 71.234C70.5542 71.626 69.5402 72.834 69.2062 74.464C69.1502 74.73 68.9182 74.918 68.6502 74.92Z" fill="#232538"/>
<path d="M89.048 92.946L82.996 67.27L81.376 67.558L87.362 92.946H89.048Z" fill="#BD977C"/>
<path d="M89.0481 93.512H87.3621C87.1001 93.512 86.8701 93.33 86.8101 93.074L80.8241 67.686C80.7881 67.534 80.8161 67.374 80.9021 67.244C80.9881 67.114 81.1241 67.024 81.2781 66.996L82.8961 66.71C83.1881 66.66 83.4781 66.846 83.5461 67.138L89.6001 92.816C89.6401 92.984 89.6001 93.162 89.4921 93.298C89.3841 93.434 89.2201 93.512 89.0481 93.512ZM87.8121 92.378H88.3321L82.5661 67.922L82.0661 68.01L87.8121 92.378ZM76.3381 70.164C76.1141 70.164 75.9241 69.988 75.9141 69.762L74.6641 45.906C74.6521 45.672 74.8321 45.472 75.0661 45.458C75.0741 45.458 75.0821 45.458 75.0881 45.458C75.3121 45.458 75.5021 45.634 75.5121 45.86L76.7621 69.716C76.7741 69.95 76.5941 70.15 76.3601 70.164C76.3521 70.164 76.3441 70.164 76.3381 70.164Z" fill="#232538"/>
<path d="M87.8381 65.436C87.7021 65.436 87.5661 65.37 87.4841 65.246L74.7341 46.118C74.6041 45.922 74.6561 45.66 74.8521 45.53C75.0501 45.4 75.3101 45.452 75.4421 45.648L88.1921 64.776C88.3221 64.972 88.2701 65.234 88.0741 65.364C88.0001 65.414 87.9181 65.436 87.8381 65.436Z" fill="#232538"/>
</svg>
