<svg width="200" height="200" viewBox="0 0 200 200" fill="none" xmlns="http://www.w3.org/2000/svg">
<path d="M174.43 113.42C176.7 109.11 178 104.21 178 99C178 85.758 169.682 74.486 157.998 70.044C157.998 70.03 158 70.016 158 70C158 46.804 139.196 28 116 28C96.432 28 80.038 41.402 75.374 59.514C72.422 58.544 69.276 58 66 58C50.616 58 37.954 69.586 36.22 84.504C25.812 86.706 18 95.938 18 107C18 119.702 28.298 130 41 130C41.354 130 41.704 129.976 42.052 129.956C42.044 130.306 42 130.648 42 131C42 153.644 60.356 172 83 172C95.874 172 107.35 166.056 114.868 156.772C119.224 161.222 125.28 164 132 164C141.3 164 149.348 158.7 153.332 150.964C155.436 151.634 157.674 152 160 152C172.15 152 182 142.15 182 130C182 123.378 179.06 117.454 174.43 113.42Z" fill="#FAFBFC"/>
<path d="M153 119V120H159V119C159 119 167.484 119 170 119C174.97 119 179 114.97 179 110C179 105.334 175.436 101.542 170.89 101.09C170.934 100.728 171 100.374 171 100C171 95.03 166.97 91 162 91C159.124 91 156.594 92.372 154.946 94.472C154.666 89.2 150.342 85 145 85C139.478 85 135 89.478 135 95C135 95.892 135.154 96.74 135.374 97.564C134.09 96.01 132.172 95 130 95C126.438 95 123.532 97.67 123.09 101.11C122.728 101.066 122.374 101 122 101C117.03 101 113 105.03 113 110C113 114.97 117.03 119 122 119C126.97 119 141 119 141 119H153Z" fill="#FAFBFC"/>
<path d="M145 84C138.934 84 134 88.934 134 95C134 95.032 134 95.062 134 95.094C132.796 94.384 131.42 94 130 94C126.338 94 123.178 96.522 122.284 100.01C122.19 100.004 122.096 100 122 100C116.486 100 112 104.486 112 110C112 115.514 116.486 120 122 120H153C153.552 120 154 119.552 154 119C154 118.448 153.552 118 153 118H122C117.588 118 114 114.412 114 110C114 105.588 117.588 102 122 102C122.234 102 122.46 102.034 122.686 102.064L122.968 102.102C123.01 102.108 123.05 102.11 123.092 102.11C123.584 102.11 124.016 101.74 124.082 101.236C124.464 98.25 127.008 96 130 96C131.77 96 133.446 96.802 134.602 98.2C134.798 98.436 135.084 98.564 135.374 98.564C135.53 98.564 135.686 98.528 135.83 98.452C136.248 98.238 136.458 97.76 136.338 97.306C136.108 96.436 136 95.704 136 95C136 90.038 140.038 86 145 86C149.762 86 153.694 89.744 153.948 94.526C153.97 94.942 154.248 95.3 154.646 95.426C154.746 95.458 154.848 95.474 154.95 95.474C155.25 95.474 155.542 95.336 155.734 95.09C157.276 93.126 159.558 92 162 92C166.412 92 170 95.588 170 100C170 100.234 169.966 100.46 169.936 100.686L169.898 100.968C169.866 101.236 169.942 101.504 170.11 101.714C170.278 101.924 170.524 102.058 170.79 102.084C174.902 102.494 178 105.898 178 110C178 114.412 174.412 118 170 118H159C158.448 118 158 118.448 158 119C158 119.552 158.448 120 159 120H170C175.514 120 180 115.514 180 110C180 105.206 176.622 101.174 171.994 100.246C171.998 100.164 172 100.082 172 100C172 94.486 167.514 90 162 90C159.648 90 157.414 90.832 155.634 92.328C154.438 87.52 150.11 84 145 84Z" fill="#232538"/>
<path d="M142 98C139.194 98 136.782 99.998 136.174 102.682C135.44 102.238 134.602 102 133.75 102C131.346 102 129.354 103.794 129.044 106.136C128.638 106.044 128.252 106 127.874 106C124.816 106 122.252 108.4 122.038 111.464C122.02 111.74 122.228 111.98 122.502 112C122.514 112 122.526 112 122.538 112C122.798 112 123.018 111.798 123.036 111.536C123.214 108.994 125.338 107 127.874 107C128.332 107 128.814 107.084 129.35 107.254C129.394 107.268 129.44 107.274 129.484 107.274C129.594 107.274 129.704 107.234 129.796 107.166C129.924 107.074 130 106.91 130 106.75C130 104.682 131.682 103 133.75 103C134.644 103 135.52 103.336 136.212 103.946C136.306 104.028 136.424 104.072 136.542 104.072C136.606 104.072 136.668 104.06 136.728 104.034C136.904 103.964 137.024 103.8 137.038 103.61C137.246 101.024 139.424 99 142 99C142.416 99 142.85 99.068 143.364 99.214C143.41 99.228 143.458 99.234 143.504 99.234C143.722 99.234 143.918 99.088 143.982 98.87C144.058 98.604 143.904 98.328 143.638 98.252C143.034 98.08 142.512 98 142 98ZM169.766 101C167.114 101 164.75 102.794 164.018 105.364C163.942 105.63 164.096 105.906 164.362 105.982C164.41 105.994 164.456 106 164.5 106C164.718 106 164.918 105.856 164.98 105.636C165.59 103.496 167.558 102 169.766 102C170 102 170.226 102.028 170.45 102.058C170.474 102.062 170.496 102.064 170.52 102.064C170.762 102.064 170.978 101.88 171.012 101.63C171.05 101.356 170.858 101.104 170.584 101.068C170.316 101.032 170.044 101 169.766 101Z" fill="#232538"/>
<path d="M31 102H11C10.448 102 10 101.552 10 101C10 100.448 10.448 100 11 100H31C31.552 100 32 100.448 32 101C32 101.552 31.554 102 31 102ZM37 102H35C34.448 102 34 101.552 34 101C34 100.448 34.448 100 35 100H37C37.552 100 38 100.448 38 101C38 101.552 37.554 102 37 102ZM46.982 106H29C28.448 106 28 105.552 28 105C28 104.448 28.448 104 29 104H46.982C47.534 104 47.982 104.448 47.982 105C47.982 105.552 47.534 106 46.982 106ZM25 106H23C22.448 106 22 105.552 22 105C22 104.448 22.448 104 23 104H25C25.552 104 26 104.448 26 105C26 105.552 25.554 106 25 106ZM19 106H15C14.448 106 14 105.552 14 105C14 104.448 14.448 104 15 104H19C19.552 104 20 104.448 20 105C20 105.552 19.554 106 19 106ZM31 110H27C26.448 110 26 109.552 26 109C26 108.448 26.448 108 27 108H31C31.552 108 32 108.448 32 109C32 109.552 31.552 110 31 110ZM37 92C36.646 92 35.354 92 35 92C34.448 92 34 92.448 34 93C34 93.552 34.448 94 35 94C35.354 94 36.646 94 37 94C37.552 94 38 93.552 38 93C38 92.448 37.552 92 37 92ZM37 96C36.646 96 27.354 96 27 96C26.448 96 26 96.448 26 97C26 97.552 26.448 98 27 98C27.354 98 36.646 98 37 98C37.552 98 38 97.552 38 97C38 96.448 37.552 96 37 96ZM47 100C46.646 100 41.354 100 41 100C40.448 100 40 100.448 40 101C40 101.552 40.448 102 41 102C41.354 102 46.646 102 47 102C47.552 102 48 101.552 48 101C48 100.448 47.552 100 47 100ZM145 48H125C124.448 48 124 47.552 124 47C124 46.448 124.448 46 125 46H145C145.552 46 146 46.448 146 47C146 47.552 145.552 48 145 48ZM153 48H149C148.448 48 148 47.552 148 47C148 46.448 148.448 46 149 46H153C153.552 46 154 46.448 154 47C154 47.552 153.552 48 153 48ZM163 52H143C142.448 52 142 51.552 142 51C142 50.448 142.448 50 143 50H163C163.552 50 164 50.448 164 51C164 51.552 163.554 52 163 52ZM139 52H137C136.448 52 136 51.552 136 51C136 50.448 136.448 50 137 50H139C139.552 50 140 50.448 140 51C140 51.552 139.552 52 139 52ZM132.94 52H129C128.448 52 128 51.552 128 51C128 50.448 128.448 50 129 50H132.94C133.492 50 133.94 50.448 133.94 51C133.94 51.552 133.492 52 132.94 52ZM151 44H141C140.448 44 140 43.552 140 43C140 42.448 140.448 42 141 42H151C151.552 42 152 42.448 152 43C152 43.552 151.554 44 151 44ZM145 56H141C140.448 56 140 55.552 140 55C140 54.448 140.448 54 141 54H145C145.552 54 146 54.448 146 55C146 55.552 145.552 56 145 56Z" fill="#FAFBFC"/>
<path d="M96.4356 70.434C94.5656 59.264 76.4656 52.096 73.1736 64.576C70.2496 81.68 96.4356 77.566 96.4356 77.566V70.434Z" fill="#FDE751"/>
<path d="M90.0678 79.406C85.0218 79.406 78.3038 78.582 74.4978 74.72C71.9638 72.156 71.0558 68.662 71.7938 64.34C73.1578 59.15 76.8438 56.384 82.0038 56.614C88.5918 56.916 96.5178 62.45 97.8158 70.206L97.8358 70.436V78.764L96.6518 78.95C96.3898 78.99 93.6498 79.406 90.0678 79.406ZM81.4138 59.398C78.8358 59.398 75.7178 60.422 74.5298 64.934C73.9698 68.242 74.6018 70.842 76.4898 72.756C81.0618 77.386 91.5198 76.708 95.0358 76.332V70.556C93.9158 64.286 87.2278 59.656 81.8758 59.41C81.7238 59.402 81.5698 59.398 81.4138 59.398Z" fill="#232538"/>
<path d="M105.788 70.434C107.658 59.264 125.758 52.096 129.05 64.576C131.974 81.68 105.788 77.566 105.788 77.566V70.434Z" fill="#FDE751"/>
<path d="M112.156 79.406C108.576 79.406 105.836 78.99 105.572 78.948L104.388 78.762L104.408 70.204C105.704 62.45 113.63 56.914 120.216 56.612C125.326 56.346 129.066 59.148 130.402 64.218C131.168 68.662 130.26 72.156 127.726 74.722C123.92 78.58 117.204 79.406 112.156 79.406ZM107.19 76.33C110.718 76.708 121.178 77.378 125.736 72.754C127.622 70.84 128.256 68.242 127.668 64.812C126.434 60.146 123.02 59.264 120.346 59.41C114.994 59.656 108.306 64.286 107.19 70.554V76.33Z" fill="#232538"/>
<path d="M72.6759 148.6C65.3559 148.6 59.3999 142.644 59.3999 135.324V92.676C59.3999 85.356 65.3559 79.4 72.6759 79.4H129.324C136.644 79.4 142.6 85.356 142.6 92.676V135.324C142.6 142.644 136.644 148.6 129.324 148.6H72.6759Z" fill="#E6484F"/>
<path d="M129.324 80.8C135.872 80.8 141.2 86.128 141.2 92.676V135.324C141.2 141.872 135.872 147.2 129.324 147.2H72.676C66.128 147.2 60.8 141.872 60.8 135.324V92.676C60.8 86.128 66.128 80.8 72.676 80.8H129.324ZM129.324 78H72.676C64.604 78 58 84.604 58 92.676V135.324C58 143.396 64.604 150 72.676 150H129.324C137.396 150 144 143.396 144 135.324V92.676C144 84.604 137.396 78 129.324 78Z" fill="#232538"/>
<path d="M100.228 84.878C97.3618 84.878 95.0298 82.548 95.0298 79.682V74.594C95.0298 71.728 97.3618 69.398 100.228 69.398H101.998C104.864 69.398 107.194 71.728 107.194 74.594V79.682C107.194 82.548 104.864 84.878 101.998 84.878H100.228Z" fill="#FDE751"/>
<path d="M101.998 70.8C104.092 70.8 105.794 72.504 105.794 74.596V79.682C105.794 81.776 104.09 83.478 101.998 83.478H100.228C98.1338 83.478 96.4318 81.774 96.4318 79.682V74.596C96.4318 72.502 98.1358 70.8 100.228 70.8H101.998ZM101.998 68H100.228C96.5998 68 93.6318 70.968 93.6318 74.596V79.682C93.6318 83.31 96.5998 86.278 100.228 86.278H101.998C105.626 86.278 108.594 83.31 108.594 79.682V74.596C108.594 70.968 105.626 68 101.998 68Z" fill="#232538"/>
<path d="M59.6059 100.6C58.3899 100.6 57.3999 99.612 57.3999 98.394V90.422C57.3999 83.242 63.2419 77.4 70.4219 77.4H131.578C138.758 77.4 144.6 83.242 144.6 90.422V98.394C144.6 99.61 143.612 100.6 142.394 100.6H59.6059Z" fill="#E6484F"/>
<path d="M131.578 78.8C137.986 78.8 143.2 84.014 143.2 90.422V98.394C143.2 98.838 142.838 99.2 142.394 99.2H59.606C59.162 99.2 58.8 98.838 58.8 98.394V90.422C58.8 84.014 64.014 78.8 70.422 78.8H131.578ZM131.578 76H70.422C62.458 76 56 82.458 56 90.422V98.394C56 100.386 57.614 102 59.606 102H142.394C144.386 102 146 100.386 146 98.394V90.422C146 82.458 139.542 76 131.578 76Z" fill="#232538"/>
<path d="M119.01 64.24C120.574 63.844 122.23 63.916 123.868 64.808L119.01 64.24Z" fill="#FDE751"/>
<path d="M123.868 65.308C123.786 65.308 123.704 65.288 123.628 65.248C122.248 64.494 120.738 64.314 119.134 64.724C118.862 64.78 118.592 64.63 118.526 64.362C118.458 64.094 118.62 63.822 118.888 63.754C120.742 63.286 122.5 63.492 124.108 64.368C124.35 64.5 124.438 64.804 124.308 65.048C124.214 65.214 124.042 65.308 123.868 65.308Z" fill="#232538"/>
<path d="M110.464 70.812C110.464 70.812 112.632 67.782 115.694 65.768L110.464 70.812Z" fill="#FDE751"/>
<path d="M110.464 71.312C110.362 71.312 110.26 71.28 110.172 71.218C109.948 71.058 109.896 70.746 110.056 70.52C110.146 70.394 112.312 67.392 115.418 65.348C115.648 65.2 115.96 65.262 116.112 65.49C116.264 65.72 116.2 66.032 115.97 66.184C113.022 68.122 110.892 71.072 110.87 71.102C110.774 71.24 110.622 71.312 110.464 71.312Z" fill="#232538"/>
<path d="M78.436 64.104C78.436 64.104 86.034 62.194 91.178 70.854L78.436 64.104Z" fill="#FDE751"/>
<path d="M91.1761 71.354C91.0061 71.354 90.8401 71.266 90.7461 71.11C85.8501 62.86 78.6281 64.572 78.5561 64.588C78.2721 64.662 78.0161 64.492 77.9501 64.224C77.8821 63.956 78.0441 63.684 78.3141 63.618C78.3921 63.596 86.3321 61.718 91.6061 70.596C91.7461 70.834 91.6681 71.14 91.4321 71.282C91.3521 71.33 91.2641 71.354 91.1761 71.354Z" fill="#232538"/>
<path d="M125.876 142H99C98.448 142 98 141.552 98 141C98 140.448 98.448 140 99 140H125.876C130.356 140 134 136.356 134 131.876V127C134 126.448 134.448 126 135 126C135.552 126 136 126.448 136 127V131.876C136 137.458 131.458 142 125.876 142Z" fill="#232538"/>
<path d="M135 122C134.448 122 134 121.552 134 121V109C134 108.448 134.448 108 135 108C135.552 108 136 108.448 136 109V121C136 121.552 135.552 122 135 122Z" fill="#232538"/>
<path d="M89 142H76.124C70.542 142 66 137.458 66 131.876V127C66 126.448 66.448 126 67 126C67.552 126 68 126.448 68 127V131.876C68 136.356 71.644 140 76.124 140H89C89.552 140 90 140.448 90 141C90 141.552 89.552 142 89 142Z" fill="#232538"/>
<path d="M66.5122 123.88C65.9602 123.88 65.5122 123.432 65.5122 122.88V115.398C65.5122 114.846 65.9602 114.398 66.5122 114.398C67.0642 114.398 67.5122 114.846 67.5122 115.398V122.88C67.5122 123.434 67.0642 123.88 66.5122 123.88Z" fill="#232538"/>
<path d="M67 112C66.448 112 66 111.552 66 111V107C66 106.448 66.448 106 67 106C67.552 106 68 106.448 68 107V111C68 111.552 67.552 112 67 112Z" fill="#232538"/>
<path d="M93.3999 79.4H108.6V148.6H93.3999V79.4Z" fill="#FDE751"/>
<path d="M107.2 80.8V147.2H94.8V80.8H107.2ZM110 78H92V150H110V78Z" fill="#232538"/>
<path d="M103 93.5C102.724 93.5 102.5 93.276 102.5 93V83C102.5 82.724 102.724 82.5 103 82.5C103.276 82.5 103.5 82.724 103.5 83V93C103.5 93.276 103.276 93.5 103 93.5Z" fill="#232538"/>
<path d="M103 141.5C102.724 141.5 102.5 141.276 102.5 141V99C102.5 98.724 102.724 98.5 103 98.5C103.276 98.5 103.5 98.724 103.5 99V141C103.5 141.276 103.276 141.5 103 141.5Z" fill="#232538"/>
<path d="M69 135C69 135 72.134 135 76 135C79.866 135 83 131.866 83 128C83 124.438 80.33 121.532 76.89 121.09C76.946 120.732 77 120.374 77 120C77 116.134 73.866 113 70 113C67.936 113 66.1 113.91 64.82 115.33C64.052 111.714 60.846 109 57 109C52.582 109 49 112.582 49 117C49 117.382 49.06 117.748 49.112 118.116C48.256 117.428 47.184 117 46 117C43.544 117 41.51 118.774 41.09 121.11C40.732 121.054 40.374 121 40 121C36.134 121 33 124.134 33 128C33 131.866 36.134 135 40 135C43.866 135 55 135 55 135V136H69V135Z" fill="#FAFBFC"/>
<path d="M72.5 126C72.224 126 72 125.776 72 125.5C72 123.054 73.99 121.064 76.436 121.064C76.504 121.082 77.91 121.062 78.924 121.336C79.19 121.408 79.348 121.682 79.276 121.948C79.204 122.216 78.93 122.374 78.664 122.3C77.776 122.06 76.464 122.06 76.438 122.064C74.542 122.064 73 123.606 73 125.5C73 125.776 72.776 126 72.5 126ZM59 134C58.7348 134 58.4804 134.105 58.2929 134.293C58.1054 134.48 58 134.735 58 135C58 135.265 58.1054 135.52 58.2929 135.707C58.4804 135.895 58.7348 136 59 136C59.2652 136 59.5196 135.895 59.7071 135.707C59.8946 135.52 60 135.265 60 135C60 134.735 59.8946 134.48 59.7071 134.293C59.5196 134.105 59.2652 134 59 134Z" fill="#232538"/>
<path d="M76 136H69C68.448 136 68 135.552 68 135C68 134.448 68.448 134 69 134H76C79.308 134 82 131.308 82 128C82 125.008 79.75 122.464 76.764 122.082C76.496 122.046 76.254 121.906 76.092 121.69C75.93 121.474 75.862 121.202 75.904 120.936C75.95 120.628 76 120.32 76 120C76 116.692 73.308 114 70 114C68.3 114 66.724 114.71 65.562 116C65.312 116.278 64.92 116.396 64.562 116.296C64.198 116.198 63.92 115.906 63.842 115.538C63.16 112.33 60.282 110 57 110C53.14 110 50 113.14 50 117C50 117.286 50.042 117.56 50.082 117.836C50.14 118.242 49.956 118.712 49.598 118.916C49.24 119.12 48.806 119.152 48.486 118.896C47.756 118.31 46.898 118 46 118C44.068 118 42.416 119.382 42.074 121.288C41.978 121.822 41.482 122.18 40.936 122.098C40.628 122.05 40.32 122 40 122C36.692 122 34 124.692 34 128C34 131.308 36.692 134 40 134H55C55.552 134 56 134.448 56 135C56 135.552 55.552 136 55 136H40C35.588 136 32 132.412 32 128C32 123.588 35.588 120 40 120C40.118 120 40.232 120.004 40.348 120.012C41.176 117.64 43.422 116 46 116C46.698 116 47.378 116.122 48.022 116.36C48.352 111.694 52.252 108 57 108C60.662 108 63.932 110.254 65.306 113.548C66.666 112.552 68.31 112 70 112C74.412 112 78 115.588 78 120C78 120.096 77.998 120.19 77.992 120.284C81.478 121.18 84 124.338 84 128C84 132.412 80.412 136 76 136Z" fill="#232538"/>
<path d="M65 134C64.682 134 63.318 134 63 134C62.448 134 62 134.448 62 135C62 135.552 62.448 136 63 136C63.318 136 64.682 136 65 136C65.552 136 66 135.552 66 135C66 134.448 65.552 134 65 134Z" fill="#232538"/>
</svg>
