<svg width="200" height="200" viewBox="0 0 200 200" fill="none" xmlns="http://www.w3.org/2000/svg">
<path d="M174.43 113.42C176.7 109.11 178 104.21 178 99C178 85.758 169.682 74.486 157.998 70.044C157.998 70.03 158 70.016 158 70C158 46.804 139.196 28 116 28C96.432 28 80.038 41.402 75.374 59.514C72.422 58.544 69.276 58 66 58C50.616 58 37.954 69.586 36.22 84.504C25.812 86.706 18 95.938 18 107C18 119.702 28.298 130 41 130C41.354 130 41.704 129.976 42.052 129.956C42.044 130.306 42 130.648 42 131C42 153.644 60.356 172 83 172C95.874 172 107.35 166.056 114.868 156.772C119.224 161.222 125.28 164 132 164C141.3 164 149.348 158.7 153.332 150.964C155.436 151.634 157.674 152 160 152C172.15 152 182 142.15 182 130C182 123.378 179.06 117.454 174.43 113.42Z" fill="#FAFBFC"/>
<path d="M42.81 72H23C22.448 72 22 71.552 22 71C22 70.448 22.448 70 23 70H42.81C43.362 70 43.81 70.448 43.81 71C43.81 71.552 43.364 72 42.81 72Z" fill="#FAFBFC"/>
<path d="M49 72H47C46.448 72 46 71.552 46 71C46 70.448 46.448 70 47 70H49C49.552 70 50 70.448 50 71C50 71.552 49.554 72 49 72Z" fill="#FAFBFC"/>
<path d="M58.982 76H41C40.448 76 40 75.552 40 75C40 74.448 40.448 74 41 74H58.982C59.534 74 59.982 74.448 59.982 75C59.982 75.552 59.534 76 58.982 76Z" fill="#FAFBFC"/>
<path d="M37 76H35C34.448 76 34 75.552 34 75C34 74.448 34.448 74 35 74H37C37.552 74 38 74.448 38 75C38 75.552 37.554 76 37 76Z" fill="#FAFBFC"/>
<path d="M31 76H27C26.448 76 26 75.552 26 75C26 74.448 26.448 74 27 74H31C31.552 74 32 74.448 32 75C32 75.552 31.554 76 31 76Z" fill="#FAFBFC"/>
<path d="M43 80H39C38.448 80 38 79.552 38 79C38 78.448 38.448 78 39 78H43C43.552 78 44 78.448 44 79C44 79.552 43.552 80 43 80Z" fill="#FAFBFC"/>
<path d="M49 62C48.646 62 47.354 62 47 62C46.448 62 46 62.448 46 63C46 63.552 46.448 64 47 64C47.354 64 48.646 64 49 64C49.552 64 50 63.552 50 63C50 62.448 49.552 62 49 62Z" fill="#FAFBFC"/>
<path d="M49 66C48.646 66 39.354 66 39 66C38.448 66 38 66.448 38 67C38 67.552 38.448 68 39 68C39.354 68 48.646 68 49 68C49.552 68 50 67.552 50 67C50 66.448 49.552 66 49 66Z" fill="#FAFBFC"/>
<path d="M59 70C58.646 70 53.354 70 53 70C52.448 70 52 70.448 52 71C52 71.552 52.448 72 53 72C53.354 72 58.646 72 59 72C59.552 72 60 71.552 60 71C60 70.448 59.552 70 59 70Z" fill="#FAFBFC"/>
<path d="M173 126H153C152.448 126 152 125.552 152 125C152 124.448 152.448 124 153 124H173C173.552 124 174 124.448 174 125C174 125.552 173.552 126 173 126Z" fill="#FAFBFC"/>
<path d="M181 126H177C176.448 126 176 125.552 176 125C176 124.448 176.448 124 177 124H181C181.552 124 182 124.448 182 125C182 125.552 181.552 126 181 126Z" fill="#FAFBFC"/>
<path d="M191 130H171C170.448 130 170 129.552 170 129C170 128.448 170.448 128 171 128H191C191.552 128 192 128.448 192 129C192 129.552 191.554 130 191 130Z" fill="#FAFBFC"/>
<path d="M167 130H165C164.448 130 164 129.552 164 129C164 128.448 164.448 128 165 128H167C167.552 128 168 128.448 168 129C168 129.552 167.552 130 167 130Z" fill="#FAFBFC"/>
<path d="M160.94 130H157C156.448 130 156 129.552 156 129C156 128.448 156.448 128 157 128H160.94C161.492 128 161.94 128.448 161.94 129C161.94 129.552 161.492 130 160.94 130Z" fill="#FAFBFC"/>
<path d="M179 122H169C168.448 122 168 121.552 168 121C168 120.448 168.448 120 169 120H179C179.552 120 180 120.448 180 121C180 121.552 179.554 122 179 122Z" fill="#FAFBFC"/>
<path d="M173 134H169C168.448 134 168 133.552 168 133C168 132.448 168.448 132 169 132H173C173.552 132 174 132.448 174 133C174 133.552 173.552 134 173 134Z" fill="#FAFBFC"/>
<path d="M126.25 75C126.25 75 118.97 75 114 75C109.03 75 105 70.97 105 66C105 61.334 108.564 57.542 113.11 57.09C113.066 56.728 113 56.374 113 56C113 51.03 117.03 47 122 47C124.876 47 127.406 48.372 129.054 50.472C129.334 45.2 133.658 41 139 41C144.522 41 149 45.478 149 51C149 51.892 148.846 52.74 148.626 53.564C149.91 52.01 151.826 51 154 51C157.562 51 160.468 53.67 160.91 57.11C161.272 57.066 161.626 57 162 57C166.97 57 171 61.03 171 66C171 70.97 166.97 75 162 75C157.03 75 143 75 143 75H132.25V76H126.25V75Z" fill="#FAFBFC"/>
<path d="M139 40C145.066 40 150 44.934 150 51C150 51.032 150 51.062 150 51.094C151.204 50.384 152.58 50 154 50C157.662 50 160.822 52.522 161.716 56.01C161.81 56.004 161.904 56 162 56C167.514 56 172 60.486 172 66C172 71.514 167.514 76 162 76H132.25C131.698 76 131.25 75.552 131.25 75C131.25 74.448 131.698 74 132.25 74H162C166.412 74 170 70.412 170 66C170 61.588 166.412 58 162 58C161.766 58 161.54 58.034 161.314 58.064L161.032 58.102C160.99 58.108 160.95 58.11 160.908 58.11C160.416 58.11 159.984 57.74 159.918 57.236C159.536 54.25 156.992 52 154 52C152.23 52 150.554 52.802 149.398 54.2C149.202 54.436 148.916 54.564 148.626 54.564C148.47 54.564 148.314 54.528 148.17 54.452C147.752 54.238 147.542 53.76 147.662 53.306C147.892 52.436 148 51.704 148 51C148 46.038 143.962 42 139 42C134.238 42 130.306 45.744 130.052 50.526C130.03 50.942 129.752 51.3 129.354 51.426C129.254 51.458 129.152 51.474 129.05 51.474C128.75 51.474 128.458 51.336 128.266 51.09C126.724 49.126 124.442 48 122 48C117.588 48 114 51.588 114 56C114 56.234 114.034 56.46 114.064 56.686L114.102 56.968C114.134 57.236 114.058 57.504 113.89 57.714C113.722 57.924 113.476 58.058 113.21 58.084C109.098 58.494 106 61.898 106 66C106 70.412 109.588 74 114 74H126.25C126.802 74 127.25 74.448 127.25 75C127.25 75.552 126.802 76 126.25 76H114C108.486 76 104 71.514 104 66C104 61.206 107.378 57.174 112.006 56.246C112.002 56.164 112 56.082 112 56C112 50.486 116.486 46 122 46C124.352 46 126.586 46.832 128.366 48.328C129.562 43.52 133.89 40 139 40Z" fill="#232538"/>
<path d="M142 54C144.806 54 147.218 55.998 147.826 58.682C148.56 58.238 149.398 58 150.25 58C152.654 58 154.646 59.794 154.956 62.136C155.362 62.044 155.748 62 156.126 62C159.184 62 161.748 64.4 161.962 67.464C161.98 67.74 161.772 67.98 161.498 68C161.486 68 161.474 68 161.462 68C161.202 68 160.982 67.798 160.964 67.536C160.786 64.994 158.662 63 156.126 63C155.668 63 155.186 63.084 154.65 63.254C154.606 63.268 154.56 63.274 154.516 63.274C154.406 63.274 154.296 63.234 154.204 63.166C154.076 63.074 154 62.91 154 62.75C154 60.682 152.318 59 150.25 59C149.356 59 148.48 59.336 147.788 59.946C147.694 60.028 147.576 60.072 147.458 60.072C147.394 60.072 147.332 60.06 147.272 60.034C147.096 59.964 146.976 59.8 146.962 59.61C146.754 57.024 144.576 55 142 55C141.584 55 141.15 55.068 140.636 55.214C140.59 55.228 140.542 55.234 140.496 55.234C140.278 55.234 140.082 55.088 140.018 54.87C139.942 54.604 140.096 54.328 140.362 54.252C140.966 54.08 141.488 54 142 54Z" fill="#232538"/>
<path d="M78.1759 150.6C76.6459 150.6 75.3999 149.374 75.3999 147.866V58.302C75.3999 54.99 77.5959 52.146 80.6199 51.54C81.0799 51.446 81.5439 51.4 81.9999 51.4C85.6379 51.4 88.5999 54.36 88.5999 58V84C88.5999 84.774 89.2259 85.4 89.9999 85.4H130.6V101.272C130.6 101.738 130.832 102.172 131.216 102.432C131.478 102.61 131.84 102.724 132.178 102.724C132.34 102.724 132.498 102.698 132.638 102.64L143.75 98.09C146.166 97.016 148.558 96.456 150.702 96.456C153.536 96.456 155.79 97.456 156.442 99.004C156.952 100.214 156.42 101.716 154.942 103.232C143.216 114.806 132.74 126.036 128.898 131.154C128.808 131.274 128.738 131.406 128.69 131.546C128.642 131.69 128.6 131.89 128.6 132.042V148.27C128.6 149.332 128.254 150.596 126.608 150.596H78.1759V150.6Z" fill="#F6CCA4"/>
<path d="M82 52.8C84.866 52.8 87.2 55.134 87.2 58V84C87.2 85.546 88.454 86.8 90 86.8H129.2V90.212V101.272C129.2 102.21 129.748 103.14 130.53 103.658C131.002 103.98 131.552 104.144 132.108 104.144C132.466 104.144 132.828 104.076 133.168 103.936L144.356 99.354C146.556 98.376 148.75 97.858 150.7 97.858C153.268 97.858 154.808 98.734 155.152 99.55C155.422 100.19 154.968 101.202 153.976 102.218C142.184 113.856 131.656 125.148 127.776 130.314C127.584 130.568 127.422 130.904 127.328 131.208C127.244 131.478 127.2 131.76 127.2 132.044V148.272C127.2 149.198 126.952 149.198 126.608 149.198H78.176C77.418 149.198 76.8 148.6 76.8 147.864V110.618V101.992V96V88.118V58.302C76.8 55.698 78.56 53.38 80.894 52.912C81.264 52.838 81.636 52.8 82 52.8ZM82 50C81.46 50 80.906 50.054 80.346 50.166C76.574 50.922 74 54.456 74 58.302V88.118V96V101.992V110.618V147.868C74 150.15 75.87 152 78.176 152H126.608C128.712 152 130 150.552 130 148.274V132.046C130.006 132.028 130.01 132.014 130.016 131.998C133.694 127.098 144 116 155.944 104.21C160.466 99.574 157.156 95.056 150.702 95.056C148.51 95.056 145.954 95.578 143.22 96.794L132.108 101.344C132.056 101.308 132.054 101.306 132 101.272V90.212V84H90V58C90 53.582 86.418 50 82 50Z" fill="#232538"/>
<path d="M124 103.584C120.36 103.584 117.4 100.624 117.4 96.984V76.984C117.4 73.344 120.36 70.384 124 70.384C127.64 70.384 130.6 73.344 130.6 76.984V96.984C130.6 100.624 127.64 103.584 124 103.584Z" fill="#F6CCA4"/>
<path d="M124 71.784C126.868 71.784 129.2 74.118 129.2 76.984V96.984C129.2 99.852 126.868 102.184 124 102.184C121.132 102.184 118.8 99.85 118.8 96.984V76.984C118.8 74.118 121.132 71.784 124 71.784ZM124 68.984C119.582 68.984 116 72.566 116 76.984V96.984C116 101.402 119.582 104.984 124 104.984C128.418 104.984 132 101.402 132 96.984V76.984C132 72.566 128.418 68.984 124 68.984Z" fill="#232538"/>
<path d="M110 105.584C106.36 105.584 103.4 102.624 103.4 98.984V76.984C103.4 73.344 106.36 70.384 110 70.384C113.64 70.384 116.6 73.344 116.6 76.984V98.984C116.6 102.624 113.64 105.584 110 105.584Z" fill="#F6CCA4"/>
<path d="M110 71.784C112.868 71.784 115.2 74.118 115.2 76.984V98.984C115.2 101.852 112.868 104.184 110 104.184C107.132 104.184 104.8 101.85 104.8 98.984V76.984C104.8 74.118 107.132 71.784 110 71.784ZM110 68.984C105.582 68.984 102 72.566 102 76.984V98.984C102 103.402 105.582 106.984 110 106.984C114.418 106.984 118 103.402 118 98.984V76.984C118 72.566 114.418 68.984 110 68.984Z" fill="#232538"/>
<path fill-rule="evenodd" clip-rule="evenodd" d="M76.812 147.812V132H127.124V147.812C127.124 148.572 126.508 149.188 125.748 149.188H78.188C77.428 149.188 76.812 148.572 76.812 147.812Z" fill="#FAFBFC"/>
<path d="M103.986 126.984C103.892 126.984 103.794 126.97 103.698 126.942C103.168 126.784 102.868 126.226 103.028 125.696C107.714 110.084 117.46 102.166 132 102.166C132.552 102.166 133 102.614 133 103.166C133 103.718 132.552 104.166 132 104.166C118.258 104.166 109.408 111.396 104.944 126.27C104.814 126.704 104.416 126.984 103.986 126.984Z" fill="#232538"/>
<path d="M127 132H93C92.448 132 92 131.552 92 131C92 130.448 92.448 130 93 130H127C127.552 130 128 130.448 128 131C128 131.552 127.552 132 127 132Z" fill="#232538"/>
<path d="M89 132H85C84.448 132 84 131.552 84 131C84 130.448 84.448 130 85 130H89C89.552 130 90 130.448 90 131C90 131.552 89.552 132 89 132Z" fill="#232538"/>
<path d="M81 132H77C76.448 132 76 131.552 76 131C76 130.448 76.448 130 77 130H81C81.552 130 82 130.448 82 131C82 131.552 81.552 132 81 132Z" fill="#232538"/>
<path d="M83 70H75C74.448 70 74 69.552 74 69C74 68.448 74.448 68 75 68H83C83.552 68 84 68.448 84 69C84 69.552 83.552 70 83 70Z" fill="#232538"/>
<path d="M83 86H75C74.448 86 74 85.552 74 85C74 84.448 74.448 84 75 84H83C83.552 84 84 84.448 84 85C84 85.552 83.552 86 83 86Z" fill="#232538"/>
<path d="M86 144C83.794 144 82 142.206 82 140C82 137.794 83.794 136 86 136C88.206 136 90 137.794 90 140C90 142.206 88.206 144 86 144ZM86 138C84.898 138 84 138.898 84 140C84 141.102 84.898 142 86 142C87.102 142 88 141.102 88 140C88 138.898 87.102 138 86 138Z" fill="#232538"/>
<path d="M127.984 96H119.984C119.984 98.21 121.776 100 123.984 100C126.194 100 127.984 98.21 127.984 96Z" fill="#C29B67"/>
<path d="M95.9999 103.584C92.3599 103.584 89.3999 100.624 89.3999 96.984V76.984C89.3999 73.344 92.3599 70.384 95.9999 70.384C99.6399 70.384 102.6 73.344 102.6 76.984V96.984C102.6 100.624 99.6399 103.584 95.9999 103.584Z" fill="#F6CCA4"/>
<path d="M96 71.784C98.868 71.784 101.2 74.118 101.2 76.984V96.984C101.2 99.852 98.868 102.184 96 102.184C93.132 102.184 90.8 99.85 90.8 96.984V76.984C90.8 74.118 93.132 71.784 96 71.784ZM96 68.984C91.582 68.984 88 72.566 88 76.984V96.984C88 101.402 91.582 104.984 96 104.984C100.418 104.984 104 101.402 104 96.984V76.984C104 72.566 100.418 68.984 96 68.984Z" fill="#232538"/>
<path d="M99.8179 96H91.8179C91.8179 98.21 93.6099 100 95.8179 100C98.0259 100 99.8179 98.21 99.8179 96Z" fill="#C29B67"/>
<path d="M114.068 98H106.068C106.068 100.21 107.86 102 110.068 102C112.276 102 114.068 100.21 114.068 98Z" fill="#C29B67"/>
<path d="M47 119C47 119 43.866 119 40 119C36.134 119 33 115.866 33 112C33 108.438 35.67 105.532 39.11 105.09C39.054 104.732 39 104.374 39 104C39 100.134 42.134 97 46 97C48.064 97 49.9 97.91 51.18 99.33C51.948 95.714 55.154 93 59 93C63.418 93 67 96.582 67 101C67 101.382 66.94 101.748 66.888 102.116C67.744 101.428 68.816 101 70 101C72.456 101 74.49 102.774 74.91 105.11C75.268 105.054 75.626 105 76 105C79.866 105 83 108.134 83 112C83 115.866 79.866 119 76 119C72.134 119 61 119 61 119V120H47V119Z" fill="#FAFBFC"/>
<path d="M43.5 110C43.776 110 44 109.776 44 109.5C44 107.054 42.0099 105.064 39.5639 105.064C39.4959 105.082 38.0899 105.062 37.0759 105.336C36.8099 105.408 36.6519 105.682 36.7239 105.948C36.7959 106.216 37.0699 106.374 37.3359 106.3C38.2239 106.06 39.5359 106.06 39.5619 106.064C41.4579 106.064 43 107.606 43 109.5C43 109.776 43.224 110 43.5 110Z" fill="#232538"/>
<path d="M57 120C57.5523 120 58 119.552 58 119C58 118.448 57.5523 118 57 118C56.4477 118 56 118.448 56 119C56 119.552 56.4477 120 57 120Z" fill="#232538"/>
<path d="M40 120H47C47.552 120 48 119.552 48 119C48 118.448 47.552 118 47 118H40C36.692 118 34 115.308 34 112C34 109.008 36.25 106.464 39.236 106.082C39.504 106.046 39.746 105.906 39.908 105.69C40.07 105.474 40.138 105.202 40.096 104.936C40.05 104.628 40 104.32 40 104C40 100.692 42.692 98 46 98C47.7 98 49.276 98.71 50.438 100C50.688 100.278 51.08 100.396 51.438 100.296C51.802 100.198 52.08 99.906 52.158 99.538C52.84 96.33 55.718 94 59 94C62.86 94 66 97.14 66 101C66 101.286 65.958 101.56 65.918 101.836C65.86 102.242 66.044 102.712 66.402 102.916C66.76 103.12 67.194 103.152 67.514 102.896C68.244 102.31 69.102 102 70 102C71.932 102 73.584 103.382 73.926 105.288C74.022 105.822 74.518 106.18 75.064 106.098C75.372 106.05 75.68 106 76 106C79.308 106 82 108.692 82 112C82 115.308 79.308 118 76 118H61C60.448 118 60 118.448 60 119C60 119.552 60.448 120 61 120H76C80.412 120 84 116.412 84 112C84 107.588 80.412 104 76 104C75.882 104 75.768 104.004 75.652 104.012C74.824 101.64 72.578 100 70 100C69.302 100 68.622 100.122 67.978 100.36C67.648 95.694 63.748 92 59 92C55.338 92 52.068 94.254 50.694 97.548C49.334 96.552 47.69 96 46 96C41.588 96 38 99.588 38 104C38 104.096 38.002 104.19 38.008 104.284C34.522 105.18 32 108.338 32 112C32 116.412 35.588 120 40 120Z" fill="#232538"/>
<path d="M51 118C51.318 118 52.682 118 53 118C53.552 118 54 118.448 54 119C54 119.552 53.552 120 53 120C52.682 120 51.318 120 51 120C50.448 120 50 119.552 50 119C50 118.448 50.448 118 51 118Z" fill="#232538"/>
</svg>
