<svg width="200" height="200" viewBox="0 0 200 200" fill="none" xmlns="http://www.w3.org/2000/svg">
<path d="M174.43 113.42C176.7 109.11 178 104.21 178 99C178 85.758 169.682 74.486 157.998 70.044C157.998 70.03 158 70.016 158 70C158 46.804 139.196 28 116 28C96.432 28 80.038 41.402 75.374 59.514C72.422 58.544 69.276 58 66 58C50.616 58 37.954 69.586 36.22 84.504C25.812 86.706 18 95.938 18 107C18 119.702 28.298 130 41 130C41.354 130 41.704 129.976 42.052 129.956C42.044 130.306 42 130.648 42 131C42 153.644 60.356 172 83 172C95.874 172 107.35 166.056 114.868 156.772C119.224 161.222 125.28 164 132 164C141.3 164 149.348 158.7 153.332 150.964C155.436 151.634 157.674 152 160 152C172.15 152 182 142.15 182 130C182 123.378 179.06 117.454 174.43 113.42Z" fill="#FAFBFC"/>
<path d="M30.81 114H11C10.448 114 10 113.552 10 113C10 112.448 10.448 112 11 112H30.81C31.362 112 31.81 112.448 31.81 113C31.81 113.552 31.364 114 30.81 114Z" fill="#FAFBFC"/>
<path d="M37 114H35C34.448 114 34 113.552 34 113C34 112.448 34.448 112 35 112H37C37.552 112 38 112.448 38 113C38 113.552 37.554 114 37 114Z" fill="#FAFBFC"/>
<path d="M46.982 118H29C28.448 118 28 117.552 28 117C28 116.448 28.448 116 29 116H46.982C47.534 116 47.982 116.448 47.982 117C47.982 117.552 47.534 118 46.982 118Z" fill="#FAFBFC"/>
<path d="M25 118H23C22.448 118 22 117.552 22 117C22 116.448 22.448 116 23 116H25C25.552 116 26 116.448 26 117C26 117.552 25.554 118 25 118Z" fill="#FAFBFC"/>
<path d="M19 118H15C14.448 118 14 117.552 14 117C14 116.448 14.448 116 15 116H19C19.552 116 20 116.448 20 117C20 117.552 19.554 118 19 118Z" fill="#FAFBFC"/>
<path d="M31 122H27C26.448 122 26 121.552 26 121C26 120.448 26.448 120 27 120H31C31.552 120 32 120.448 32 121C32 121.552 31.552 122 31 122Z" fill="#FAFBFC"/>
<path d="M37 104C36.646 104 35.354 104 35 104C34.448 104 34 104.448 34 105C34 105.552 34.448 106 35 106C35.354 106 36.646 106 37 106C37.552 106 38 105.552 38 105C38 104.448 37.552 104 37 104Z" fill="#FAFBFC"/>
<path d="M37 108C36.646 108 27.354 108 27 108C26.448 108 26 108.448 26 109C26 109.552 26.448 110 27 110C27.354 110 36.646 110 37 110C37.552 110 38 109.552 38 109C38 108.448 37.552 108 37 108Z" fill="#FAFBFC"/>
<path d="M47 112C46.646 112 41.354 112 41 112C40.448 112 40 112.448 40 113C40 113.552 40.448 114 41 114C41.354 114 46.646 114 47 114C47.552 114 48 113.552 48 113C48 112.448 47.552 112 47 112Z" fill="#FAFBFC"/>
<path d="M169 84H149C148.448 84 148 83.552 148 83C148 82.448 148.448 82 149 82H169C169.552 82 170 82.448 170 83C170 83.552 169.552 84 169 84Z" fill="#FAFBFC"/>
<path d="M177 84H173C172.448 84 172 83.552 172 83C172 82.448 172.448 82 173 82H177C177.552 82 178 82.448 178 83C178 83.552 177.552 84 177 84Z" fill="#FAFBFC"/>
<path d="M187 88H167C166.448 88 166 87.552 166 87C166 86.448 166.448 86 167 86H187C187.552 86 188 86.448 188 87C188 87.552 187.554 88 187 88Z" fill="#FAFBFC"/>
<path d="M163 88H161C160.448 88 160 87.552 160 87C160 86.448 160.448 86 161 86H163C163.552 86 164 86.448 164 87C164 87.552 163.552 88 163 88Z" fill="#FAFBFC"/>
<path d="M156.94 88H153C152.448 88 152 87.552 152 87C152 86.448 152.448 86 153 86H156.94C157.492 86 157.94 86.448 157.94 87C157.94 87.552 157.492 88 156.94 88Z" fill="#FAFBFC"/>
<path d="M175 80H165C164.448 80 164 79.552 164 79C164 78.448 164.448 78 165 78H175C175.552 78 176 78.448 176 79C176 79.552 175.554 80 175 80Z" fill="#FAFBFC"/>
<path d="M169 92H165C164.448 92 164 91.552 164 91C164 90.448 164.448 90 165 90H169C169.552 90 170 90.448 170 91C170 91.552 169.552 92 169 92Z" fill="#FAFBFC"/>
<path d="M95.75 87C95.75 87 103.03 87 108 87C112.97 87 117 82.97 117 78C117 73.334 113.436 69.542 108.89 69.09C108.934 68.728 109 68.374 109 68C109 63.03 104.97 59 100 59C97.124 59 94.594 60.372 92.946 62.472C92.666 57.2 88.342 53 83 53C77.478 53 73 57.478 73 63C73 63.892 73.154 64.74 73.374 65.564C72.09 64.01 70.172 63 68 63C64.438 63 61.532 65.67 61.09 69.11C60.728 69.066 60.374 69 60 69C55.03 69 51 73.03 51 78C51 82.97 55.03 87 60 87C64.97 87 79 87 79 87H89.75V88H95.75V87Z" fill="#FAFBFC"/>
<path d="M83 52C76.934 52 72 56.934 72 63C72 63.032 72 63.062 72 63.094C70.796 62.384 69.42 62 68 62C64.338 62 61.178 64.522 60.284 68.01C60.19 68.004 60.096 68 60 68C54.486 68 50 72.486 50 78C50 83.514 54.486 88 60 88H89.75C90.302 88 90.75 87.552 90.75 87C90.75 86.448 90.302 86 89.75 86H60C55.588 86 52 82.412 52 78C52 73.588 55.588 70 60 70C60.234 70 60.46 70.034 60.686 70.064L60.968 70.102C61.01 70.108 61.05 70.11 61.092 70.11C61.584 70.11 62.016 69.74 62.082 69.236C62.464 66.25 65.008 64 68 64C69.77 64 71.446 64.802 72.602 66.2C72.798 66.436 73.084 66.564 73.374 66.564C73.53 66.564 73.686 66.528 73.83 66.452C74.248 66.238 74.458 65.76 74.338 65.306C74.108 64.436 74 63.704 74 63C74 58.038 78.038 54 83 54C87.762 54 91.694 57.744 91.948 62.526C91.97 62.942 92.248 63.3 92.646 63.426C92.746 63.458 92.848 63.474 92.95 63.474C93.25 63.474 93.542 63.336 93.734 63.09C95.276 61.126 97.558 60 100 60C104.412 60 108 63.588 108 68C108 68.234 107.966 68.46 107.936 68.686L107.898 68.968C107.866 69.236 107.942 69.504 108.11 69.714C108.278 69.924 108.524 70.058 108.79 70.084C112.902 70.494 116 73.898 116 78C116 82.412 112.412 86 108 86H95.75C95.198 86 94.75 86.448 94.75 87C94.75 87.552 95.198 88 95.75 88H108C113.514 88 118 83.514 118 78C118 73.206 114.622 69.174 109.994 68.246C109.998 68.164 110 68.082 110 68C110 62.486 105.514 58 100 58C97.648 58 95.414 58.832 93.634 60.328C92.438 55.52 88.11 52 83 52Z" fill="#232538"/>
<path d="M80.0002 66C77.1942 66 74.7822 67.998 74.1742 70.682C73.4402 70.238 72.6022 70 71.7502 70C69.3462 70 67.3542 71.794 67.0442 74.136C66.6382 74.044 66.2522 74 65.8742 74C62.8162 74 60.2522 76.4 60.0382 79.464C60.0202 79.74 60.2282 79.98 60.5022 80C60.5142 80 60.5262 80 60.5382 80C60.7982 80 61.0182 79.798 61.0362 79.536C61.2142 76.994 63.3382 75 65.8742 75C66.3322 75 66.8142 75.084 67.3502 75.254C67.3942 75.268 67.4402 75.274 67.4842 75.274C67.5942 75.274 67.7042 75.234 67.7962 75.166C67.9242 75.074 68.0002 74.91 68.0002 74.75C68.0002 72.682 69.6822 71 71.7502 71C72.6442 71 73.5202 71.336 74.2122 71.946C74.3062 72.028 74.4242 72.072 74.5422 72.072C74.6062 72.072 74.6682 72.06 74.7282 72.034C74.9042 71.964 75.0242 71.8 75.0382 71.61C75.2462 69.024 77.4242 67 80.0002 67C80.4162 67 80.8502 67.068 81.3642 67.214C81.4102 67.228 81.4582 67.234 81.5042 67.234C81.7222 67.234 81.9182 67.088 81.9822 66.87C82.0582 66.604 81.9042 66.328 81.6382 66.252C81.0342 66.08 80.5122 66 80.0002 66Z" fill="#232538"/>
<path d="M107.766 69C105.114 69 102.75 70.794 102.018 73.364C101.942 73.63 102.096 73.906 102.362 73.982C102.41 73.994 102.456 74 102.5 74C102.718 74 102.918 73.856 102.98 73.636C103.59 71.496 105.558 70 107.766 70C108 70 108.226 70.028 108.45 70.058C108.474 70.062 108.496 70.064 108.52 70.064C108.762 70.064 108.978 69.88 109.012 69.63C109.05 69.356 108.858 69.104 108.584 69.068C108.316 69.032 108.044 69 107.766 69Z" fill="#232538"/>
<path d="M104.156 94.488L114.336 81.722C117.478 93.132 123.278 116.54 122.208 123.798C118.352 125.98 114.666 128.102 112.634 129.276L104.156 94.488Z" fill="#9F8066"/>
<path d="M113.712 84.75C117.3 98.11 121.428 116.366 120.9 122.928C118.146 124.49 115.506 126.004 113.552 127.13L105.68 94.824L113.712 84.75ZM114.944 78.712L102.632 94.152L111.714 131.426C111.714 131.426 117.47 128.082 123.46 124.696C125.54 115.774 114.944 78.712 114.944 78.712Z" fill="#232538"/>
<path d="M88.4341 152.6C80.3441 152.6 72.5661 149.164 67.0981 143.174C56.8621 131.964 57.0201 114.36 67.4521 103.93C77.8281 93.554 103.012 82.342 103.266 82.228L103.506 82.122L126.948 58.68L134.822 66.554C135.096 66.828 135.488 67.618 135.58 68.044L112.176 91.45L117.002 119.878C118.226 128.874 115.254 137.736 108.84 144.148C103.39 149.6 96.1441 152.602 88.4361 152.602C88.4361 152.6 88.4361 152.6 88.4341 152.6Z" fill="#F1BC19"/>
<path d="M126.948 60.66L133.79 67.5C133.832 67.55 133.882 67.626 133.932 67.714L111.696 89.948L110.674 90.97L110.916 92.396L115.608 120.02C116.778 128.624 113.952 137.058 107.852 143.158C102.666 148.344 95.7705 151.2 88.4365 151.2C80.6265 151.2 73.4145 148.014 68.1325 142.228C58.3945 131.564 58.5345 114.826 68.4425 104.918C78.6265 94.734 103.582 83.62 103.832 83.508L104.31 83.296L104.68 82.926L126.948 60.66ZM126.948 56.7L102.698 80.95C102.698 80.95 77.1405 92.26 66.4605 102.94C55.3905 114.01 55.5065 132.556 66.0625 144.118C72.0805 150.706 80.2585 154 88.4365 154C96.1805 154 103.924 151.046 109.832 145.138C116.786 138.184 119.614 128.69 118.384 119.644L113.678 91.928L136.804 68.8C137.424 68.18 136.43 66.182 135.812 65.562L126.948 56.7Z" fill="#232538"/>
<path d="M96.0876 120.6C94.8816 120.6 93.7496 120.132 92.8976 119.278C91.1396 117.52 91.1396 114.656 92.8976 112.9C93.7496 112.048 94.8816 111.578 96.0876 111.578C97.2936 111.578 98.4256 112.048 99.2776 112.9C101.036 114.658 101.036 117.522 99.2776 119.278C98.4256 120.13 97.2916 120.6 96.0876 120.6Z" fill="#9F8066"/>
<path d="M96.0878 112.976C96.9198 112.976 97.6998 113.3 98.2878 113.888C98.8758 114.476 99.1998 115.258 99.1998 116.088C99.1998 116.918 98.8758 117.7 98.2878 118.288C97.6998 118.876 96.9178 119.2 96.0878 119.2C95.2578 119.2 94.4758 118.876 93.8878 118.288C93.2998 117.7 92.9758 116.918 92.9758 116.088C92.9758 115.258 93.2998 114.476 93.8878 113.888C94.4758 113.3 95.2578 112.976 96.0878 112.976ZM96.0878 110.176C94.5758 110.176 93.0618 110.754 91.9078 111.908C89.5998 114.216 89.5998 117.96 91.9078 120.268C93.0618 121.422 94.5758 122 96.0878 122C97.5998 122 99.1138 121.422 100.268 120.268C102.576 117.96 102.576 114.216 100.268 111.908C99.1138 110.754 97.6018 110.176 96.0878 110.176Z" fill="#232538"/>
<path d="M127.086 58.894L137.522 48.456L137.782 48.246C138.334 47.774 139.044 47.524 139.834 47.524C140.92 47.524 142.026 48.006 142.868 48.848C144.45 50.428 144.662 52.792 143.342 54.112C142.636 54.818 141.766 54.966 141.162 54.966C140.642 54.966 140.094 54.852 139.58 54.638L137.212 53.652L137.662 56.178C138.656 61.752 137.41 65.114 135.752 67.562L127.086 58.894Z" fill="#9F8066"/>
<path d="M139.832 48.924C140.55 48.924 141.296 49.258 141.878 49.838C142.42 50.38 142.756 51.08 142.8 51.76C142.826 52.15 142.768 52.704 142.35 53.122C141.982 53.49 141.502 53.566 141.162 53.566C140.824 53.566 140.464 53.49 140.12 53.346L136.236 51.724L138.408 49.552L138.69 49.31C139.064 48.99 139.518 48.924 139.832 48.924ZM135.568 52.394L136.286 56.422C137.01 60.486 136.486 63.208 135.464 65.292L129.066 58.896L135.568 52.394ZM139.832 46.124C138.746 46.124 137.698 46.474 136.87 47.182L136.848 47.15L125.104 58.894L135.906 69.696C138.446 66.554 140.226 62.592 139.04 55.93C139.732 56.22 140.456 56.366 141.16 56.366C142.344 56.366 143.478 55.952 144.328 55.102C146.198 53.232 145.986 49.99 143.856 47.86C142.708 46.708 141.236 46.124 139.832 46.124Z" fill="#232538"/>
<path d="M77.9181 122.802C77.6621 122.802 77.4041 122.704 77.2101 122.508L69.7161 114.974C69.3261 114.584 69.3281 113.948 69.7201 113.56C70.1101 113.17 70.7441 113.17 71.1341 113.564L78.6281 121.098C79.0181 121.488 79.0161 122.124 78.6241 122.512C78.4281 122.706 78.1721 122.802 77.9181 122.802Z" fill="#232538"/>
<path d="M105.552 140.432C105.296 140.432 105.04 140.334 104.844 140.14C99.7178 135.014 93.8538 134.53 87.6438 134.016C81.3498 133.496 74.8398 132.96 69.1958 127.314C68.8058 126.924 68.8058 126.29 69.1958 125.9C69.5858 125.51 70.2198 125.51 70.6098 125.9C75.7358 131.026 81.5998 131.51 87.8098 132.024C94.1038 132.544 100.614 133.08 106.258 138.726C106.648 139.116 106.648 139.75 106.258 140.14C106.064 140.334 105.808 140.432 105.552 140.432Z" fill="#232538"/>
<path d="M89.2696 103.46C89.1416 103.46 89.0136 103.412 88.9156 103.314C88.7196 103.118 88.7196 102.802 88.9156 102.606L118.87 72.652C119.066 72.456 119.382 72.456 119.578 72.652C119.774 72.848 119.774 73.164 119.578 73.36L89.6236 103.314C89.5256 103.412 89.3976 103.46 89.2696 103.46Z" fill="#232538"/>
<path d="M76.4317 116.298C76.3037 116.298 76.1757 116.25 76.0777 116.152C75.8817 115.956 75.8817 115.64 76.0777 115.444L86.0617 105.46C86.2577 105.264 86.5737 105.264 86.7697 105.46C86.9657 105.656 86.9657 105.972 86.7697 106.168L76.7857 116.152C76.6877 116.25 76.5597 116.298 76.4317 116.298Z" fill="#232538"/>
<path d="M122.078 70.654C121.95 70.654 121.822 70.606 121.724 70.508C121.528 70.312 121.528 69.996 121.724 69.8L127.43 64.094C127.626 63.898 127.942 63.898 128.138 64.094C128.334 64.29 128.334 64.606 128.138 64.802L122.432 70.508C122.334 70.606 122.206 70.654 122.078 70.654Z" fill="#232538"/>
<path d="M73.5801 113.448C73.4521 113.448 73.3241 113.4 73.2261 113.302C73.0301 113.106 73.0301 112.79 73.2261 112.594L87.4901 98.328C87.6861 98.132 88.0021 98.132 88.1981 98.328C88.3941 98.524 88.3941 98.84 88.1981 99.036L73.9341 113.302C73.8341 113.398 73.7081 113.448 73.5801 113.448Z" fill="#232538"/>
<path d="M79.2862 119.152C79.1582 119.152 79.0302 119.104 78.9322 119.006C78.7362 118.81 78.7362 118.494 78.9322 118.298L84.6382 112.592C84.8342 112.396 85.1502 112.396 85.3462 112.592C85.5422 112.788 85.5422 113.104 85.3462 113.3L79.6402 119.006C79.5422 119.104 79.4142 119.152 79.2862 119.152Z" fill="#232538"/>
<path d="M65.0225 133.416C64.8945 133.416 64.7665 133.368 64.6685 133.27C64.4725 133.074 64.4725 132.758 64.6685 132.562L74.6525 122.578C74.8485 122.382 75.1645 122.382 75.3605 122.578C75.5565 122.774 75.5565 123.09 75.3605 123.286L65.3765 133.27C65.2785 133.368 65.1505 133.416 65.0225 133.416Z" fill="#232538"/>
<path d="M66.4483 137.696C66.3203 137.696 66.1923 137.648 66.0943 137.55C65.8983 137.354 65.8983 137.038 66.0943 136.842L73.2263 129.71C73.4223 129.514 73.7383 129.514 73.9343 129.71C74.1303 129.906 74.1303 130.222 73.9343 130.418L66.8003 137.548C66.7043 137.646 66.5763 137.696 66.4483 137.696Z" fill="#232538"/>
<path d="M69.2998 140.548C69.1718 140.548 69.0438 140.5 68.9458 140.402C68.7498 140.206 68.7498 139.89 68.9458 139.694L77.5038 131.136C77.6998 130.94 78.0158 130.94 78.2118 131.136C78.4078 131.332 78.4078 131.648 78.2118 131.844L69.6538 140.402C69.5558 140.5 69.4278 140.548 69.2998 140.548Z" fill="#232538"/>
<path d="M73.5801 141.974C73.4521 141.974 73.3241 141.926 73.2261 141.828C73.0301 141.632 73.0301 141.316 73.2261 141.12L81.7841 132.562C81.9801 132.366 82.2961 132.366 82.4921 132.562C82.6881 132.758 82.6881 133.074 82.4921 133.27L73.9341 141.828C73.8341 141.926 73.7081 141.974 73.5801 141.974Z" fill="#232538"/>
<path d="M76.4317 127.71C76.3037 127.71 76.1757 127.662 76.0777 127.564C75.8817 127.368 75.8817 127.052 76.0777 126.856L86.0617 116.872C86.2577 116.676 86.5737 116.676 86.7697 116.872C86.9657 117.068 86.9657 117.384 86.7697 117.58L76.7857 127.564C76.6877 127.662 76.5597 127.71 76.4317 127.71Z" fill="#232538"/>
<path d="M96.4024 107.74C96.2744 107.74 96.1464 107.692 96.0484 107.594C95.8524 107.398 95.8524 107.082 96.0484 106.886L110.312 92.622C110.508 92.426 110.824 92.426 111.02 92.622C111.216 92.818 111.216 93.134 111.02 93.33L96.7564 107.594C96.6584 107.692 96.5304 107.74 96.4024 107.74Z" fill="#232538"/>
<path d="M80.71 129.136C80.582 129.136 80.454 129.088 80.356 128.99C80.16 128.794 80.16 128.478 80.356 128.282L87.488 121.15C87.684 120.954 88 120.954 88.196 121.15C88.392 121.346 88.392 121.662 88.196 121.858L81.064 128.99C80.966 129.088 80.838 129.136 80.71 129.136Z" fill="#232538"/>
<path d="M86.416 129.136C86.288 129.136 86.16 129.088 86.062 128.99C85.866 128.794 85.866 128.478 86.062 128.282L90.342 124.002C90.538 123.806 90.854 123.806 91.05 124.002C91.246 124.198 91.246 124.514 91.05 124.71L86.77 128.99C86.672 129.088 86.544 129.136 86.416 129.136Z" fill="#232538"/>
<path d="M103.534 112.02C103.406 112.02 103.278 111.972 103.18 111.874C102.984 111.678 102.984 111.362 103.18 111.166L113.164 101.182C113.36 100.986 113.676 100.986 113.872 101.182C114.068 101.378 114.068 101.694 113.872 101.89L103.888 111.874C103.79 111.97 103.662 112.02 103.534 112.02Z" fill="#232538"/>
<path d="M104.96 116.298C104.832 116.298 104.704 116.25 104.606 116.152C104.41 115.956 104.41 115.64 104.606 115.444L114.592 105.46C114.788 105.264 115.104 105.264 115.3 105.46C115.496 105.656 115.496 105.972 115.3 106.168L105.314 116.152C105.216 116.25 105.088 116.298 104.96 116.298Z" fill="#232538"/>
<path d="M96.4024 130.562C96.2744 130.562 96.1464 130.514 96.0484 130.416C95.8524 130.22 95.8524 129.904 96.0484 129.708L114.592 111.166C114.788 110.97 115.104 110.97 115.3 111.166C115.496 111.362 115.496 111.678 115.3 111.874L96.7564 130.416C96.6584 130.514 96.5304 130.562 96.4024 130.562Z" fill="#232538"/>
<path d="M100.68 131.99C100.552 131.99 100.424 131.942 100.326 131.844C100.13 131.648 100.13 131.332 100.326 131.136L107.458 124.004C107.654 123.808 107.97 123.808 108.166 124.004C108.362 124.2 108.362 124.516 108.166 124.712L101.034 131.844C100.936 131.942 100.808 131.99 100.68 131.99Z" fill="#232538"/>
<path d="M104.96 133.416C104.832 133.416 104.704 133.368 104.606 133.27C104.41 133.074 104.41 132.758 104.606 132.562L116.018 121.15C116.214 120.954 116.53 120.954 116.726 121.15C116.922 121.346 116.922 121.662 116.726 121.858L105.314 133.27C105.216 133.368 105.088 133.416 104.96 133.416Z" fill="#232538"/>
<path d="M92.1241 129.136C91.9961 129.136 91.868 129.088 91.77 128.99C91.574 128.794 91.574 128.478 91.77 128.282L94.6221 125.428C94.8181 125.232 95.1341 125.232 95.3301 125.428C95.5261 125.624 95.5261 125.94 95.3301 126.136L92.478 128.99C92.378 129.088 92.2501 129.136 92.1241 129.136Z" fill="#232538"/>
<path d="M76.4317 144.826C76.3037 144.826 76.1757 144.778 76.0777 144.68C75.8817 144.484 75.8817 144.168 76.0777 143.972L87.4897 132.562C87.6857 132.366 88.0017 132.366 88.1977 132.562C88.3937 132.758 88.3937 133.074 88.1977 133.27L76.7857 144.68C76.6877 144.778 76.5597 144.826 76.4317 144.826Z" fill="#232538"/>
<path d="M80.71 146.254C80.582 146.254 80.454 146.206 80.356 146.108C80.16 145.912 80.16 145.596 80.356 145.4L91.768 133.988C91.964 133.792 92.28 133.792 92.476 133.988C92.672 134.184 92.672 134.5 92.476 134.696L81.064 146.108C80.966 146.206 80.838 146.254 80.71 146.254Z" fill="#232538"/>
<path d="M86.416 146.254C86.288 146.254 86.16 146.206 86.062 146.108C85.866 145.912 85.866 145.596 86.062 145.4L97.474 133.988C97.67 133.792 97.986 133.792 98.182 133.988C98.378 134.184 98.378 134.5 98.182 134.696L86.77 146.108C86.672 146.206 86.544 146.254 86.416 146.254Z" fill="#232538"/>
<path d="M90.6963 147.68C90.5683 147.68 90.4403 147.632 90.3423 147.534C90.1463 147.338 90.1463 147.022 90.3423 146.826L101.754 135.416C101.95 135.22 102.266 135.22 102.462 135.416C102.658 135.612 102.658 135.928 102.462 136.124L91.0503 147.534C90.9523 147.63 90.8243 147.68 90.6963 147.68Z" fill="#232538"/>
<path d="M100.68 109.168C100.552 109.168 100.424 109.12 100.326 109.022C100.13 108.826 100.13 108.51 100.326 108.314L111.738 96.902C111.934 96.706 112.25 96.706 112.446 96.902C112.642 97.098 112.642 97.414 112.446 97.61L101.034 109.022C100.936 109.12 100.808 109.168 100.68 109.168Z" fill="#232538"/>
<path d="M65.0225 127.71C64.8945 127.71 64.7665 127.662 64.6685 127.564C64.4725 127.368 64.4725 127.052 64.6685 126.856L71.8005 119.724C71.9965 119.528 72.3125 119.528 72.5085 119.724C72.7045 119.92 72.7045 120.236 72.5085 120.432L65.3765 127.564C65.2785 127.662 65.1505 127.71 65.0225 127.71Z" fill="#232538"/>
<path d="M65.0225 122.004C64.8945 122.004 64.7665 121.956 64.6685 121.858C64.4725 121.662 64.4725 121.346 64.6685 121.15L68.9465 116.872C69.1425 116.676 69.4585 116.676 69.6545 116.872C69.8505 117.068 69.8505 117.384 69.6545 117.58L65.3765 121.858C65.2785 121.956 65.1505 122.004 65.0225 122.004Z" fill="#232538"/>
<path d="M86.416 112.02C86.288 112.02 86.16 111.972 86.062 111.874C85.866 111.678 85.866 111.362 86.062 111.166L104.604 92.624C104.8 92.428 105.116 92.428 105.312 92.624C105.508 92.82 105.508 93.136 105.312 93.332L86.77 111.874C86.672 111.97 86.544 112.02 86.416 112.02Z" fill="#232538"/>
<path d="M107.812 90.626C107.684 90.626 107.556 90.578 107.458 90.48C107.262 90.284 107.262 89.968 107.458 89.772L130.28 66.95C130.476 66.754 130.792 66.754 130.988 66.95C131.184 67.146 131.184 67.462 130.988 67.658L108.166 90.478C108.068 90.576 107.94 90.626 107.812 90.626Z" fill="#232538"/>
<path d="M90.6963 96.33C90.5683 96.33 90.4403 96.282 90.3423 96.184C90.1463 95.988 90.1463 95.672 90.3423 95.476L103.18 82.638C103.376 82.442 103.692 82.442 103.888 82.638C104.084 82.834 104.084 83.15 103.888 83.346L91.0503 96.184C90.9523 96.282 90.8243 96.33 90.6963 96.33Z" fill="#232538"/>
<path d="M109.24 123.432C109.112 123.432 108.984 123.384 108.886 123.286C108.69 123.09 108.69 122.774 108.886 122.578L113.166 118.298C113.362 118.102 113.678 118.102 113.874 118.298C114.07 118.494 114.07 118.81 113.874 119.006L109.594 123.286C109.496 123.382 109.368 123.432 109.24 123.432Z" fill="#232538"/>
<path d="M141 137C141 137 144.134 137 148 137C151.866 137 155 133.866 155 130C155 126.438 152.33 123.532 148.89 123.09C148.946 122.732 149 122.374 149 122C149 118.134 145.866 115 142 115C139.936 115 138.1 115.91 136.82 117.33C136.052 113.714 132.846 111 129 111C124.582 111 121 114.582 121 119C121 119.382 121.06 119.748 121.112 120.116C120.256 119.428 119.184 119 118 119C115.544 119 113.51 120.774 113.09 123.11C112.732 123.054 112.374 123 112 123C108.134 123 105 126.134 105 130C105 133.866 108.134 137 112 137C115.866 137 127 137 127 137V138H141V137Z" fill="#FAFBFC"/>
<path d="M144.5 128C144.224 128 144 127.776 144 127.5C144 125.054 145.99 123.064 148.436 123.064C148.504 123.082 149.91 123.062 150.924 123.336C151.19 123.408 151.348 123.682 151.276 123.948C151.204 124.216 150.93 124.374 150.664 124.3C149.776 124.06 148.464 124.06 148.438 124.064C146.542 124.064 145 125.606 145 127.5C145 127.776 144.776 128 144.5 128Z" fill="#232538"/>
<path d="M131 138C131.552 138 132 137.552 132 137C132 136.448 131.552 136 131 136C130.448 136 130 136.448 130 137C130 137.552 130.448 138 131 138Z" fill="#232538"/>
<path d="M148 138H141C140.448 138 140 137.552 140 137C140 136.448 140.448 136 141 136H148C151.308 136 154 133.308 154 130C154 127.008 151.75 124.464 148.764 124.082C148.496 124.046 148.254 123.906 148.092 123.69C147.93 123.474 147.862 123.202 147.904 122.936C147.95 122.628 148 122.32 148 122C148 118.692 145.308 116 142 116C140.3 116 138.724 116.71 137.562 118C137.312 118.278 136.92 118.396 136.562 118.296C136.198 118.198 135.92 117.906 135.842 117.538C135.16 114.33 132.282 112 129 112C125.14 112 122 115.14 122 119C122 119.286 122.042 119.56 122.082 119.836C122.14 120.242 121.956 120.712 121.598 120.916C121.24 121.12 120.806 121.152 120.486 120.896C119.756 120.31 118.898 120 118 120C116.068 120 114.416 121.382 114.074 123.288C113.978 123.822 113.482 124.18 112.936 124.098C112.628 124.05 112.32 124 112 124C108.692 124 106 126.692 106 130C106 133.308 108.692 136 112 136H127C127.552 136 128 136.448 128 137C128 137.552 127.552 138 127 138H112C107.588 138 104 134.412 104 130C104 125.588 107.588 122 112 122C112.118 122 112.232 122.004 112.348 122.012C113.176 119.64 115.422 118 118 118C118.698 118 119.378 118.122 120.022 118.36C120.352 113.694 124.252 110 129 110C132.662 110 135.932 112.254 137.306 115.548C138.666 114.552 140.31 114 142 114C146.412 114 150 117.588 150 122C150 122.096 149.998 122.19 149.992 122.284C153.478 123.18 156 126.338 156 130C156 134.412 152.412 138 148 138Z" fill="#232538"/>
<path d="M137 136C136.682 136 135.318 136 135 136C134.448 136 134 136.448 134 137C134 137.552 134.448 138 135 138C135.318 138 136.682 138 137 138C137.552 138 138 137.552 138 137C138 136.448 137.552 136 137 136Z" fill="#232538"/>
</svg>
