<svg width="200" height="200" viewBox="0 0 200 200" fill="none" xmlns="http://www.w3.org/2000/svg">
<path d="M174.674 112.658C175.274 111.426 175.806 110.13 176.266 108.772C181.532 93.232 173.568 74.616 156.8 70.122C154.988 47.354 138.988 31.736 120.918 29.07C100.236 26.02 81.2898 39.158 74.9858 60.04C67.3878 57.348 59.9838 57.676 53.0058 61.754C49.8398 63.218 46.9438 65.378 44.3458 68.22C40.5318 72.392 38.0518 77.658 37.0418 83.21C35.5458 83.446 34.0758 83.682 32.6898 84.178C24.6098 87.076 19.5118 93.04 18.1138 102.024C17.2438 107.62 18.9998 113.2 19.9798 115.456C23.8498 124.366 32.8238 129.416 41.9418 128.08C42.3958 128.014 43.0558 128.218 43.4458 128.546C43.9278 142.786 50.8418 155.38 61.2138 162.574C77.8558 174.118 99.2678 170.562 112.776 154.732C118.564 160.652 125.452 163.528 133.544 162.484C141.59 161.446 147.838 157.006 152.396 149.786C154.502 150.352 156.498 151.168 158.562 151.394C166.646 152.278 173.156 149.026 178.026 141.794C178.192 141.546 178.432 141.356 178.638 141.138C179.334 139.542 180.03 137.946 180.726 136.35C181.036 133.928 181.584 131.504 181.612 129.086C181.69 122.572 179.028 116.638 174.674 112.658Z" fill="#FAFBFC"/>
<path d="M78.8797 103.402C78.8797 103.402 102.262 103.402 102.404 103.402C107.804 103.402 112.18 99.024 112.18 93.624C112.18 88.914 108.848 84.982 104.412 84.056C104.464 83.644 104.498 83.226 104.498 82.8C104.498 77.208 99.9637 72.674 94.3717 72.674C91.0697 72.674 88.1457 74.262 86.2977 76.708C85.8257 70.482 80.2637 65.68 73.7577 66.476C68.9997 67.058 65.0657 70.736 64.1897 75.448C63.9097 76.96 63.9377 78.426 64.2177 79.802C62.9417 78.428 61.1257 77.564 59.1037 77.564C55.4037 77.564 52.3817 80.446 52.1437 84.086C50.4637 83.714 48.6357 83.738 46.7097 84.462C43.0297 85.844 40.4097 89.308 40.2557 93.236C40.0377 98.814 44.4957 103.406 50.0257 103.406C50.4457 103.406 51.9217 103.406 52.2617 103.406H72.5637" fill="#FAFBFC"/>
<path d="M102.406 104.402H78.8795C78.3275 104.402 77.8795 103.954 77.8795 103.402C77.8795 102.85 78.3275 102.402 78.8795 102.402H102.406C107.244 102.402 111.182 98.464 111.182 93.624C111.182 89.492 108.25 85.878 104.21 85.034C103.7 84.928 103.356 84.446 103.422 83.928C103.468 83.556 103.5 83.182 103.5 82.8C103.5 77.768 99.4055 73.674 94.3755 73.674C91.4975 73.674 88.8435 75 87.0995 77.31C86.8475 77.642 86.4115 77.782 86.0195 77.668C85.6195 77.55 85.3355 77.198 85.3035 76.784C85.0955 74.03 83.7475 71.442 81.6035 69.686C79.4395 67.912 76.6975 67.124 73.8835 67.468C69.5515 67.998 65.9715 71.354 65.1755 75.63C64.9295 76.97 64.9375 78.306 65.2035 79.602C65.2935 80.042 65.0795 80.486 64.6795 80.692C64.2855 80.896 63.7955 80.812 63.4895 80.484C62.3415 79.246 60.7835 78.566 59.1095 78.566C55.9715 78.566 53.3515 81.02 53.1475 84.154C53.1275 84.446 52.9835 84.714 52.7495 84.888C52.5175 85.062 52.2155 85.124 51.9335 85.064C50.2555 84.692 48.6595 84.802 47.0675 85.398C43.7295 86.65 41.3955 89.816 41.2635 93.274C41.1675 95.688 42.0355 97.974 43.7055 99.708C45.3775 101.446 47.6235 102.404 50.0335 102.404H72.5715C73.1235 102.404 73.5715 102.852 73.5715 103.404C73.5715 103.956 73.1235 104.404 72.5715 104.404H50.0295C47.0715 104.404 44.3115 103.23 42.2595 101.096C40.2095 98.964 39.1435 96.158 39.2595 93.196C39.4255 88.944 42.2795 85.058 46.3615 83.526C47.9635 82.926 49.6155 82.728 51.2975 82.928C52.0515 79.284 55.2915 76.564 59.1075 76.564C60.4775 76.564 61.8155 76.922 62.9935 77.582C62.9935 76.814 63.0635 76.04 63.2075 75.266C64.1595 70.142 68.4475 66.118 73.6375 65.484C77.0095 65.068 80.2775 66.016 82.8675 68.14C84.8755 69.786 86.2995 72.042 86.9435 74.526C88.9675 72.694 91.5815 71.676 94.3715 71.676C100.506 71.676 105.496 76.668 105.496 82.802C105.496 82.968 105.492 83.134 105.482 83.3C109.992 84.646 113.178 88.854 113.178 93.628C113.18 99.566 108.346 104.402 102.406 104.402Z" fill="#232538"/>
<path d="M73.2137 81.864C69.5977 81.626 66.4837 84.124 66.2617 87.442C66.2337 87.854 66.2517 88.26 66.3117 88.654C65.6137 87.866 64.5817 87.332 63.3957 87.254C61.2257 87.112 59.3517 88.544 59.0797 90.494C58.6857 90.386 58.2737 90.314 57.8477 90.286C54.6837 90.078 51.9597 92.264 51.7637 95.168" fill="#FAFBFC"/>
<path d="M51.764 95.666C51.752 95.666 51.742 95.666 51.73 95.666C51.454 95.648 51.246 95.41 51.266 95.134C51.478 91.96 54.446 89.556 57.882 89.788C58.152 89.806 58.424 89.84 58.698 89.894C59.246 87.958 61.206 86.616 63.43 86.758C64.28 86.814 65.076 87.08 65.756 87.524C65.758 87.486 65.76 87.448 65.764 87.41C66.002 83.824 69.368 81.108 73.246 81.368C73.522 81.386 73.73 81.624 73.71 81.9C73.694 82.174 73.508 82.392 73.178 82.366C69.882 82.148 66.962 84.44 66.758 87.48C66.732 87.844 66.748 88.216 66.804 88.582C66.838 88.802 66.724 89.016 66.522 89.11C66.322 89.204 66.082 89.156 65.936 88.99C65.298 88.272 64.358 87.822 63.36 87.756C61.488 87.634 59.808 88.866 59.572 90.566C59.55 90.708 59.47 90.834 59.352 90.914C59.232 90.994 59.082 91.016 58.946 90.98C58.568 90.876 58.184 90.812 57.814 90.788C54.902 90.572 52.438 92.578 52.26 95.204C52.246 95.464 52.026 95.666 51.764 95.666Z" fill="#232538"/>
<path d="M106.364 85.2C102.966 83.598 99.0356 84.732 97.5856 87.734C97.4056 88.106 97.2716 88.492 97.1836 88.882" fill="#FAFBFC"/>
<path d="M97.1844 89.382C97.1484 89.382 97.1124 89.378 97.0744 89.37C96.8044 89.308 96.6344 89.04 96.6964 88.772C96.7944 88.342 96.9404 87.918 97.1344 87.518C98.7024 84.276 102.94 83.034 106.578 84.75C106.828 84.868 106.936 85.166 106.818 85.416C106.698 85.666 106.396 85.772 106.152 85.656C103.006 84.174 99.3664 85.202 98.0344 87.954C97.8744 88.288 97.7524 88.636 97.6724 88.994C97.6204 89.224 97.4144 89.382 97.1844 89.382Z" fill="#232538"/>
<path d="M37.1001 116.046H17.0381C16.4861 116.046 16.0381 115.598 16.0381 115.046C16.0381 114.494 16.4861 114.046 17.0381 114.046H37.1001C37.6521 114.046 38.1001 114.494 38.1001 115.046C38.1001 115.598 37.6541 116.046 37.1001 116.046ZM42.8621 116.046H39.9701C39.4181 116.046 38.9701 115.598 38.9701 115.046C38.9701 114.494 39.4181 114.046 39.9701 114.046H42.8621C43.4141 114.046 43.8621 114.494 43.8621 115.046C43.8621 115.598 43.4161 116.046 42.8621 116.046ZM50.9721 116.046H45.8801C45.3281 116.046 44.8801 115.598 44.8801 115.046C44.8801 114.494 45.3281 114.046 45.8801 114.046H50.9721C51.5241 114.046 51.9721 114.494 51.9721 115.046C51.9721 115.598 51.5241 116.046 50.9721 116.046ZM50.9721 119.776H31.7401C31.1881 119.776 30.7401 119.328 30.7401 118.776C30.7401 118.224 31.1881 117.776 31.7401 117.776H50.9721C51.5241 117.776 51.9721 118.224 51.9721 118.776C51.9721 119.328 51.5241 119.776 50.9721 119.776ZM28.2741 119.776H27.1141C26.5621 119.776 26.1141 119.328 26.1141 118.776C26.1141 118.224 26.5621 117.776 27.1141 117.776H28.2741C28.8261 117.776 29.2741 118.224 29.2741 118.776C29.2741 119.328 28.8281 119.776 28.2741 119.776ZM23.5221 119.776H20.6081C20.0561 119.776 19.6081 119.328 19.6081 118.776C19.6081 118.224 20.0561 117.776 20.6081 117.776H23.5221C24.0741 117.776 24.5221 118.224 24.5221 118.776C24.5221 119.328 24.0761 119.776 23.5221 119.776ZM41.7941 112.316H31.7401C31.1881 112.316 30.7401 111.868 30.7401 111.316C30.7401 110.764 31.1881 110.316 31.7401 110.316H41.7941C42.3461 110.316 42.7941 110.764 42.7941 111.316C42.7941 111.868 42.3461 112.316 41.7941 112.316ZM41.7941 108.586H39.2781C38.7261 108.586 38.2781 108.138 38.2781 107.586C38.2781 107.034 38.7261 106.586 39.2781 106.586H41.7941C42.3461 106.586 42.7941 107.034 42.7941 107.586C42.7941 108.138 42.3461 108.586 41.7941 108.586ZM35.2561 123.506H31.7401C31.1881 123.506 30.7401 123.058 30.7401 122.506C30.7401 121.954 31.1881 121.506 31.7401 121.506H35.2561C35.8081 121.506 36.2561 121.954 36.2561 122.506C36.2561 123.058 35.8081 123.506 35.2561 123.506ZM140.36 44.176H120.3C119.748 44.176 119.3 43.728 119.3 43.176C119.3 42.624 119.748 42.176 120.3 42.176H140.36C140.912 42.176 141.36 42.624 141.36 43.176C141.36 43.728 140.914 44.176 140.36 44.176ZM146.122 44.176H143.232C142.68 44.176 142.232 43.728 142.232 43.176C142.232 42.624 142.68 42.176 143.232 42.176H146.122C146.674 42.176 147.122 42.624 147.122 43.176C147.122 43.728 146.674 44.176 146.122 44.176ZM154.232 44.176H149.14C148.588 44.176 148.14 43.728 148.14 43.176C148.14 42.624 148.588 42.176 149.14 42.176H154.232C154.784 42.176 155.232 42.624 155.232 43.176C155.232 43.728 154.784 44.176 154.232 44.176ZM150.18 36.716H130.948C130.396 36.716 129.948 36.268 129.948 35.716C129.948 35.164 130.396 34.716 130.948 34.716H150.18C150.732 34.716 151.18 35.164 151.18 35.716C151.18 36.268 150.734 36.716 150.18 36.716ZM127.486 36.716H126.326C125.774 36.716 125.326 36.268 125.326 35.716C125.326 35.164 125.774 34.716 126.326 34.716H127.486C128.038 34.716 128.486 35.164 128.486 35.716C128.486 36.268 128.038 36.716 127.486 36.716ZM122.732 36.716H119.82C119.268 36.716 118.82 36.268 118.82 35.716C118.82 35.164 119.268 34.716 119.82 34.716H122.732C123.284 34.716 123.732 35.164 123.732 35.716C123.732 36.268 123.284 36.716 122.732 36.716ZM145.054 40.446H135C134.448 40.446 134 39.998 134 39.446C134 38.894 134.448 38.446 135 38.446H145.054C145.606 38.446 146.054 38.894 146.054 39.446C146.054 39.998 145.606 40.446 145.054 40.446Z" fill="#FAFBFC"/>
<path d="M145.054 36.716H142.54C141.988 36.716 141.54 36.268 141.54 35.716C141.54 35.164 141.988 34.716 142.54 34.716H145.054C145.606 34.716 146.054 35.164 146.054 35.716C146.054 36.268 145.606 36.716 145.054 36.716ZM132.09 40.446H128.572C128.02 40.446 127.572 39.998 127.572 39.446C127.572 38.894 128.02 38.446 128.572 38.446H132.09C132.642 38.446 133.09 38.894 133.09 39.446C133.09 39.998 132.642 40.446 132.09 40.446Z" fill="#FAFBFC"/>
<path d="M137.874 66.586H85.0856L76.9736 53.134H145.74L137.874 66.586Z" fill="#707023"/>
<path d="M137.874 67.336H85.0859C84.8219 67.336 84.5799 67.198 84.4439 66.974L76.3319 53.522C76.1939 53.29 76.1899 53.002 76.3219 52.766C76.4539 52.53 76.7039 52.386 76.9739 52.386H145.74C146.01 52.386 146.258 52.53 146.39 52.762C146.524 52.994 146.522 53.282 146.386 53.514L138.522 66.966C138.388 67.196 138.14 67.336 137.874 67.336ZM85.5079 65.836H137.444L144.432 53.884H78.3019L85.5079 65.836Z" fill="#232538"/>
<path d="M94.8381 99.644L75.4521 53.134H99.0461L115.264 92.822" fill="#8C9136"/>
<path d="M94.84 100.394C94.548 100.394 94.268 100.22 94.148 99.934L74.76 53.426C74.662 53.194 74.688 52.93 74.826 52.72C74.966 52.512 75.202 52.386 75.45 52.386H99.046C99.35 52.386 99.624 52.57 99.74 52.852L115.958 92.54C116.116 92.924 115.932 93.362 115.548 93.518C115.172 93.674 114.728 93.492 114.572 93.108L98.542 53.886H76.576L95.532 99.356C95.692 99.738 95.512 100.178 95.13 100.338C95.032 100.374 94.934 100.394 94.84 100.394Z" fill="#232538"/>
<path d="M126.1 100.244L145.74 53.134H122.146L102.826 99.644" fill="#B7C13A"/>
<path d="M126.1 100.994C126.004 100.994 125.906 100.976 125.81 100.936C125.428 100.776 125.248 100.338 125.408 99.954L144.614 53.882H122.646L103.52 99.932C103.36 100.314 102.922 100.498 102.54 100.336C102.158 100.178 101.976 99.738 102.134 99.356L121.452 52.848C121.57 52.568 121.842 52.386 122.146 52.386H145.74C145.99 52.386 146.224 52.51 146.364 52.72C146.502 52.928 146.528 53.192 146.43 53.426L126.792 100.536C126.674 100.822 126.394 100.994 126.1 100.994Z" fill="#232538"/>
<path d="M127.372 84.216C127.308 84.216 127.244 84.204 127.182 84.178C126.926 84.074 126.804 83.782 126.908 83.526L139.142 53.812C139.248 53.556 139.548 53.43 139.794 53.54C140.05 53.644 140.172 53.936 140.068 54.192L127.834 83.906C127.756 84.1 127.57 84.216 127.372 84.216ZM125.926 87.726C125.862 87.726 125.798 87.714 125.736 87.688C125.48 87.584 125.358 87.292 125.462 87.036L126.068 85.566C126.174 85.31 126.474 85.186 126.72 85.294C126.976 85.398 127.098 85.69 126.994 85.946L126.388 87.416C126.31 87.61 126.124 87.726 125.926 87.726ZM95.4636 89.216C95.2636 89.216 95.0776 89.096 94.9996 88.9L81.3596 54.392C81.2576 54.136 81.3836 53.846 81.6416 53.744C81.9016 53.64 82.1876 53.77 82.2896 54.026L95.9276 88.532C96.0296 88.788 95.9036 89.078 95.6456 89.18C95.5876 89.204 95.5236 89.216 95.4636 89.216ZM121.89 97.278C121.822 97.278 121.754 97.264 121.686 97.236C121.434 97.124 121.32 96.828 121.432 96.576L124.728 89.156C124.84 88.904 125.136 88.788 125.388 88.902C125.64 89.014 125.754 89.31 125.642 89.562L122.346 96.982C122.264 97.166 122.082 97.278 121.89 97.278Z" fill="#232538"/>
<path d="M108.294 89.83C104.264 89.83 100.273 90.6238 96.5499 92.1661C92.8265 93.7085 89.4432 95.9691 86.5934 98.8189C83.7436 101.669 81.483 105.052 79.9406 108.775C78.3983 112.499 77.6045 116.49 77.6045 120.52C77.6045 124.55 78.3983 128.541 79.9406 132.265C81.483 135.988 83.7436 139.371 86.5934 142.221C89.4432 145.071 92.8265 147.332 96.5499 148.874C100.273 150.416 104.264 151.21 108.294 151.21C112.325 151.21 116.316 150.416 120.039 148.874C123.763 147.332 127.146 145.071 129.996 142.221C132.845 139.371 135.106 135.988 136.648 132.265C138.191 128.541 138.984 124.55 138.984 120.52C138.984 116.49 138.191 112.499 136.648 108.775C135.106 105.052 132.845 101.669 129.996 98.8189C127.146 95.9691 123.763 93.7085 120.039 92.1661C116.316 90.6238 112.325 89.83 108.294 89.83Z" fill="#FBCD59"/>
<path d="M108.294 152.61C90.6001 152.61 76.2041 138.214 76.2041 120.52C76.2041 102.826 90.6001 88.428 108.294 88.428C125.99 88.428 140.386 102.824 140.386 120.518C140.386 138.212 125.99 152.61 108.294 152.61ZM108.294 91.23C92.1441 91.23 79.0041 104.37 79.0041 120.52C79.0041 136.67 92.1421 149.81 108.294 149.81C124.446 149.81 137.586 136.67 137.586 120.52C137.586 104.37 124.444 91.23 108.294 91.23Z" fill="#232538"/>
<path d="M132.874 129.822C132.818 129.822 132.76 129.812 132.706 129.792C132.446 129.7 132.31 129.414 132.404 129.152C133.394 126.386 133.896 123.482 133.896 120.518C133.896 106.402 122.412 94.918 108.294 94.918C108.018 94.918 107.794 94.694 107.794 94.418C107.794 94.142 108.018 93.918 108.294 93.918C122.962 93.918 134.896 105.85 134.896 120.518C134.896 123.598 134.374 126.616 133.346 129.49C133.272 129.696 133.08 129.822 132.874 129.822ZM92.3223 141.664C92.2143 141.664 92.1083 141.63 92.0163 141.56C85.4563 136.476 81.6943 128.808 81.6943 120.52C81.6943 111.726 86.0363 103.508 93.3103 98.54C93.5363 98.384 93.8503 98.444 94.0043 98.67C94.1603 98.898 94.1023 99.21 93.8743 99.366C86.8763 104.148 82.6963 112.054 82.6963 120.52C82.6963 128.496 86.3183 135.878 92.6323 140.77C92.8503 140.938 92.8903 141.254 92.7203 141.472C92.6183 141.598 92.4703 141.664 92.3223 141.664ZM96.7023 144.41C96.6283 144.41 96.5523 144.394 96.4803 144.358C95.8043 144.022 95.1303 143.65 94.4783 143.254C94.2423 143.11 94.1683 142.802 94.3103 142.568C94.4563 142.33 94.7683 142.256 94.9983 142.402C95.6243 142.784 96.2743 143.142 96.9263 143.464C97.1723 143.588 97.2743 143.886 97.1503 144.134C97.0643 144.31 96.8863 144.41 96.7023 144.41ZM108.294 147.12C105.598 147.12 102.94 146.718 100.394 145.928C100.13 145.846 99.9843 145.566 100.066 145.302C100.148 145.04 100.428 144.89 100.69 144.972C103.142 145.734 105.7 146.12 108.294 146.12C108.57 146.12 108.794 146.344 108.794 146.62C108.794 146.896 108.57 147.12 108.294 147.12Z" fill="#232538"/>
<path d="M108.294 111.598L111.194 117.472L117.676 118.414L112.986 122.986L114.092 129.442L108.294 126.394L102.496 129.442L103.604 122.986L98.9141 118.414L105.396 117.472L108.294 111.598Z" fill="#E0A825"/>
<path d="M102.498 130.142C102.354 130.142 102.208 130.098 102.086 130.008C101.872 129.852 101.764 129.586 101.808 129.324L102.852 123.23L98.4241 118.914C98.2321 118.728 98.1641 118.45 98.2461 118.196C98.3281 117.944 98.5461 117.758 98.8101 117.72L104.93 116.832L107.666 111.288C107.9 110.81 108.686 110.81 108.92 111.288L111.656 116.832L117.776 117.72C118.04 117.758 118.258 117.942 118.34 118.196C118.422 118.45 118.354 118.728 118.162 118.914L113.736 123.23L114.78 129.324C114.824 129.586 114.718 129.852 114.502 130.008C114.286 130.166 114 130.186 113.764 130.06L108.292 127.184L102.822 130.06C102.72 130.114 102.608 130.142 102.498 130.142ZM108.294 125.694C108.406 125.694 108.518 125.722 108.62 125.776L113.162 128.164L112.294 123.106C112.254 122.88 112.33 122.648 112.496 122.486L116.17 118.904L111.09 118.166C110.864 118.132 110.666 117.99 110.564 117.784L108.292 113.182L106.02 117.784C105.918 117.992 105.722 118.134 105.494 118.166L100.414 118.904L104.09 122.486C104.256 122.646 104.33 122.878 104.292 123.106L103.424 128.164L107.966 125.776C108.07 125.72 108.182 125.694 108.294 125.694Z" fill="#232538"/>
<path d="M106.906 67.086C106.706 67.086 106.518 66.966 106.442 66.768L101.15 53.316C101.048 53.06 101.176 52.77 101.432 52.668C101.692 52.562 101.98 52.692 102.08 52.95L107.372 66.402C107.474 66.658 107.346 66.948 107.09 67.05C107.028 67.076 106.966 67.086 106.906 67.086ZM109.71 67.086C109.51 67.086 109.322 66.966 109.246 66.768L103.954 53.316C103.852 53.06 103.98 52.77 104.236 52.668C104.498 52.562 104.784 52.692 104.884 52.95L110.176 66.402C110.278 66.658 110.15 66.948 109.894 67.05C109.834 67.076 109.77 67.086 109.71 67.086ZM112.514 67.086C112.314 67.086 112.126 66.966 112.05 66.768L106.758 53.316C106.656 53.06 106.784 52.77 107.04 52.668C107.3 52.562 107.588 52.692 107.688 52.95L112.98 66.402C113.082 66.658 112.954 66.948 112.698 67.05C112.638 67.076 112.576 67.086 112.514 67.086ZM115.32 67.086C115.12 67.086 114.932 66.966 114.856 66.768L109.564 53.316C109.462 53.06 109.59 52.77 109.846 52.668C110.104 52.562 110.394 52.692 110.494 52.95L115.786 66.402C115.888 66.658 115.76 66.948 115.504 67.05C115.442 67.076 115.38 67.086 115.32 67.086ZM117.22 64.79C117.02 64.79 116.832 64.67 116.756 64.472L112.37 53.316C112.268 53.06 112.396 52.77 112.652 52.668C112.912 52.562 113.2 52.692 113.3 52.95L117.686 64.106C117.788 64.362 117.66 64.652 117.404 64.754C117.342 64.78 117.28 64.79 117.22 64.79ZM118.666 61.332C118.466 61.332 118.278 61.212 118.202 61.014L115.174 53.316C115.072 53.06 115.2 52.77 115.456 52.668C115.714 52.562 116.004 52.692 116.104 52.95L119.132 60.648C119.234 60.904 119.106 61.194 118.85 61.296C118.788 61.322 118.726 61.332 118.666 61.332ZM120.172 58.03C119.972 58.03 119.784 57.91 119.708 57.714L117.978 53.318C117.876 53.06 118.004 52.77 118.26 52.67C118.52 52.564 118.808 52.696 118.908 52.952L120.638 57.348C120.74 57.606 120.612 57.896 120.356 57.996C120.294 58.02 120.232 58.03 120.172 58.03Z" fill="#232538"/>
<path d="M144.923 165.21C148.689 165.21 151.957 165.21 152.003 165.21C156.223 165.21 159.645 161.862 159.645 157.732C159.645 154.128 157.041 151.122 153.575 150.412C153.615 150.096 153.643 149.778 153.643 149.452C153.643 145.174 150.099 141.706 145.729 141.706C143.149 141.706 140.863 142.92 139.419 144.792C139.049 140.03 134.703 136.356 129.619 136.966C125.901 137.412 122.825 140.224 122.141 143.828C121.921 144.984 121.945 146.106 122.163 147.158C121.167 146.108 119.747 145.446 118.167 145.446C115.275 145.446 112.913 147.65 112.727 150.434C111.413 150.15 109.985 150.168 108.481 150.72C105.605 151.776 103.557 154.426 103.437 157.432C103.267 161.698 106.751 165.21 111.073 165.21C111.401 165.21 112.555 165.21 112.821 165.21H128.689H144.923ZM131.967 165.21H132.687H131.967Z" fill="#FAFBFC"/>
<path d="M152.002 166.21H144.922C144.37 166.21 143.922 165.762 143.922 165.21C143.922 164.658 144.37 164.21 144.922 164.21H152.002C155.664 164.21 158.644 161.304 158.644 157.732C158.644 154.684 156.428 152.018 153.37 151.392C152.856 151.288 152.512 150.804 152.578 150.284C152.614 150.01 152.638 149.734 152.638 149.452C152.638 145.732 149.536 142.706 145.724 142.706C143.538 142.706 141.526 143.69 140.204 145.402C139.954 145.73 139.52 145.868 139.128 145.75C138.732 145.632 138.448 145.282 138.418 144.87C138.26 142.832 137.288 140.984 135.678 139.664C134.024 138.304 131.902 137.694 129.732 137.958C126.44 138.352 123.72 140.842 123.116 144.014C122.928 145.002 122.936 145.992 123.136 146.956C123.228 147.394 123.016 147.838 122.62 148.044C122.226 148.252 121.742 148.172 121.432 147.846C120.574 146.942 119.412 146.446 118.16 146.446C115.82 146.446 113.868 148.228 113.718 150.5C113.698 150.79 113.554 151.058 113.322 151.232C113.092 151.408 112.794 151.472 112.51 151.41C111.228 151.132 110.022 151.214 108.816 151.658C106.292 152.586 104.528 154.922 104.43 157.47C104.36 159.22 104.994 160.886 106.22 162.16C107.49 163.482 109.21 164.208 111.066 164.208H128.682C129.234 164.208 129.682 164.656 129.682 165.208C129.682 165.76 129.234 166.208 128.682 166.208H111.066C108.696 166.208 106.404 165.238 104.778 163.544C103.172 161.874 102.34 159.688 102.43 157.388C102.562 154.04 104.854 150.982 108.128 149.778C109.352 149.328 110.616 149.164 111.89 149.288C112.578 146.496 115.148 144.44 118.162 144.44C119.16 144.44 120.12 144.66 120.988 145.078C121.006 144.598 121.06 144.116 121.152 143.636C121.916 139.616 125.348 136.464 129.494 135.966C132.224 135.642 134.866 136.402 136.948 138.112C138.442 139.338 139.502 140.93 140.04 142.714C141.622 141.418 143.61 140.7 145.726 140.7C150.642 140.7 154.64 144.624 154.64 149.446C154.64 149.514 154.638 149.582 154.636 149.652C158.166 150.762 160.644 154.028 160.644 157.728C160.644 162.406 156.766 166.21 152.002 166.21ZM132.684 166.21H131.966C131.414 166.21 130.966 165.762 130.966 165.21C130.966 164.658 131.414 164.21 131.966 164.21H132.684C133.236 164.21 133.684 164.658 133.684 165.21C133.684 165.762 133.238 166.21 132.684 166.21Z" fill="#232538"/>
<path d="M148.589 154.604C148.553 154.604 148.517 154.6 148.479 154.592C148.209 154.532 148.039 154.264 148.101 153.994C148.177 153.66 148.291 153.336 148.441 153.034C149.647 150.59 152.987 149.688 155.883 151.022C156.135 151.138 156.245 151.436 156.127 151.686C156.011 151.936 155.709 152.046 155.465 151.93C153.051 150.818 150.307 151.514 149.339 153.478C149.223 153.708 149.135 153.956 149.079 154.212C149.023 154.446 148.817 154.604 148.589 154.604Z" fill="#232538"/>
<path d="M138.269 166.21H136.055C135.503 166.21 135.055 165.762 135.055 165.21C135.055 164.658 135.503 164.21 136.055 164.21H138.269C138.821 164.21 139.269 164.658 139.269 165.21C139.269 165.762 138.823 166.21 138.269 166.21Z" fill="#232538"/>
<path d="M153.472 68.398L155.25 72.004L159.228 72.582L156.35 75.388L157.03 79.35L153.472 77.478L149.914 79.35L150.592 75.388L147.714 72.582L151.692 72.004L153.472 68.398Z" fill="#F1BC19"/>
<path d="M157.03 80.05C156.918 80.05 156.808 80.024 156.704 79.968L153.472 78.268L150.24 79.968C150.002 80.092 149.72 80.072 149.502 79.916C149.288 79.76 149.18 79.494 149.224 79.232L149.842 75.632L147.226 73.084C147.034 72.898 146.966 72.62 147.048 72.368C147.13 72.114 147.348 71.93 147.612 71.892L151.228 71.366L152.846 68.09C153.08 67.612 153.866 67.612 154.1 68.09L155.718 71.366L159.334 71.892C159.598 71.93 159.816 72.114 159.898 72.368C159.98 72.62 159.912 72.9 159.72 73.084L157.104 75.632L157.722 79.232C157.766 79.494 157.66 79.76 157.444 79.916C157.32 80.004 157.174 80.05 157.03 80.05ZM153.472 76.778C153.584 76.778 153.696 76.806 153.798 76.86L156.1 78.07L155.66 75.506C155.62 75.28 155.696 75.048 155.862 74.886L157.726 73.07L155.15 72.696C154.924 72.662 154.726 72.52 154.624 72.314L153.472 69.98L152.32 72.314C152.218 72.522 152.022 72.664 151.794 72.696L149.218 73.07L151.082 74.886C151.248 75.046 151.322 75.278 151.284 75.506L150.844 78.07L153.146 76.86C153.248 76.806 153.36 76.778 153.472 76.778Z" fill="#232538"/>
<path d="M165.672 103.252L168.39 108.76L174.468 109.642L170.07 113.93L171.108 119.984L165.672 117.126L160.236 119.984L161.274 113.93L156.876 109.642L162.954 108.76L165.672 103.252Z" fill="#F1BC19"/>
<path d="M160.236 120.684C160.092 120.684 159.946 120.64 159.824 120.55C159.61 120.394 159.502 120.128 159.546 119.866L160.52 114.176L156.388 110.146C156.196 109.96 156.128 109.682 156.21 109.428C156.292 109.176 156.51 108.99 156.774 108.952L162.488 108.12L165.042 102.942C165.276 102.464 166.062 102.464 166.296 102.942L168.852 108.12L174.566 108.952C174.83 108.99 175.048 109.174 175.13 109.428C175.212 109.68 175.144 109.96 174.952 110.144L170.818 114.174L171.794 119.864C171.838 120.126 171.732 120.392 171.516 120.548C171.3 120.706 171.016 120.726 170.778 120.602L165.666 117.916L160.556 120.602C160.458 120.656 160.346 120.684 160.236 120.684ZM165.672 116.426C165.784 116.426 165.896 116.454 165.998 116.506L170.18 118.704L169.382 114.048C169.342 113.822 169.418 113.59 169.584 113.428L172.966 110.13L168.29 109.45C168.064 109.416 167.866 109.274 167.764 109.068L165.672 104.832L163.582 109.068C163.48 109.276 163.284 109.418 163.056 109.45L158.38 110.13L161.76 113.428C161.926 113.588 162 113.82 161.962 114.048L161.166 118.704L165.346 116.506C165.446 116.452 165.56 116.426 165.672 116.426Z" fill="#232538"/>
<path d="M42.8621 126.594L45.0621 131.05L49.9781 131.764L46.4201 135.232L47.2601 140.13L42.8621 137.818L38.4641 140.13L39.3041 135.232L35.7461 131.764L40.6641 131.05L42.8621 126.594Z" fill="#F1BC19"/>
<path d="M47.2601 140.83C47.1481 140.83 47.0381 140.804 46.9341 140.748L42.8621 138.608L38.7901 140.748C38.5521 140.874 38.2701 140.854 38.0521 140.696C37.8381 140.54 37.7301 140.274 37.7741 140.012L38.5521 135.476L35.2581 132.264C35.0661 132.078 34.9981 131.8 35.0801 131.546C35.1621 131.294 35.3821 131.108 35.6461 131.07L40.1981 130.408L42.2361 126.282C42.4701 125.804 43.2561 125.804 43.4901 126.282L45.5281 130.408L50.0781 131.07C50.3421 131.108 50.5621 131.292 50.6441 131.546C50.7261 131.8 50.6581 132.078 50.4661 132.264L47.1741 135.476L47.9521 140.012C47.9961 140.274 47.8901 140.54 47.6741 140.696C47.5501 140.786 47.4061 140.83 47.2601 140.83ZM42.8621 137.118C42.9741 137.118 43.0861 137.146 43.1881 137.2L46.3301 138.852L45.7301 135.352C45.6901 135.126 45.7661 134.894 45.9321 134.732L48.4741 132.254L44.9601 131.744C44.7341 131.71 44.5361 131.568 44.4341 131.362L42.8621 128.178L41.2901 131.362C41.1881 131.57 40.9921 131.712 40.7621 131.744L37.2481 132.254L39.7901 134.732C39.9561 134.892 40.0301 135.124 39.9921 135.352L39.3921 138.852L42.5341 137.2C42.6381 137.146 42.7521 137.118 42.8621 137.118Z" fill="#232538"/>
</svg>
