<svg width="200" height="200" viewBox="0 0 200 200" fill="none" xmlns="http://www.w3.org/2000/svg">
<path d="M174.43 113.42C176.7 109.11 178 104.21 178 99C178 85.758 169.682 74.486 157.998 70.044C157.998 70.03 158 70.016 158 70C158 46.804 139.196 28 116 28C96.432 28 80.038 41.402 75.374 59.514C72.422 58.544 69.276 58 66 58C50.616 58 37.954 69.586 36.22 84.504C25.812 86.706 18 95.938 18 107C18 119.702 28.298 130 41 130C41.354 130 41.704 129.976 42.052 129.956C42.044 130.306 42 130.648 42 131C42 153.644 60.356 172 83 172C95.874 172 107.35 166.056 114.868 156.772C119.224 161.222 125.28 164 132 164C141.3 164 149.348 158.7 153.332 150.964C155.436 151.634 157.674 152 160 152C172.15 152 182 142.15 182 130C182 123.378 179.06 117.454 174.43 113.42Z" fill="#FAFBFC"/>
<path d="M155 153V154H161V153C161 153 169.484 153 172 153C176.97 153 181 148.97 181 144C181 139.334 177.436 135.542 172.89 135.09C172.934 134.728 173 134.374 173 134C173 129.03 168.97 125 164 125C161.124 125 158.594 126.372 156.946 128.472C156.666 123.2 152.342 119 147 119C141.478 119 137 123.478 137 129C137 129.892 137.154 130.74 137.374 131.564C136.09 130.01 134.172 129 132 129C128.438 129 125.532 131.67 125.09 135.11C124.728 135.066 124.374 135 124 135C119.03 135 115 139.03 115 144C115 148.97 119.03 153 124 153C128.97 153 143 153 143 153H155Z" fill="#FAFBFC"/>
<path d="M147 118C140.934 118 136 122.934 136 129C136 129.032 136 129.062 136 129.094C134.796 128.384 133.42 128 132 128C128.338 128 125.178 130.522 124.284 134.01C124.19 134.004 124.096 134 124 134C118.486 134 114 138.486 114 144C114 149.514 118.486 154 124 154H155C155.552 154 156 153.552 156 153C156 152.448 155.552 152 155 152H124C119.588 152 116 148.412 116 144C116 139.588 119.588 136 124 136C124.234 136 124.46 136.034 124.686 136.064L124.968 136.102C125.01 136.108 125.05 136.11 125.092 136.11C125.584 136.11 126.016 135.74 126.082 135.236C126.464 132.25 129.008 130 132 130C133.77 130 135.446 130.802 136.602 132.2C136.798 132.436 137.084 132.564 137.374 132.564C137.53 132.564 137.686 132.528 137.83 132.452C138.248 132.238 138.458 131.76 138.338 131.306C138.108 130.436 138 129.704 138 129C138 124.038 142.038 120 147 120C151.762 120 155.694 123.744 155.948 128.526C155.97 128.942 156.248 129.3 156.646 129.426C156.746 129.458 156.848 129.474 156.95 129.474C157.25 129.474 157.542 129.336 157.734 129.09C159.276 127.126 161.558 126 164 126C168.412 126 172 129.588 172 134C172 134.234 171.966 134.46 171.936 134.686L171.898 134.968C171.866 135.236 171.942 135.504 172.11 135.714C172.278 135.924 172.524 136.058 172.79 136.084C176.902 136.494 180 139.898 180 144C180 148.412 176.412 152 172 152H161C160.448 152 160 152.448 160 153C160 153.552 160.448 154 161 154H172C177.514 154 182 149.514 182 144C182 139.206 178.622 135.174 173.994 134.246C173.998 134.164 174 134.082 174 134C174 128.486 169.514 124 164 124C161.648 124 159.414 124.832 157.634 126.328C156.438 121.52 152.11 118 147 118Z" fill="#232538"/>
<path d="M171.766 135C169.114 135 166.75 136.794 166.018 139.364C165.942 139.63 166.096 139.906 166.362 139.982C166.41 139.994 166.456 140 166.5 140C166.718 140 166.918 139.856 166.98 139.636C167.59 137.496 169.558 136 171.766 136C172 136 172.226 136.028 172.45 136.058C172.474 136.062 172.496 136.064 172.52 136.064C172.762 136.064 172.978 135.88 173.012 135.63C173.05 135.356 172.858 135.104 172.584 135.068C172.316 135.032 172.044 135 171.766 135Z" fill="#232538"/>
<path d="M31 102H11C10.448 102 10 101.552 10 101C10 100.448 10.448 100 11 100H31C31.552 100 32 100.448 32 101C32 101.552 31.554 102 31 102ZM37 102H35C34.448 102 34 101.552 34 101C34 100.448 34.448 100 35 100H37C37.552 100 38 100.448 38 101C38 101.552 37.554 102 37 102ZM46.982 106H29C28.448 106 28 105.552 28 105C28 104.448 28.448 104 29 104H46.982C47.534 104 47.982 104.448 47.982 105C47.982 105.552 47.534 106 46.982 106ZM25 106H23C22.448 106 22 105.552 22 105C22 104.448 22.448 104 23 104H25C25.552 104 26 104.448 26 105C26 105.552 25.554 106 25 106ZM19 106H15C14.448 106 14 105.552 14 105C14 104.448 14.448 104 15 104H19C19.552 104 20 104.448 20 105C20 105.552 19.554 106 19 106ZM31 110H27C26.448 110 26 109.552 26 109C26 108.448 26.448 108 27 108H31C31.552 108 32 108.448 32 109C32 109.552 31.552 110 31 110ZM37 92C36.646 92 35.354 92 35 92C34.448 92 34 92.448 34 93C34 93.552 34.448 94 35 94C35.354 94 36.646 94 37 94C37.552 94 38 93.552 38 93C38 92.448 37.552 92 37 92ZM37 96C36.646 96 27.354 96 27 96C26.448 96 26 96.448 26 97C26 97.552 26.448 98 27 98C27.354 98 36.646 98 37 98C37.552 98 38 97.552 38 97C38 96.448 37.552 96 37 96ZM47 100C46.646 100 41.354 100 41 100C40.448 100 40 100.448 40 101C40 101.552 40.448 102 41 102C41.354 102 46.646 102 47 102C47.552 102 48 101.552 48 101C48 100.448 47.552 100 47 100Z" fill="#FAFBFC"/>
<path d="M145 48H125C124.448 48 124 47.552 124 47C124 46.448 124.448 46 125 46H145C145.552 46 146 46.448 146 47C146 47.552 145.552 48 145 48ZM153 48H149C148.448 48 148 47.552 148 47C148 46.448 148.448 46 149 46H153C153.552 46 154 46.448 154 47C154 47.552 153.552 48 153 48ZM163 52H143C142.448 52 142 51.552 142 51C142 50.448 142.448 50 143 50H163C163.552 50 164 50.448 164 51C164 51.552 163.554 52 163 52ZM139 52H137C136.448 52 136 51.552 136 51C136 50.448 136.448 50 137 50H139C139.552 50 140 50.448 140 51C140 51.552 139.552 52 139 52ZM132.94 52H129C128.448 52 128 51.552 128 51C128 50.448 128.448 50 129 50H132.94C133.492 50 133.94 50.448 133.94 51C133.94 51.552 133.492 52 132.94 52ZM151 44H141C140.448 44 140 43.552 140 43C140 42.448 140.448 42 141 42H151C151.552 42 152 42.448 152 43C152 43.552 151.554 44 151 44ZM145 56H141C140.448 56 140 55.552 140 55C140 54.448 140.448 54 141 54H145C145.552 54 146 54.448 146 55C146 55.552 145.552 56 145 56Z" fill="#FAFBFC"/>
<path d="M106 51C102.58 51 99.5724 52.782 96.6664 54.502C94.8624 55.57 93.1584 56.578 91.4244 57.138C89.6024 57.73 87.5744 57.93 85.4304 58.14C82.1124 58.468 78.6784 58.806 76.0344 60.732C73.3464 62.678 71.9684 65.854 70.6324 68.922C69.7644 70.916 68.9644 72.76 67.8624 74.276C66.7704 75.776 65.2684 77.098 63.6784 78.496C61.1504 80.722 58.5364 83.024 57.4904 86.226C56.4904 89.29 57.2264 92.634 57.9384 95.866C58.4084 98.008 58.8544 100.03 58.8544 101.998C58.8544 103.966 58.4084 105.988 57.9384 108.126C57.2284 111.364 56.4904 114.708 57.4904 117.77C58.5344 120.97 61.1444 123.27 63.6684 125.494C65.2664 126.898 66.7664 128.218 67.8604 129.716C68.9644 131.24 69.7664 133.086 70.6164 135.04C71.9644 138.14 73.3464 141.318 76.0264 143.262C78.6824 145.198 82.1124 145.532 85.4304 145.858C87.5864 146.07 89.6084 146.27 91.4284 146.86C93.1584 147.418 94.8624 148.426 96.6644 149.492C99.5724 151.218 102.58 153 106 153C109.42 153 112.428 151.218 115.334 149.498C117.138 148.43 118.842 147.422 120.576 146.862C122.396 146.27 124.424 146.07 126.57 145.862C129.888 145.534 133.322 145.196 135.966 143.268C138.662 141.314 140.04 138.136 141.374 135.062C142.234 133.088 143.036 131.242 144.138 129.726C145.234 128.222 146.734 126.902 148.324 125.504C150.854 123.276 153.466 120.974 154.51 117.774C155.51 114.71 154.774 111.368 154.062 108.136C153.592 105.994 153.146 103.974 153.146 102.002C153.146 100.034 153.592 98.012 154.062 95.874C154.772 92.638 155.51 89.294 154.51 86.23C153.466 83.024 150.85 80.726 148.322 78.5C146.732 77.102 145.23 75.782 144.142 74.284C143.03 72.754 142.228 70.904 141.376 68.944C140.04 65.868 138.658 62.686 135.972 60.74C133.322 58.806 129.888 58.47 126.568 58.142C124.424 57.932 122.398 57.732 120.572 57.14C118.842 56.58 117.138 55.572 115.336 54.506C112.428 52.782 109.42 51 106 51ZM106 125C93.3184 125 83.0004 114.682 83.0004 102C83.0004 89.318 93.3184 79 106 79C118.682 79 129 89.318 129 102C129 114.682 118.682 125 106 125Z" fill="#678C26"/>
<path d="M106 52.8C108.926 52.8 111.594 54.38 114.418 56.052C116.224 57.122 118.092 58.228 120.016 58.85C122.026 59.502 124.146 59.71 126.394 59.932C129.616 60.248 132.66 60.548 134.918 62.196C137.202 63.852 138.428 66.672 139.728 69.664C140.62 71.716 141.462 73.654 142.686 75.342C143.896 77.004 145.542 78.45 147.134 79.85C149.588 82.01 151.906 84.052 152.798 86.784C153.646 89.382 152.994 92.344 152.304 95.48C151.812 97.718 151.346 99.832 151.346 102C151.346 104.17 151.834 106.382 152.304 108.52C152.994 111.656 153.644 114.618 152.798 117.214C151.906 119.948 149.59 121.988 147.132 124.152C145.466 125.618 143.89 127.004 142.68 128.668C141.458 130.352 140.616 132.292 139.724 134.346C138.428 137.33 137.202 140.148 134.906 141.814C132.656 143.454 129.614 143.754 126.394 144.07C124.248 144.28 122.03 144.496 120.02 145.15C118.09 145.774 116.222 146.88 114.416 147.95C111.594 149.62 108.926 151.2 106 151.2C103.072 151.2 100.406 149.62 97.582 147.948C95.692 146.828 93.906 145.772 91.984 145.15C89.976 144.498 87.856 144.29 85.606 144.068C82.386 143.754 79.346 143.456 77.084 141.808C74.8 140.152 73.574 137.332 72.278 134.346C71.426 132.382 70.544 130.352 69.316 128.66C68.11 127.004 66.536 125.62 64.864 124.148C62.412 121.988 60.096 119.948 59.204 117.216C58.358 114.62 59.008 111.66 59.698 108.52C60.19 106.282 60.656 104.168 60.656 102C60.656 99.834 60.19 97.72 59.698 95.48C59.008 92.344 58.356 89.382 59.204 86.786C60.096 84.052 62.414 82.012 64.868 79.85C66.46 78.452 68.106 77.004 69.322 75.336C70.54 73.658 71.38 71.724 72.28 69.652C73.576 66.668 74.802 63.85 77.094 62.188C79.344 60.548 82.386 60.25 85.612 59.932C87.858 59.712 89.978 59.502 91.98 58.852C93.908 58.23 95.694 57.172 97.586 56.052C100.406 54.38 103.072 52.8 106 52.8ZM106 126.8C119.674 126.8 130.8 115.674 130.8 102C130.8 88.326 119.674 77.2 106 77.2C92.326 77.2 81.2 88.326 81.2 102C81.2 115.674 92.326 126.8 106 126.8ZM106 50C102.308 50 99.18 51.852 96.156 53.642C94.402 54.68 92.746 55.66 91.116 56.186C89.398 56.744 87.422 56.94 85.332 57.144C81.88 57.484 78.308 57.834 75.442 59.924C72.532 62.034 71.096 65.342 69.706 68.54C68.876 70.45 68.092 72.254 67.052 73.688C66.026 75.096 64.564 76.384 63.016 77.744C60.386 80.06 57.668 82.452 56.538 85.914C55.454 89.236 56.22 92.716 56.96 96.08C57.42 98.166 57.852 100.136 57.852 101.998C57.852 103.86 57.418 105.83 56.96 107.916C56.22 111.282 55.454 114.76 56.538 118.082C57.668 121.544 60.386 123.938 63.016 126.252C64.564 127.614 66.026 128.9 67.05 130.306C68.094 131.744 68.878 133.548 69.708 135.458C71.098 138.656 72.536 141.966 75.44 144.072C78.31 146.164 81.88 146.516 85.334 146.854C87.424 147.06 89.398 147.254 91.12 147.812C92.746 148.338 94.402 149.318 96.156 150.356C99.18 152.148 102.308 154 106 154C109.692 154 112.82 152.148 115.844 150.358C117.598 149.32 119.254 148.34 120.882 147.814C122.602 147.254 124.576 147.062 126.666 146.856C130.118 146.516 133.69 146.166 136.556 144.076C139.464 141.966 140.902 138.66 142.292 135.462C143.122 133.552 143.906 131.748 144.946 130.314C145.972 128.904 147.434 127.618 148.982 126.256C151.61 123.94 154.328 121.548 155.46 118.086C156.544 114.764 155.778 111.286 155.038 107.92C154.578 105.836 154.146 103.864 154.146 102.002C154.146 100.14 154.58 98.17 155.038 96.084C155.778 92.72 156.542 89.242 155.46 85.918C154.33 82.456 151.612 80.062 148.982 77.748C147.434 76.388 145.972 75.1 144.95 73.696C143.908 72.258 143.122 70.454 142.294 68.546C140.904 65.346 139.466 62.036 136.56 59.932C133.69 57.84 130.12 57.488 126.666 57.15C124.576 56.944 122.602 56.75 120.88 56.192C119.254 55.666 117.598 54.686 115.844 53.648C112.82 51.852 109.692 50 106 50ZM106 124C93.87 124 84 114.13 84 102C84 89.87 93.87 80 106 80C118.13 80 128 89.87 128 102C128 114.13 118.13 124 106 124Z" fill="#232538"/>
<path d="M80.0003 108C75.9463 108 71.9283 106.962 68.3863 104.998C68.0223 104.796 67.8923 104.34 68.0943 103.978C68.2963 103.616 68.7503 103.486 69.1143 103.686C73.3523 106.036 78.3563 106.954 83.1483 106.282C83.5743 106.228 83.9383 106.514 83.9943 106.922C84.0523 107.332 83.7663 107.712 83.3563 107.768C82.2483 107.922 81.1203 108 80.0003 108ZM63.2503 100.85C63.0523 100.85 62.8583 100.772 62.7083 100.62C59.3723 97.148 57.1743 92.828 56.3543 88.13C56.2823 87.722 56.5563 87.334 56.9643 87.262C57.3923 87.196 57.7623 87.468 57.8323 87.872C58.6023 92.276 60.6623 96.326 63.7903 99.58C64.0783 99.878 64.0683 100.354 63.7683 100.64C63.6243 100.78 63.4383 100.85 63.2503 100.85ZM97.5003 149.974C97.2143 149.974 96.9423 149.808 96.8163 149.532C96.6463 149.154 96.8143 148.71 97.1923 148.54C104.98 145.042 110.188 137.266 110.462 128.726C110.476 128.312 110.838 128.016 111.236 128C111.65 128.014 111.976 128.36 111.962 128.774C111.67 137.88 106.112 146.176 97.8063 149.908C97.7083 149.952 97.6043 149.974 97.5003 149.974ZM154.75 116C154.402 116 154.09 115.758 154.016 115.406C153.152 111.308 151.144 107.53 148.21 104.476C147.922 104.178 147.932 103.702 148.232 103.416C148.528 103.128 149.004 103.138 149.292 103.438C152.42 106.692 154.562 110.724 155.486 115.096C155.572 115.502 155.312 115.9 154.906 115.984C154.854 115.996 154.8 116 154.75 116ZM137.25 98.172C137.196 98.172 137.138 98.166 137.08 98.152C134.106 97.464 131.174 97.39 128.372 97.846C127.958 97.924 127.58 97.636 127.51 97.226C127.444 96.816 127.72 96.432 128.13 96.366C131.132 95.88 134.254 95.96 137.422 96.692C137.824 96.784 138.076 97.188 137.982 97.592C137.9 97.938 137.592 98.172 137.25 98.172ZM145.25 101.714C145.102 101.714 144.954 101.67 144.822 101.58C144.062 101.052 143.248 100.56 142.402 100.116C142.034 99.924 141.892 99.47 142.086 99.104C142.278 98.736 142.73 98.598 143.098 98.788C143.998 99.26 144.868 99.786 145.678 100.35C146.018 100.586 146.102 101.054 145.866 101.394C145.72 101.602 145.486 101.714 145.25 101.714Z" fill="#232538"/>
<path d="M100.012 72.262L93 96.248L98.788 93.626L102.238 99L109.25 75.014L100.012 72.262Z" fill="#E6484F"/>
<path d="M102.238 100C101.9 100 101.582 99.83 101.396 99.54L98.4124 94.894L93.4124 97.158C93.0624 97.318 92.6404 97.26 92.3444 97.002C92.0504 96.746 91.9304 96.342 92.0424 95.966L99.0544 71.98C99.1284 71.724 99.3024 71.51 99.5344 71.382C99.7684 71.254 100.042 71.224 100.298 71.302L109.536 74.054C110.064 74.212 110.364 74.764 110.21 75.292L103.198 99.28C103.088 99.656 102.77 99.934 102.382 99.99C102.334 99.998 102.286 100 102.238 100ZM98.7884 92.626C99.1184 92.626 99.4404 92.792 99.6304 93.086L101.896 96.614L108.014 75.69L100.692 73.508L94.5724 94.438L98.3764 92.716C98.5084 92.654 98.6484 92.626 98.7884 92.626Z" fill="#232538"/>
<path d="M111.988 72.262L119 96.248L113.212 93.626L109.762 99L102.75 75.014L111.988 72.262Z" fill="#E6484F"/>
<path d="M109.762 100C109.716 100 109.666 99.998 109.62 99.99C109.232 99.934 108.912 99.656 108.804 99.28L101.792 75.294C101.638 74.766 101.938 74.212 102.466 74.056L111.704 71.304C111.96 71.226 112.234 71.256 112.468 71.384C112.7 71.51 112.874 71.726 112.948 71.982L119.96 95.968C120.072 96.344 119.952 96.748 119.658 97.004C119.364 97.262 118.94 97.32 118.59 97.16L113.59 94.896L110.606 99.542C110.418 99.83 110.1 100 109.762 100ZM103.988 75.688L110.106 96.612L112.372 93.084C112.642 92.666 113.176 92.51 113.626 92.712L117.43 94.434L111.31 73.504L103.988 75.688Z" fill="#232538"/>
<path d="M108 66.826C108 66.13 123.066 55 128.024 55C132.982 55 137 59.048 137 64.044V77.958C137 82.952 132.982 87.002 128.024 87.002C123.066 87 108 75.87 108 75.174" fill="#E6484F"/>
<path d="M128.024 88C123.578 88 107 77.236 107 75.174C107 74.622 107.448 74.174 108 74.174C108.398 74.174 108.742 74.408 108.902 74.744C110.214 76.248 123.814 86 128.024 86C132.422 86 136 82.392 136 77.956V64.044C136 59.608 132.422 56 128.024 56C123.816 56 110.216 65.752 108.902 67.256C108.742 67.592 108.398 67.826 108 67.826C107.448 67.826 107 67.378 107 66.826C107 64.764 123.578 54 128.024 54C133.526 54 138 58.506 138 64.044V77.956C138 83.494 133.526 88 128.024 88Z" fill="#232538"/>
<path d="M104 75.174C104 75.87 88.934 87 83.976 87C79.018 87 75 82.952 75 77.956V64.042C75 59.048 79.018 54.998 83.976 54.998C88.934 54.998 104 66.13 104 66.826" fill="#E6484F"/>
<path d="M83.976 88C78.474 88 74 83.494 74 77.956V64.044C74 58.506 78.474 54 83.976 54C88.422 54 105 64.764 105 66.826C105 67.378 104.552 67.826 104 67.826C103.602 67.826 103.258 67.592 103.098 67.256C101.786 65.752 88.186 56 83.976 56C79.578 56 76 59.608 76 64.044V77.956C76 82.392 79.578 86 83.976 86C88.184 86 101.784 76.248 103.098 74.744C103.258 74.408 103.602 74.174 104 74.174C104.552 74.174 105 74.622 105 75.174C105 77.236 88.422 88 83.976 88ZM106 72.75C105.708 72.75 105.43 72.578 105.308 72.292C105.148 71.91 105.328 71.47 105.708 71.31L122.958 64.06C123.342 63.9 123.778 64.08 123.94 64.46C124.1 64.842 123.92 65.282 123.54 65.442L106.29 72.692C106.196 72.732 106.098 72.75 106 72.75Z" fill="#232538"/>
<path d="M123.25 78C123.178 78 123.104 77.99 123.032 77.968L105.782 72.718C105.386 72.596 105.162 72.178 105.284 71.782C105.404 71.386 105.826 71.164 106.22 71.282L123.47 76.532C123.866 76.654 124.09 77.072 123.968 77.468C123.87 77.792 123.572 78 123.25 78Z" fill="#232538"/>
<path d="M88.7501 77.75C88.4241 77.75 88.1241 77.538 88.0301 77.208C87.9141 76.81 88.1441 76.394 88.5421 76.278L105.792 71.278C106.194 71.164 106.604 71.392 106.722 71.79C106.838 72.188 106.608 72.604 106.21 72.72L88.9601 77.72C88.8881 77.74 88.8181 77.75 88.7501 77.75Z" fill="#232538"/>
<path d="M106 72.75C105.902 72.75 105.804 72.732 105.708 72.692L88.4584 65.442C88.0784 65.282 87.8984 64.842 88.0584 64.46C88.2204 64.08 88.6564 63.9 89.0404 64.06L106.29 71.31C106.67 71.47 106.85 71.91 106.69 72.292C106.57 72.578 106.292 72.75 106 72.75Z" fill="#232538"/>
<path d="M106 65C104.143 65 102.363 65.7375 101.05 67.0503C99.7375 68.363 99 70.1435 99 72C99 73.8565 99.7375 75.637 101.05 76.9497C102.363 78.2625 104.143 79 106 79C107.857 79 109.637 78.2625 110.95 76.9497C112.262 75.637 113 73.8565 113 72C113 70.1435 112.262 68.363 110.95 67.0503C109.637 65.7375 107.857 65 106 65Z" fill="#E6484F"/>
<path d="M106 80C101.588 80 98 76.412 98 72C98 67.588 101.588 64 106 64C110.412 64 114 67.588 114 72C114 76.412 110.412 80 106 80ZM106 66C102.692 66 100 68.692 100 72C100 75.308 102.692 78 106 78C109.308 78 112 75.308 112 72C112 68.692 109.308 66 106 66Z" fill="#232538"/>
<path d="M128 126.75C126.608 126.75 125.272 127.303 124.288 128.288C123.303 129.272 122.75 130.608 122.75 132C122.75 133.392 123.303 134.728 124.288 135.712C125.272 136.697 126.608 137.25 128 137.25C129.392 137.25 130.728 136.697 131.712 135.712C132.697 134.728 133.25 133.392 133.25 132C133.25 130.608 132.697 129.272 131.712 128.288C130.728 127.303 129.392 126.75 128 126.75Z" fill="#649ED8"/>
<path d="M128 138C124.692 138 122 135.308 122 132C122 128.692 124.692 126 128 126C131.308 126 134 128.692 134 132C134 135.308 131.308 138 128 138ZM128 127.5C125.52 127.5 123.5 129.518 123.5 132C123.5 134.482 125.52 136.5 128 136.5C130.48 136.5 132.5 134.482 132.5 132C132.5 129.518 130.48 127.5 128 127.5Z" fill="#232538"/>
<path d="M71 88.75C69.8728 88.75 68.7918 89.1978 67.9948 89.9948C67.1978 90.7918 66.75 91.8728 66.75 93C66.75 94.1272 67.1978 95.2082 67.9948 96.0052C68.7918 96.8022 69.8728 97.25 71 97.25C72.1272 97.25 73.2082 96.8022 74.0052 96.0052C74.8022 95.2082 75.25 94.1272 75.25 93C75.25 91.8728 74.8022 90.7918 74.0052 89.9948C73.2082 89.1978 72.1272 88.75 71 88.75Z" fill="#F3646A"/>
<path d="M71 98C68.242 98 66 95.756 66 93C66 90.244 68.242 88 71 88C73.758 88 76 90.244 76 93C76 95.756 73.758 98 71 98ZM71 89.5C69.07 89.5 67.5 91.07 67.5 93C67.5 94.93 69.07 96.5 71 96.5C72.93 96.5 74.5 94.93 74.5 93C74.5 91.07 72.93 89.5 71 89.5Z" fill="#232538"/>
<path d="M143 84.75C141.873 84.75 140.792 85.1978 139.995 85.9948C139.198 86.7918 138.75 87.8728 138.75 89C138.75 90.1272 139.198 91.2082 139.995 92.0052C140.792 92.8022 141.873 93.25 143 93.25C144.127 93.25 145.208 92.8022 146.005 92.0052C146.802 91.2082 147.25 90.1272 147.25 89C147.25 87.8728 146.802 86.7918 146.005 85.9948C145.208 85.1978 144.127 84.75 143 84.75Z" fill="#F3646A"/>
<path d="M143 94C140.242 94 138 91.756 138 89C138 86.244 140.242 84 143 84C145.758 84 148 86.244 148 89C148 91.756 145.758 94 143 94ZM143 85.5C141.07 85.5 139.5 87.07 139.5 89C139.5 90.93 141.07 92.5 143 92.5C144.93 92.5 146.5 90.93 146.5 89C146.5 87.07 144.93 85.5 143 85.5Z" fill="#232538"/>
<path d="M76 114.75C75.3106 114.75 74.6279 114.886 73.9909 115.15C73.354 115.413 72.7752 115.8 72.2877 116.288C71.8002 116.775 71.4135 117.354 71.1496 117.991C70.8858 118.628 70.75 119.311 70.75 120C70.75 120.689 70.8858 121.372 71.1496 122.009C71.4135 122.646 71.8002 123.225 72.2877 123.712C72.7752 124.2 73.354 124.587 73.9909 124.85C74.6279 125.114 75.3106 125.25 76 125.25C76.6894 125.25 77.3721 125.114 78.0091 124.85C78.646 124.587 79.2248 124.2 79.7123 123.712C80.1998 123.225 80.5865 122.646 80.8504 122.009C81.1142 121.372 81.25 120.689 81.25 120C81.25 119.311 81.1142 118.628 80.8504 117.991C80.5865 117.354 80.1998 116.775 79.7123 116.288C79.2248 115.8 78.646 115.413 78.0091 115.15C77.3721 114.886 76.6894 114.75 76 114.75Z" fill="#649ED8"/>
<path d="M76 126C72.692 126 70 123.308 70 120C70 116.692 72.692 114 76 114C79.308 114 82 116.692 82 120C82 123.308 79.308 126 76 126ZM76 115.5C73.52 115.5 71.5 117.518 71.5 120C71.5 122.482 73.52 124.5 76 124.5C78.48 124.5 80.5 122.482 80.5 120C80.5 117.518 78.48 115.5 76 115.5Z" fill="#232538"/>
<path d="M99 132.75C97.8728 132.75 96.7918 133.198 95.9948 133.995C95.1978 134.792 94.75 135.873 94.75 137C94.75 138.127 95.1978 139.208 95.9948 140.005C96.7918 140.802 97.8728 141.25 99 141.25C100.127 141.25 101.208 140.802 102.005 140.005C102.802 139.208 103.25 138.127 103.25 137C103.25 135.873 102.802 134.792 102.005 133.995C101.208 133.198 100.127 132.75 99 132.75Z" fill="#FCC938"/>
<path d="M99 142C96.242 142 94 139.756 94 137C94 134.244 96.242 132 99 132C101.758 132 104 134.244 104 137C104 139.756 101.758 142 99 142ZM99 133.5C97.07 133.5 95.5 135.07 95.5 137C95.5 138.93 97.07 140.5 99 140.5C100.93 140.5 102.5 138.93 102.5 137C102.5 135.07 100.93 133.5 99 133.5Z" fill="#232538"/>
<path d="M140 106.75C138.608 106.75 137.272 107.303 136.288 108.288C135.303 109.272 134.75 110.608 134.75 112C134.75 113.392 135.303 114.728 136.288 115.712C137.272 116.697 138.608 117.25 140 117.25C141.392 117.25 142.728 116.697 143.712 115.712C144.697 114.728 145.25 113.392 145.25 112C145.25 110.608 144.697 109.272 143.712 108.288C142.728 107.303 141.392 106.75 140 106.75Z" fill="#FCC938"/>
<path d="M140 118C136.692 118 134 115.308 134 112C134 108.692 136.692 106 140 106C143.308 106 146 108.692 146 112C146 115.308 143.308 118 140 118ZM140 107.5C137.52 107.5 135.5 109.518 135.5 112C135.5 114.482 137.52 116.5 140 116.5C142.48 116.5 144.5 114.482 144.5 112C144.5 109.518 142.48 107.5 140 107.5Z" fill="#232538"/>
<path d="M73 153C73 153 76.134 153 80 153C83.866 153 87 149.866 87 146C87 142.438 84.33 139.532 80.89 139.09C80.946 138.732 81 138.374 81 138C81 134.134 77.866 131 74 131C71.936 131 70.1 131.91 68.82 133.33C68.052 129.714 64.846 127 61 127C56.582 127 53 130.582 53 135C53 135.382 53.06 135.748 53.112 136.116C52.256 135.428 51.184 135 50 135C47.544 135 45.51 136.774 45.09 139.11C44.732 139.054 44.374 139 44 139C40.134 139 37 142.134 37 146C37 149.866 40.134 153 44 153C47.866 153 59 153 59 153V154H73V153Z" fill="#FAFBFC"/>
<path d="M76.5 144C76.224 144 76 143.776 76 143.5C76 141.054 77.99 139.064 80.436 139.064C80.504 139.082 81.91 139.062 82.924 139.336C83.19 139.408 83.348 139.682 83.276 139.948C83.204 140.216 82.93 140.374 82.664 140.3C81.776 140.06 80.464 140.06 80.438 140.064C78.542 140.064 77 141.606 77 143.5C77 143.776 76.776 144 76.5 144ZM63 152C62.7348 152 62.4804 152.105 62.2929 152.293C62.1054 152.48 62 152.735 62 153C62 153.265 62.1054 153.52 62.2929 153.707C62.4804 153.895 62.7348 154 63 154C63.2652 154 63.5196 153.895 63.7071 153.707C63.8946 153.52 64 153.265 64 153C64 152.735 63.8946 152.48 63.7071 152.293C63.5196 152.105 63.2652 152 63 152Z" fill="#232538"/>
<path d="M80 154H73C72.448 154 72 153.552 72 153C72 152.448 72.448 152 73 152H80C83.308 152 86 149.308 86 146C86 143.008 83.75 140.464 80.764 140.082C80.496 140.046 80.254 139.906 80.092 139.69C79.93 139.474 79.862 139.202 79.904 138.936C79.95 138.628 80 138.32 80 138C80 134.692 77.308 132 74 132C72.3 132 70.724 132.71 69.562 134C69.312 134.278 68.92 134.396 68.562 134.296C68.198 134.198 67.92 133.906 67.842 133.538C67.16 130.33 64.282 128 61 128C57.14 128 54 131.14 54 135C54 135.286 54.042 135.56 54.082 135.836C54.14 136.242 53.956 136.712 53.598 136.916C53.24 137.12 52.806 137.152 52.486 136.896C51.756 136.31 50.898 136 50 136C48.068 136 46.416 137.382 46.074 139.288C45.978 139.822 45.482 140.18 44.936 140.098C44.628 140.05 44.32 140 44 140C40.692 140 38 142.692 38 146C38 149.308 40.692 152 44 152H59C59.552 152 60 152.448 60 153C60 153.552 59.552 154 59 154H44C39.588 154 36 150.412 36 146C36 141.588 39.588 138 44 138C44.118 138 44.232 138.004 44.348 138.012C45.176 135.64 47.422 134 50 134C50.698 134 51.378 134.122 52.022 134.36C52.352 129.694 56.252 126 61 126C64.662 126 67.932 128.254 69.306 131.548C70.666 130.552 72.31 130 74 130C78.412 130 82 133.588 82 138C82 138.096 81.998 138.19 81.992 138.284C85.478 139.18 88 142.338 88 146C88 150.412 84.412 154 80 154Z" fill="#232538"/>
<path d="M69 152C68.682 152 67.318 152 67 152C66.448 152 66 152.448 66 153C66 153.552 66.448 154 67 154C67.318 154 68.682 154 69 154C69.552 154 70 153.552 70 153C70 152.448 69.552 152 69 152Z" fill="#232538"/>
</svg>
