<svg width="200" height="200" viewBox="0 0 200 200" fill="none" xmlns="http://www.w3.org/2000/svg">
<path d="M174.43 113.42C176.7 109.11 178 104.21 178 99C178 85.758 169.682 74.486 157.998 70.044C157.998 70.03 158 70.016 158 70C158 46.804 139.196 28 116 28C96.432 28 80.038 41.402 75.374 59.514C72.422 58.544 69.276 58 66 58C50.616 58 37.954 69.586 36.22 84.504C25.812 86.706 18 95.938 18 107C18 119.702 28.298 130 41 130C41.354 130 41.704 129.976 42.052 129.956C42.044 130.306 42 130.648 42 131C42 153.644 60.356 172 83 172C95.874 172 107.35 166.056 114.868 156.772C119.224 161.222 125.28 164 132 164C141.3 164 149.348 158.7 153.332 150.964C155.436 151.634 157.674 152 160 152C172.15 152 182 142.15 182 130C182 123.378 179.06 117.454 174.43 113.42Z" fill="#FAFBFC"/>
<path d="M71.75 123C71.75 123 79.03 123 84 123C88.97 123 93 118.97 93 114C93 109.334 89.436 105.542 84.89 105.09C84.934 104.728 85 104.374 85 104C85 99.03 80.97 95 76 95C73.124 95 70.594 96.372 68.946 98.472C68.666 93.2 64.342 89 59 89C53.478 89 49 93.478 49 99C49 99.892 49.154 100.74 49.374 101.564C48.09 100.01 46.172 99 44 99C40.438 99 37.532 101.67 37.09 105.11C36.728 105.066 36.374 105 36 105C31.03 105 27 109.03 27 114C27 118.97 31.03 123 36 123C40.97 123 55 123 55 123H65.75V124H71.75V123Z" fill="#FAFBFC"/>
<path d="M59 88C52.934 88 48 92.934 48 99C48 99.032 48 99.062 48 99.094C46.796 98.384 45.42 98 44 98C40.338 98 37.178 100.522 36.284 104.01C36.19 104.004 36.096 104 36 104C30.486 104 26 108.486 26 114C26 119.514 30.486 124 36 124H65.75C66.302 124 66.75 123.552 66.75 123C66.75 122.448 66.302 122 65.75 122H36C31.588 122 28 118.412 28 114C28 109.588 31.588 106 36 106C36.234 106 36.46 106.034 36.686 106.064L36.968 106.102C37.01 106.108 37.05 106.11 37.092 106.11C37.584 106.11 38.016 105.74 38.082 105.236C38.464 102.25 41.008 100 44 100C45.77 100 47.446 100.802 48.602 102.2C48.798 102.436 49.084 102.564 49.374 102.564C49.53 102.564 49.686 102.528 49.83 102.452C50.248 102.238 50.458 101.76 50.338 101.306C50.108 100.436 50 99.704 50 99C50 94.038 54.038 90 59 90C63.762 90 67.694 93.744 67.948 98.526C67.97 98.942 68.248 99.3 68.646 99.426C68.746 99.458 68.848 99.474 68.95 99.474C69.25 99.474 69.542 99.336 69.734 99.09C71.276 97.126 73.558 96 76 96C80.412 96 84 99.588 84 104C84 104.234 83.966 104.46 83.936 104.686L83.898 104.968C83.866 105.236 83.942 105.504 84.11 105.714C84.278 105.924 84.524 106.058 84.79 106.084C88.902 106.494 92 109.898 92 114C92 118.412 88.412 122 84 122H71.75C71.198 122 70.75 122.448 70.75 123C70.75 123.552 71.198 124 71.75 124H84C89.514 124 94 119.514 94 114C94 109.206 90.622 105.174 85.994 104.246C85.998 104.164 86 104.082 86 104C86 98.486 81.514 94 76 94C73.648 94 71.414 94.832 69.634 96.328C68.438 91.52 64.11 88 59 88Z" fill="#232538"/>
<path d="M56.0002 102C53.1942 102 50.7822 103.998 50.1742 106.682C49.4402 106.238 48.6022 106 47.7502 106C45.3462 106 43.3542 107.794 43.0442 110.136C42.6382 110.044 42.2522 110 41.8742 110C38.8162 110 36.2522 112.4 36.0382 115.464C36.0202 115.74 36.2282 115.98 36.5022 116C36.5142 116 36.5262 116 36.5382 116C36.7982 116 37.0182 115.798 37.0362 115.536C37.2142 112.994 39.3382 111 41.8742 111C42.3322 111 42.8142 111.084 43.3502 111.254C43.3942 111.268 43.4402 111.274 43.4842 111.274C43.5942 111.274 43.7042 111.234 43.7962 111.166C43.9242 111.074 44.0002 110.91 44.0002 110.75C44.0002 108.682 45.6822 107 47.7502 107C48.6442 107 49.5202 107.336 50.2122 107.946C50.3062 108.028 50.4242 108.072 50.5422 108.072C50.6062 108.072 50.6682 108.06 50.7282 108.034C50.9042 107.964 51.0242 107.8 51.0382 107.61C51.2462 105.024 53.4242 103 56.0002 103C56.4162 103 56.8502 103.068 57.3642 103.214C57.4102 103.228 57.4582 103.234 57.5042 103.234C57.7222 103.234 57.9182 103.088 57.9822 102.87C58.0582 102.604 57.9042 102.328 57.6382 102.252C57.0342 102.08 56.5122 102 56.0002 102Z" fill="#232538"/>
<path d="M83.7659 105C81.1139 105 78.7499 106.794 78.0179 109.364C77.9419 109.63 78.0959 109.906 78.3619 109.982C78.4099 109.994 78.4559 110 78.4999 110C78.7179 110 78.9179 109.856 78.9799 109.636C79.5899 107.496 81.5579 106 83.7659 106C83.9999 106 84.2259 106.028 84.4499 106.058C84.4739 106.062 84.4959 106.064 84.5199 106.064C84.7619 106.064 84.9779 105.88 85.0119 105.63C85.0499 105.356 84.8579 105.104 84.5839 105.068C84.3159 105.032 84.0439 105 83.7659 105Z" fill="#232538"/>
<path d="M64.81 158H45C44.448 158 44 157.552 44 157C44 156.448 44.448 156 45 156H64.81C65.362 156 65.81 156.448 65.81 157C65.81 157.552 65.364 158 64.81 158Z" fill="#FAFBFC"/>
<path d="M71 158H69C68.448 158 68 157.552 68 157C68 156.448 68.448 156 69 156H71C71.552 156 72 156.448 72 157C72 157.552 71.554 158 71 158Z" fill="#FAFBFC"/>
<path d="M80.982 162H63C62.448 162 62 161.552 62 161C62 160.448 62.448 160 63 160H80.982C81.534 160 81.982 160.448 81.982 161C81.982 161.552 81.534 162 80.982 162Z" fill="#FAFBFC"/>
<path d="M59 162H57C56.448 162 56 161.552 56 161C56 160.448 56.448 160 57 160H59C59.552 160 60 160.448 60 161C60 161.552 59.554 162 59 162Z" fill="#FAFBFC"/>
<path d="M53 162H49C48.448 162 48 161.552 48 161C48 160.448 48.448 160 49 160H53C53.552 160 54 160.448 54 161C54 161.552 53.554 162 53 162Z" fill="#FAFBFC"/>
<path d="M65 166H61C60.448 166 60 165.552 60 165C60 164.448 60.448 164 61 164H65C65.552 164 66 164.448 66 165C66 165.552 65.552 166 65 166Z" fill="#FAFBFC"/>
<path d="M71 148C70.646 148 69.354 148 69 148C68.448 148 68 148.448 68 149C68 149.552 68.448 150 69 150C69.354 150 70.646 150 71 150C71.552 150 72 149.552 72 149C72 148.448 71.552 148 71 148Z" fill="#FAFBFC"/>
<path d="M71 152C70.646 152 61.354 152 61 152C60.448 152 60 152.448 60 153C60 153.552 60.448 154 61 154C61.354 154 70.646 154 71 154C71.552 154 72 153.552 72 153C72 152.448 71.552 152 71 152Z" fill="#FAFBFC"/>
<path d="M81 156C80.646 156 75.354 156 75 156C74.448 156 74 156.448 74 157C74 157.552 74.448 158 75 158C75.354 158 80.646 158 81 158C81.552 158 82 157.552 82 157C82 156.448 81.552 156 81 156Z" fill="#FAFBFC"/>
<path d="M139 40H119C118.448 40 118 39.552 118 39C118 38.448 118.448 38 119 38H139C139.552 38 140 38.448 140 39C140 39.552 139.552 40 139 40Z" fill="#FAFBFC"/>
<path d="M147 40H143C142.448 40 142 39.552 142 39C142 38.448 142.448 38 143 38H147C147.552 38 148 38.448 148 39C148 39.552 147.552 40 147 40Z" fill="#FAFBFC"/>
<path d="M157 44H137C136.448 44 136 43.552 136 43C136 42.448 136.448 42 137 42H157C157.552 42 158 42.448 158 43C158 43.552 157.554 44 157 44Z" fill="#FAFBFC"/>
<path d="M133 44H131C130.448 44 130 43.552 130 43C130 42.448 130.448 42 131 42H133C133.552 42 134 42.448 134 43C134 43.552 133.552 44 133 44Z" fill="#FAFBFC"/>
<path d="M126.75 44H123C122.448 44 122 43.552 122 43C122 42.448 122.448 42 123 42H126.75C127.302 42 127.75 42.448 127.75 43C127.75 43.552 127.302 44 126.75 44Z" fill="#FAFBFC"/>
<path d="M145 36H135C134.448 36 134 35.552 134 35C134 34.448 134.448 34 135 34H145C145.552 34 146 34.448 146 35C146 35.552 145.554 36 145 36Z" fill="#FAFBFC"/>
<path d="M139 48H135C134.448 48 134 47.552 134 47C134 46.448 134.448 46 135 46H139C139.552 46 140 46.448 140 47C140 47.552 139.552 48 139 48Z" fill="#FAFBFC"/>
<path d="M65.33 144.242L124.216 118.766L88.062 82.612L62.586 141.498C61.836 143.232 63.594 144.992 65.33 144.242Z" fill="#EF9922"/>
<path d="M64.146 142.678L105.578 103.854L95.766 94.042L64.146 142.678Z" fill="#FBCD59"/>
<path d="M124.922 118.059C128.436 114.544 123.186 103.596 113.195 93.6045C103.203 83.6135 92.2545 78.3635 88.7398 81.8783C85.2252 85.3931 90.4756 96.3417 100.467 106.333C110.458 116.324 121.407 121.574 124.922 118.059Z" fill="#232538"/>
<path d="M99.3538 93.424C98.8918 92.962 98.6638 92.282 98.8098 91.596C98.8338 91.488 101.052 80.626 96.4978 74.094C94.6558 71.45 91.9818 69.892 88.3358 69.356C87.2418 69.196 86.4858 68.176 86.6478 67.086C86.8098 65.994 87.8258 65.238 88.9178 65.398C93.6538 66.094 97.3118 68.252 99.7898 71.82C105.33 79.784 102.832 91.912 102.722 92.424C102.492 93.504 101.432 94.192 100.352 93.964C99.9598 93.882 99.6178 93.688 99.3538 93.424Z" fill="#E6484F"/>
<path d="M100.772 94.508C100.598 94.508 100.422 94.49 100.248 94.452C99.7761 94.352 99.3421 94.118 99.0001 93.776C98.3981 93.174 98.1441 92.32 98.3221 91.49C98.3441 91.384 100.524 80.742 96.0881 74.38C94.3241 71.848 91.7641 70.366 88.2641 69.852C87.6041 69.756 87.0201 69.408 86.6221 68.87C86.2221 68.334 86.0581 67.674 86.1561 67.014C86.2521 66.354 86.6021 65.772 87.1361 65.372C87.6721 64.974 88.3361 64.808 88.9921 64.904C93.8721 65.62 97.6441 67.85 100.202 71.534C105.87 79.684 103.324 92.008 103.212 92.528C103.076 93.18 102.69 93.74 102.13 94.104C101.718 94.372 101.25 94.508 100.772 94.508ZM88.6241 65.878C88.3041 65.878 87.9941 65.98 87.7341 66.174C87.4121 66.414 87.2021 66.762 87.1441 67.16C87.0861 67.556 87.1861 67.952 87.4261 68.272C87.6641 68.594 88.0141 68.804 88.4101 68.86C92.2001 69.418 94.9801 71.034 96.9101 73.806C101.624 80.57 99.3241 91.588 99.3001 91.698C99.1941 92.194 99.3461 92.706 99.7081 93.068C99.9141 93.274 100.17 93.414 100.456 93.472C100.852 93.556 101.248 93.48 101.584 93.264C101.92 93.046 102.15 92.71 102.234 92.32C102.342 91.816 104.802 79.904 99.3801 72.106C96.9841 68.658 93.4401 66.568 88.8441 65.894C88.7721 65.884 88.6981 65.878 88.6241 65.878Z" fill="#232538"/>
<path d="M113.026 102.626C112.772 102.372 112.584 102.046 112.494 101.672C112.24 100.596 112.908 99.522 113.982 99.268C114.964 99.038 138.15 93.68 148.942 101.028C152.018 103.12 153.844 106.024 154.368 109.65C154.526 110.744 153.768 111.758 152.674 111.916C151.582 112.074 150.566 111.316 150.408 110.224C150.046 107.718 148.826 105.788 146.692 104.338C137.352 97.978 115.122 103.112 114.898 103.164C114.2 103.324 113.498 103.098 113.026 102.626Z" fill="#00A5A5"/>
<path d="M152.382 112.434C151.846 112.434 151.33 112.262 150.892 111.936C150.356 111.536 150.012 110.952 149.916 110.292C149.572 107.932 148.428 106.118 146.412 104.748C137.272 98.52 115.238 103.596 115.014 103.646C114.168 103.848 113.288 103.596 112.672 102.978C112.344 102.65 112.114 102.236 112.008 101.784C111.692 100.444 112.526 99.096 113.868 98.778C114.86 98.544 138.274 93.156 149.224 100.612C152.422 102.786 154.318 105.802 154.864 109.574C154.96 110.236 154.794 110.894 154.394 111.428C153.994 111.964 153.41 112.31 152.75 112.406C152.626 112.424 152.504 112.434 152.382 112.434ZM132.284 100.666C137.764 100.666 143.326 101.434 146.976 103.92C149.236 105.456 150.52 107.494 150.906 110.148C150.964 110.544 151.172 110.896 151.494 111.134C151.814 111.374 152.212 111.472 152.606 111.416C153.004 111.358 153.354 111.15 153.594 110.83C153.834 110.508 153.934 110.114 153.878 109.718C153.372 106.234 151.618 103.448 148.664 101.438C138.078 94.228 115.076 99.522 114.102 99.752C113.296 99.942 112.796 100.752 112.984 101.556C113.048 101.828 113.186 102.076 113.382 102.272C113.754 102.644 114.274 102.794 114.79 102.672C114.926 102.64 123.498 100.666 132.284 100.666Z" fill="#232538"/>
<path d="M64.036 143.244C63.942 143.244 63.848 143.218 63.764 143.164C63.532 143.014 63.466 142.704 63.616 142.472L77.774 120.592C77.926 120.36 78.232 120.294 78.466 120.444C78.698 120.594 78.764 120.904 78.614 121.136L64.456 143.016C64.36 143.164 64.2 143.244 64.036 143.244Z" fill="#232538"/>
<path d="M81.0419 116.96C80.9479 116.96 80.8539 116.934 80.7699 116.88C80.5379 116.73 80.4719 116.42 80.6219 116.188L86.6019 106.946C86.7539 106.714 87.0599 106.648 87.2939 106.798C87.5259 106.948 87.5919 107.258 87.4419 107.49L81.4619 116.732C81.3679 116.878 81.2079 116.96 81.0419 116.96Z" fill="#232538"/>
<path d="M89.8758 103.312C89.7818 103.312 89.6878 103.286 89.6038 103.232C89.3718 103.082 89.3058 102.772 89.4558 102.54L93.7558 95.892C93.9058 95.66 94.2138 95.594 94.4478 95.744C94.6798 95.894 94.7458 96.204 94.5958 96.436L90.2958 103.084C90.1998 103.23 90.0398 103.312 89.8758 103.312Z" fill="#232538"/>
<path d="M88.7301 86.108L120.72 118.098L64.4921 142.418L64.4241 142.292L88.7301 86.108ZM88.0621 82.612L62.5861 141.498C61.9581 142.95 63.0881 144.418 64.4901 144.418C64.7641 144.418 65.0461 144.362 65.3301 144.24L124.216 118.764L88.0621 82.612Z" fill="#232538"/>
<path d="M65.7139 141.742C65.5819 141.742 65.4479 141.688 65.3479 141.584C65.1599 141.382 65.1699 141.066 65.3719 140.878L87.7219 119.92C87.9219 119.732 88.2379 119.74 88.4299 119.942C88.6179 120.144 88.6079 120.46 88.4059 120.648L66.0559 141.606C65.9599 141.696 65.8379 141.742 65.7139 141.742Z" fill="#232538"/>
<path d="M92.168 116.938C92.036 116.938 91.902 116.884 91.802 116.78C91.614 116.578 91.624 116.262 91.826 116.074L102.23 106.318C102.43 106.13 102.746 106.138 102.938 106.34C103.126 106.542 103.116 106.858 102.914 107.046L92.51 116.802C92.414 116.892 92.292 116.938 92.168 116.938Z" fill="#232538"/>
<path d="M113 76C114.657 76 116 74.6569 116 73C116 71.3431 114.657 70 113 70C111.343 70 110 71.3431 110 73C110 74.6569 111.343 76 113 76Z" fill="#83CCB7"/>
<path d="M113 76.5C111.07 76.5 109.5 74.93 109.5 73C109.5 71.07 111.07 69.5 113 69.5C114.93 69.5 116.5 71.07 116.5 73C116.5 74.93 114.93 76.5 113 76.5ZM113 70.5C111.622 70.5 110.5 71.622 110.5 73C110.5 74.378 111.622 75.5 113 75.5C114.378 75.5 115.5 74.378 115.5 73C115.5 71.622 114.378 70.5 113 70.5Z" fill="#232538"/>
<path d="M122 60C124.209 60 126 58.2091 126 56C126 53.7909 124.209 52 122 52C119.791 52 118 53.7909 118 56C118 58.2091 119.791 60 122 60Z" fill="#E6484F"/>
<path d="M122 60.5C119.52 60.5 117.5 58.482 117.5 56C117.5 53.518 119.52 51.5 122 51.5C124.48 51.5 126.5 53.518 126.5 56C126.5 58.482 124.48 60.5 122 60.5ZM122 52.5C120.07 52.5 118.5 54.07 118.5 56C118.5 57.93 120.07 59.5 122 59.5C123.93 59.5 125.5 57.93 125.5 56C125.5 54.07 123.93 52.5 122 52.5Z" fill="#232538"/>
<path d="M143 90C144.657 90 146 88.6569 146 87C146 85.3431 144.657 84 143 84C141.343 84 140 85.3431 140 87C140 88.6569 141.343 90 143 90Z" fill="#E6484F"/>
<path d="M143 90.5C141.07 90.5 139.5 88.93 139.5 87C139.5 85.07 141.07 83.5 143 83.5C144.93 83.5 146.5 85.07 146.5 87C146.5 88.93 144.93 90.5 143 90.5ZM143 84.5C141.622 84.5 140.5 85.622 140.5 87C140.5 88.378 141.622 89.5 143 89.5C144.378 89.5 145.5 88.378 145.5 87C145.5 85.622 144.378 84.5 143 84.5Z" fill="#232538"/>
<path d="M158 96C160.209 96 162 94.2091 162 92C162 89.7909 160.209 88 158 88C155.791 88 154 89.7909 154 92C154 94.2091 155.791 96 158 96Z" fill="#88AE45"/>
<path d="M158 96.5C155.52 96.5 153.5 94.482 153.5 92C153.5 89.518 155.52 87.5 158 87.5C160.48 87.5 162.5 89.518 162.5 92C162.5 94.482 160.48 96.5 158 96.5ZM158 88.5C156.07 88.5 154.5 90.07 154.5 92C154.5 93.93 156.07 95.5 158 95.5C159.93 95.5 161.5 93.93 161.5 92C161.5 90.07 159.93 88.5 158 88.5Z" fill="#232538"/>
<path d="M137 115C139.209 115 141 113.209 141 111C141 108.791 139.209 107 137 107C134.791 107 133 108.791 133 111C133 113.209 134.791 115 137 115Z" fill="#FFCE00"/>
<path d="M137 115.5C134.52 115.5 132.5 113.482 132.5 111C132.5 108.518 134.52 106.5 137 106.5C139.48 106.5 141.5 108.518 141.5 111C141.5 113.482 139.48 115.5 137 115.5ZM137 107.5C135.07 107.5 133.5 109.07 133.5 111C133.5 112.93 135.07 114.5 137 114.5C138.93 114.5 140.5 112.93 140.5 111C140.5 109.07 138.93 107.5 137 107.5Z" fill="#232538"/>
<path d="M164 126C166.209 126 168 124.209 168 122C168 119.791 166.209 118 164 118C161.791 118 160 119.791 160 122C160 124.209 161.791 126 164 126Z" fill="#78A0CF"/>
<path d="M164 126.5C161.52 126.5 159.5 124.482 159.5 122C159.5 119.518 161.52 117.5 164 117.5C166.48 117.5 168.5 119.518 168.5 122C168.5 124.482 166.48 126.5 164 126.5ZM164 118.5C162.07 118.5 160.5 120.07 160.5 122C160.5 123.93 162.07 125.5 164 125.5C165.93 125.5 167.5 123.93 167.5 122C167.5 120.07 165.93 118.5 164 118.5Z" fill="#232538"/>
<path d="M104 54C106.209 54 108 52.2091 108 50C108 47.7909 106.209 46 104 46C101.791 46 100 47.7909 100 50C100 52.2091 101.791 54 104 54Z" fill="#78A0CF"/>
<path d="M104 54.5C101.52 54.5 99.5 52.482 99.5 50C99.5 47.518 101.52 45.5 104 45.5C106.48 45.5 108.5 47.518 108.5 50C108.5 52.482 106.48 54.5 104 54.5ZM104 46.5C102.07 46.5 100.5 48.07 100.5 50C100.5 51.93 102.07 53.5 104 53.5C105.93 53.5 107.5 51.93 107.5 50C107.5 48.07 105.93 46.5 104 46.5Z" fill="#232538"/>
<path d="M60 81C62.7614 81 65 78.7614 65 76C65 73.2386 62.7614 71 60 71C57.2386 71 55 73.2386 55 76C55 78.7614 57.2386 81 60 81Z" fill="#FFCE00"/>
<path d="M60 81.5C56.966 81.5 54.5 79.032 54.5 76C54.5 72.968 56.966 70.5 60 70.5C63.034 70.5 65.5 72.968 65.5 76C65.5 79.032 63.034 81.5 60 81.5ZM60 71.5C57.52 71.5 55.5 73.518 55.5 76C55.5 78.482 57.52 80.5 60 80.5C62.48 80.5 64.5 78.482 64.5 76C64.5 73.518 62.48 71.5 60 71.5Z" fill="#232538"/>
<path d="M113.13 88.138C112.746 87.754 112.52 87.216 112.546 86.63C112.598 85.526 113.534 84.674 114.638 84.726C124.938 85.21 128.52 83.388 129.71 81.774C130.558 80.626 130.57 78.958 129.75 76.676C128.44 73.036 129.214 70.604 130.092 69.202C131.496 66.964 134.014 65.956 135.904 65.76C136.416 65.706 136.986 65.686 137.588 65.668C139.254 65.614 140.978 65.562 141.8 64.618C142.484 63.832 142.722 62.256 142.49 60.064C142.108 56.474 143.464 54.304 144.668 53.116C148.244 49.586 154.61 50.24 155.324 50.326C156.42 50.456 157.202 51.454 157.07 52.55C156.938 53.646 155.944 54.426 154.85 54.298C153.432 54.132 149.344 54.114 147.472 55.97C146.622 56.812 146.294 58.012 146.466 59.642C146.832 63.066 146.292 65.554 144.816 67.248C142.848 69.506 139.882 69.6 137.714 69.668C137.216 69.682 136.744 69.696 136.32 69.74C135.412 69.836 134.124 70.31 133.48 71.33C132.888 72.272 132.9 73.616 133.514 75.322C134.804 78.906 134.608 81.876 132.928 84.15C130.316 87.686 124.272 89.182 114.45 88.72C113.934 88.698 113.47 88.478 113.13 88.138Z" fill="#FFCE00"/>
<path d="M139.522 66.052C139.272 66.052 139.058 65.866 139.026 65.612C138.992 65.338 139.188 65.088 139.462 65.056C140.452 64.934 141.076 64.692 141.424 64.292C142.006 63.624 142.208 62.14 141.992 60.12C141.964 59.846 142.162 59.6 142.438 59.57C142.724 59.544 142.96 59.74 142.988 60.014C143.238 62.382 142.966 64.042 142.178 64.948C141.494 65.734 140.37 65.952 139.582 66.048C139.56 66.05 139.542 66.052 139.522 66.052Z" fill="#232538"/>
<path d="M117.74 89.302C116.686 89.302 115.582 89.274 114.428 89.22C113.804 89.192 113.22 88.932 112.778 88.49C112.282 87.994 112.014 87.308 112.048 86.606C112.082 85.938 112.37 85.324 112.862 84.874C113.358 84.424 114.002 84.192 114.662 84.226C125.262 84.724 128.392 82.718 129.308 81.476C130.05 80.472 130.04 78.956 129.28 76.844C127.902 73.016 128.732 70.43 129.668 68.936C131.166 66.546 133.844 65.472 135.85 65.262C136.13 65.234 136.372 65.432 136.4 65.708C136.428 65.982 136.228 66.228 135.954 66.256C134.18 66.442 131.822 67.382 130.514 69.466C129.694 70.772 128.976 73.054 130.22 76.504C131.1 78.954 131.066 80.774 130.11 82.068C128.272 84.558 123.066 85.622 114.612 85.222C113.778 85.174 113.082 85.824 113.044 86.65C113.024 87.07 113.182 87.484 113.482 87.78C113.748 88.046 114.1 88.2 114.472 88.218C124.12 88.674 130.018 87.242 132.522 83.85C132.686 83.628 133 83.582 133.222 83.744C133.444 83.908 133.492 84.222 133.328 84.444C130.926 87.704 125.81 89.302 117.74 89.302Z" fill="#232538"/>
<path d="M134.336 80.728C134.326 80.728 134.314 80.728 134.302 80.728C134.026 80.71 133.818 80.472 133.838 80.196C133.93 78.794 133.664 77.212 133.046 75.492C132.376 73.634 132.38 72.144 133.058 71.064C133.796 69.892 135.25 69.35 136.268 69.242C136.69 69.198 137.154 69.184 137.646 69.17C139.772 69.104 142.612 69.014 144.438 66.92C145.816 65.338 146.316 62.974 145.968 59.696C145.78 57.906 146.156 56.572 147.12 55.616C149.546 53.208 154.856 53.796 154.91 53.802C155.716 53.896 156.474 53.312 156.574 52.492C156.622 52.092 156.512 51.7 156.264 51.384C156.018 51.07 155.664 50.87 155.268 50.824C154.576 50.74 148.432 50.106 145.02 53.474C144.24 54.242 143.67 55.17 143.322 56.232C143.238 56.494 142.962 56.64 142.692 56.552C142.43 56.466 142.288 56.184 142.374 55.922C142.77 54.708 143.424 53.644 144.318 52.764C148.062 49.07 154.648 49.744 155.388 49.832C156.048 49.91 156.64 50.242 157.052 50.768C157.464 51.294 157.648 51.95 157.568 52.614C157.406 53.98 156.164 54.958 154.794 54.798C153.534 54.65 149.552 54.616 147.826 56.328C147.092 57.056 146.81 58.122 146.966 59.592C147.346 63.162 146.766 65.776 145.194 67.578C143.08 70.002 139.988 70.098 137.732 70.17C137.212 70.186 136.772 70.198 136.372 70.24C135.512 70.33 134.416 70.786 133.906 71.6C133.4 72.406 133.428 73.602 133.988 75.156C134.652 77.006 134.94 78.724 134.836 80.264C134.816 80.524 134.598 80.728 134.336 80.728Z" fill="#232538"/>
<path d="M73.5281 87.79C73.4421 87.704 73.3641 87.61 73.2921 87.504C72.6681 86.592 72.9001 85.348 73.8101 84.724C80.6621 80.028 80.5741 78.034 80.5421 77.824C80.5121 77.636 80.2361 76.98 77.8941 76.268C75.7601 75.618 73.2681 74.08 72.6761 71.71C72.4441 70.782 72.3381 68.94 74.2321 67.046C74.6601 66.618 75.1101 66.214 75.5461 65.828C76.1341 65.304 77.1201 64.426 77.1781 64.08C77.1761 64.078 77.0741 63.328 74.5381 61.638C72.0861 60.004 71.5221 57.992 71.4801 56.594C71.3381 51.812 77.0861 47.326 77.7421 46.83C78.6221 46.162 79.8741 46.34 80.5421 47.218C81.2081 48.096 81.0361 49.352 80.1561 50.018C78.6021 51.2 75.4141 54.332 75.4801 56.476C75.4941 56.906 75.6401 57.564 76.7581 58.308C79.6841 60.258 81.0441 61.956 81.1701 63.812C81.3261 66.04 79.6701 67.514 78.2061 68.814C77.8281 69.15 77.4361 69.5 77.0621 69.872C76.7841 70.15 76.5041 70.524 76.5581 70.738C76.6601 71.16 77.5921 71.992 79.0601 72.438C80.2801 72.808 83.9941 73.942 84.4961 77.212C84.9741 80.32 82.2981 83.756 76.0721 88.022C75.2641 88.578 74.1961 88.458 73.5281 87.79Z" fill="#88AE45"/>
<path d="M77.1782 64.58C76.9522 64.58 76.7482 64.426 76.6922 64.2C76.6702 64.144 76.3582 63.454 74.2602 62.056C71.6322 60.304 71.0262 58.128 70.9802 56.61C70.9722 56.334 71.1882 56.104 71.4642 56.096C71.4702 56.096 71.4762 56.096 71.4802 56.096C71.7502 56.096 71.9722 56.31 71.9802 56.582C72.0182 57.864 72.5402 59.708 74.8142 61.224C77.2002 62.816 77.6042 63.68 77.6662 63.978C77.7222 64.248 77.5502 64.514 77.2822 64.57C77.2462 64.576 77.2102 64.58 77.1782 64.58Z" fill="#232538"/>
<path d="M74.9422 88.876C74.2982 88.876 73.6562 88.628 73.1742 88.144C73.0662 88.038 72.9682 87.918 72.8802 87.788C72.1002 86.652 72.3902 85.092 73.5262 84.312C80.0982 79.81 80.0502 77.93 80.0482 77.894C80.0422 77.894 79.8042 77.37 77.7502 76.746C75.4842 76.056 72.8362 74.404 72.1942 71.832C71.9362 70.802 71.8122 68.764 73.8822 66.694C74.3182 66.258 74.7742 65.848 75.2202 65.456C75.4262 65.272 75.7422 65.294 75.9262 65.5C76.1082 65.708 76.0882 66.022 75.8822 66.206C75.4522 66.586 75.0102 66.98 74.5902 67.402C72.8702 69.124 72.9602 70.766 73.1642 71.592C73.7062 73.76 76.0402 75.182 78.0442 75.792C79.9182 76.362 80.9242 77.022 81.0382 77.75C81.1262 78.308 80.8842 80.488 74.0942 85.14C73.4122 85.608 73.2382 86.544 73.7062 87.226C73.7602 87.304 73.8202 87.376 73.8842 87.44C74.3942 87.95 75.1962 88.024 75.7922 87.616C79.2082 85.276 81.4982 83.226 82.7942 81.35C82.9542 81.124 83.2602 81.066 83.4922 81.224C83.7182 81.382 83.7762 81.692 83.6182 81.92C82.2482 83.896 79.8762 86.03 76.3582 88.44C75.9262 88.73 75.4322 88.876 74.9422 88.876Z" fill="#232538"/>
<path d="M84.4944 77.714C84.2504 77.714 84.0364 77.538 84.0004 77.29C83.5444 74.328 80.0584 73.266 78.9124 72.918C77.4724 72.48 76.2524 71.596 76.0704 70.858C75.9764 70.486 76.1904 70.034 76.7064 69.52C77.0864 69.14 77.4864 68.784 77.8724 68.442C79.3164 67.16 80.8084 65.834 80.6684 63.848C80.5504 62.16 79.2604 60.58 76.4764 58.726C75.4944 58.072 75.0044 57.342 74.9764 56.494C74.8984 53.966 78.5604 50.6 79.8504 49.622C80.1704 49.38 80.3764 49.028 80.4304 48.63C80.4844 48.234 80.3844 47.84 80.1404 47.522C79.6424 46.862 78.6964 46.732 78.0424 47.23C77.7504 47.45 75.1524 49.45 73.4564 52.09C73.3104 52.324 72.9984 52.388 72.7664 52.24C72.5344 52.09 72.4664 51.782 72.6164 51.55C74.3664 48.822 76.9404 46.808 77.4384 46.432C78.5304 45.598 80.1024 45.82 80.9364 46.916C81.3384 47.448 81.5104 48.104 81.4204 48.766C81.3284 49.428 80.9844 50.014 80.4544 50.416C78.6164 51.812 75.9204 54.7 75.9764 56.46C75.9824 56.664 76.0004 57.204 77.0304 57.892C80.0964 59.934 81.5244 61.75 81.6624 63.778C81.8364 66.252 80.0064 67.88 78.5344 69.188C78.1624 69.518 77.7764 69.86 77.4104 70.226C77.1644 70.472 77.0564 70.66 77.0424 70.712C77.1084 70.832 77.8584 71.552 79.1984 71.96C80.4924 72.354 84.4324 73.554 84.9844 77.138C85.0264 77.41 84.8404 77.666 84.5664 77.708C84.5444 77.712 84.5204 77.714 84.4944 77.714Z" fill="#232538"/>
<path d="M125.57 132.43C124.652 130.422 124.352 127.5 124.678 123.692C124.772 122.59 125.74 121.774 126.84 121.868C127.94 121.962 128.756 122.928 128.662 124.03C128.202 129.41 129.268 131.324 129.894 131.59C130.548 131.866 132.436 131.23 134.952 128.336C138.27 124.514 141.064 124.456 142.822 125.08C145.546 126.042 146.856 129.03 146.918 130.844C146.93 131.176 146.896 131.72 146.846 132.392C146.494 137.094 147.068 138.138 147.438 138.348C147.448 138.354 148.486 138.88 152.084 136.292C155.968 133.5 159.278 132.764 161.926 134.108C166.338 136.348 166.514 143.324 166.518 144.112C166.526 145.216 165.638 146.114 164.536 146.124C163.432 146.132 162.532 145.248 162.52 144.144C162.5 142.418 161.888 138.568 160.112 137.672C158.938 137.078 156.916 137.74 154.42 139.538C150.578 142.302 147.654 143.052 145.482 141.836C142.264 140.032 142.634 135.06 142.856 132.092C142.892 131.608 142.928 131.216 142.92 130.976C142.9 130.398 142.294 129.134 141.484 128.846C140.68 128.56 139.366 129.348 137.97 130.954C134.53 134.91 131.108 136.442 128.334 135.268C127.124 134.762 126.202 133.81 125.57 132.43Z" fill="#E6484F"/>
<path d="M145.482 142.34C145.398 142.34 145.314 142.32 145.238 142.276C141.74 140.314 142.126 135.146 142.36 132.06L142.378 131.806C142.406 131.462 142.426 131.182 142.42 130.998C142.406 130.57 141.886 129.524 141.318 129.324C140.852 129.156 139.732 129.696 138.348 131.29C134.754 135.424 131.132 137 128.14 135.736C126.816 135.176 125.798 134.134 125.114 132.64C124.16 130.554 123.846 127.53 124.178 123.652C124.234 122.986 124.548 122.382 125.056 121.952C125.568 121.522 126.214 121.314 126.88 121.372C128.254 121.49 129.274 122.702 129.158 124.076C128.702 129.416 129.778 131.002 130.09 131.134C130.426 131.282 132.14 130.812 134.574 128.012C134.754 127.802 135.07 127.784 135.28 127.962C135.488 128.144 135.51 128.46 135.328 128.668C132.794 131.58 130.686 132.468 129.7 132.054C128.71 131.634 127.712 129.27 128.162 123.99C128.232 123.166 127.62 122.438 126.794 122.368C126.416 122.34 126.008 122.456 125.7 122.716C125.394 122.974 125.206 123.336 125.172 123.736C124.856 127.44 125.14 130.296 126.022 132.224C126.598 133.484 127.44 134.356 128.528 134.816C131.082 135.9 134.304 134.414 137.59 130.634C139.174 128.814 140.614 128.018 141.65 128.382C142.672 128.744 143.388 130.176 143.416 130.966C143.422 131.174 143.4 131.492 143.372 131.882L143.352 132.134C143.14 134.986 142.782 139.754 145.724 141.404C145.966 141.54 146.05 141.844 145.916 142.084C145.826 142.25 145.656 142.34 145.482 142.34Z" fill="#232538"/>
<path d="M164.524 146.626C163.156 146.626 162.038 145.52 162.02 144.152C162 142.414 161.354 138.862 159.888 138.12C158.896 137.622 157.012 138.29 154.714 139.946C152.524 141.52 150.654 142.444 148.992 142.77C148.726 142.824 148.458 142.646 148.406 142.376C148.354 142.106 148.53 141.842 148.8 141.788C150.296 141.494 152.09 140.6 154.13 139.134C156.822 137.194 158.976 136.536 160.338 137.226C162.476 138.306 163.006 142.688 163.022 144.138C163.032 144.96 163.706 145.624 164.524 145.624C164.528 145.624 164.532 145.624 164.536 145.624C165.36 145.616 166.028 144.94 166.022 144.116C166.018 143.36 165.866 136.666 161.702 134.554C160.076 133.726 158.142 133.762 155.954 134.652C155.692 134.756 155.404 134.632 155.302 134.378C155.198 134.122 155.32 133.83 155.576 133.726C158.046 132.72 160.26 132.698 162.156 133.662C166.848 136.042 167.02 143.29 167.024 144.11C167.034 145.484 165.922 146.612 164.546 146.624C164.536 146.626 164.53 146.626 164.524 146.626Z" fill="#232538"/>
<path d="M147.742 138.898C147.466 138.898 147.3 138.842 147.212 138.798C146.644 138.476 145.964 137.474 146.346 132.358C146.388 131.806 146.428 131.196 146.416 130.866C146.362 129.192 145.156 126.44 142.654 125.556C141.204 125.042 139.678 125.262 138.108 126.22C137.882 126.364 137.566 126.29 137.422 126.054C137.278 125.818 137.352 125.51 137.588 125.366C139.874 123.97 141.784 124.186 142.988 124.614C145.934 125.656 147.35 128.878 147.416 130.832C147.43 131.21 147.388 131.826 147.342 132.434C146.98 137.272 147.634 137.88 147.684 137.918C147.686 137.918 147.696 137.918 147.718 137.918C147.922 137.918 149.044 137.868 151.792 135.892C152.01 135.732 152.328 135.78 152.49 136.006C152.65 136.23 152.6 136.542 152.374 136.704C149.822 138.538 148.438 138.898 147.742 138.898Z" fill="#232538"/>
<path d="M121 161C121 161 124.134 161 128 161C131.866 161 135 157.866 135 154C135 150.438 132.33 147.532 128.89 147.09C128.946 146.732 129 146.374 129 146C129 142.134 125.866 139 122 139C119.936 139 118.1 139.91 116.82 141.33C116.052 137.714 112.846 135 109 135C104.582 135 101 138.582 101 143C101 143.382 101.06 143.748 101.112 144.116C100.256 143.428 99.184 143 98 143C95.544 143 93.51 144.774 93.09 147.11C92.732 147.054 92.374 147 92 147C88.134 147 85 150.134 85 154C85 157.866 88.134 161 92 161C95.866 161 107 161 107 161V162H121V161Z" fill="#FAFBFC"/>
<path d="M124.5 152C124.224 152 124 151.776 124 151.5C124 149.054 125.99 147.064 128.436 147.064C128.504 147.082 129.91 147.062 130.924 147.336C131.19 147.408 131.348 147.682 131.276 147.948C131.204 148.216 130.93 148.374 130.664 148.3C129.776 148.06 128.464 148.06 128.438 148.064C126.542 148.064 125 149.606 125 151.5C125 151.776 124.776 152 124.5 152Z" fill="#232538"/>
<path d="M111 162C111.552 162 112 161.552 112 161C112 160.448 111.552 160 111 160C110.448 160 110 160.448 110 161C110 161.552 110.448 162 111 162Z" fill="#232538"/>
<path d="M128 162H121C120.448 162 120 161.552 120 161C120 160.448 120.448 160 121 160H128C131.308 160 134 157.308 134 154C134 151.008 131.75 148.464 128.764 148.082C128.496 148.046 128.254 147.906 128.092 147.69C127.93 147.474 127.862 147.202 127.904 146.936C127.95 146.628 128 146.32 128 146C128 142.692 125.308 140 122 140C120.3 140 118.724 140.71 117.562 142C117.312 142.278 116.92 142.396 116.562 142.296C116.198 142.198 115.92 141.906 115.842 141.538C115.16 138.33 112.282 136 109 136C105.14 136 102 139.14 102 143C102 143.286 102.042 143.56 102.082 143.836C102.14 144.242 101.956 144.712 101.598 144.916C101.24 145.12 100.806 145.152 100.486 144.896C99.756 144.31 98.898 144 98 144C96.068 144 94.416 145.382 94.074 147.288C93.978 147.822 93.482 148.18 92.936 148.098C92.628 148.05 92.32 148 92 148C88.692 148 86 150.692 86 154C86 157.308 88.692 160 92 160H107C107.552 160 108 160.448 108 161C108 161.552 107.552 162 107 162H92C87.588 162 84 158.412 84 154C84 149.588 87.588 146 92 146C92.118 146 92.232 146.004 92.348 146.012C93.176 143.64 95.422 142 98 142C98.698 142 99.378 142.122 100.022 142.36C100.352 137.694 104.252 134 109 134C112.662 134 115.932 136.254 117.306 139.548C118.666 138.552 120.31 138 122 138C126.412 138 130 141.588 130 146C130 146.096 129.998 146.19 129.992 146.284C133.478 147.18 136 150.338 136 154C136 158.412 132.412 162 128 162Z" fill="#232538"/>
<path d="M117 160C116.682 160 115.318 160 115 160C114.448 160 114 160.448 114 161C114 161.552 114.448 162 115 162C115.318 162 116.682 162 117 162C117.552 162 118 161.552 118 161C118 160.448 117.552 160 117 160Z" fill="#232538"/>
</svg>
