<svg width="200" height="200" viewBox="0 0 200 200" fill="none" xmlns="http://www.w3.org/2000/svg">
<path d="M174.43 113.42C176.7 109.11 178 104.21 178 99C178 85.758 169.682 74.486 157.998 70.044C157.998 70.03 158 70.016 158 70C158 46.804 139.196 28 116 28C96.432 28 80.038 41.402 75.374 59.514C72.422 58.544 69.276 58 66 58C50.616 58 37.954 69.586 36.22 84.504C25.812 86.706 18 95.938 18 107C18 119.702 28.298 130 41 130C41.354 130 41.704 129.976 42.052 129.956C42.044 130.306 42 130.648 42 131C42 153.644 60.356 172 83 172C95.874 172 107.35 166.056 114.868 156.772C119.224 161.222 125.28 164 132 164C141.3 164 149.348 158.7 153.332 150.964C155.436 151.634 157.674 152 160 152C172.15 152 182 142.15 182 130C182 123.378 179.06 117.454 174.43 113.42Z" fill="#FAFBFC"/>
<path d="M164.81 88H145C144.448 88 144 87.552 144 87C144 86.448 144.448 86 145 86H164.81C165.362 86 165.81 86.448 165.81 87C165.81 87.552 165.364 88 164.81 88ZM177 88H169C168.448 88 168 87.552 168 87C168 86.448 168.448 86 169 86H177C177.552 86 178 86.448 178 87C178 87.552 177.554 88 177 88ZM180.982 92H163C162.448 92 162 91.552 162 91C162 90.448 162.448 90 163 90H180.982C181.534 90 181.982 90.448 181.982 91C181.982 91.552 181.534 92 180.982 92ZM159 92H157C156.448 92 156 91.552 156 91C156 90.448 156.448 90 157 90H159C159.552 90 160 90.448 160 91C160 91.552 159.554 92 159 92ZM153 92H149C148.448 92 148 91.552 148 91C148 90.448 148.448 90 149 90H153C153.552 90 154 90.448 154 91C154 91.552 153.554 92 153 92ZM165 96H161C160.448 96 160 95.552 160 95C160 94.448 160.448 94 161 94H165C165.552 94 166 94.448 166 95C166 95.552 165.552 96 165 96ZM163 78C162.646 78 159.354 78 159 78C158.448 78 158 78.448 158 79C158 79.552 158.448 80 159 80C159.354 80 162.646 80 163 80C163.552 80 164 79.552 164 79C164 78.448 163.552 78 163 78ZM169 82C168.646 82 161.354 82 161 82C160.448 82 160 82.448 160 83C160 83.552 160.448 84 161 84C161.354 84 168.646 84 169 84C169.552 84 170 83.552 170 83C170 82.448 169.552 82 169 82ZM157 82C156.646 82 147.354 82 147 82C146.448 82 146 82.448 146 83C146 83.552 146.448 84 147 84C147.354 84 156.646 84 157 84C157.552 84 158 83.552 158 83C158 82.448 157.552 82 157 82Z" fill="#FAFBFC"/>
<path d="M59 141V142H67V141C70.756 141 75.368 141 78 141C82.97 141 87 136.97 87 132C87 127.334 83.436 123.542 78.89 123.09C78.934 122.728 79 122.374 79 122C79 117.03 74.97 113 70 113C67.124 113 64.594 114.372 62.946 116.472C62.666 111.2 58.342 107 53 107C47.478 107 43 111.478 43 117C43 117.892 43.154 118.74 43.374 119.564C42.09 118.01 40.172 117 38 117C34.438 117 31.532 119.67 31.09 123.11C30.728 123.066 30.374 123 30 123C25.03 123 21 127.03 21 132C21 136.97 25.03 141 30 141C34.97 141 49 141 49 141H59Z" fill="#FAFBFC"/>
<path d="M50.0002 120C47.1942 120 44.7822 121.998 44.1742 124.682C43.4402 124.238 42.6022 124 41.7502 124C39.3462 124 37.3542 125.794 37.0442 128.136C36.6382 128.044 36.2522 128 35.8742 128C32.8162 128 30.2522 130.4 30.0382 133.464C30.0202 133.74 30.2282 133.98 30.5022 134C30.5142 134 30.5262 134 30.5382 134C30.7982 134 31.0182 133.798 31.0362 133.536C31.2142 130.994 33.3382 129 35.8742 129C36.3322 129 36.8142 129.084 37.3502 129.254C37.3942 129.268 37.4402 129.274 37.4842 129.274C37.5942 129.274 37.7042 129.234 37.7962 129.166C37.9242 129.074 38.0002 128.91 38.0002 128.75C38.0002 126.682 39.6822 125 41.7502 125C42.6442 125 43.5202 125.336 44.2122 125.946C44.3062 126.028 44.4242 126.072 44.5422 126.072C44.6062 126.072 44.6682 126.06 44.7282 126.034C44.9042 125.964 45.0242 125.8 45.0382 125.61C45.2462 123.024 47.4242 121 50.0002 121C50.4162 121 50.8502 121.068 51.3642 121.214C51.4102 121.228 51.4582 121.234 51.5042 121.234C51.7222 121.234 51.9182 121.088 51.9822 120.87C52.0582 120.604 51.9042 120.328 51.6382 120.252C51.0342 120.08 50.5122 120 50.0002 120Z" fill="#232538"/>
<path d="M79.994 122.246C79.998 122.164 80 122.082 80 122C80 116.486 75.514 112 70 112C67.648 112 65.414 112.832 63.634 114.328C62.438 109.52 58.11 106 53 106C46.934 106 42 110.934 42 117C42 117.032 42 117.062 42 117.094C40.796 116.384 39.42 116 38 116C34.338 116 31.178 118.522 30.284 122.01C30.19 122.004 30.096 122 30 122C24.486 122 20 126.486 20 132C20 137.514 24.486 142 30 142H59C59.552 142 60 141.552 60 141C60 140.448 59.552 140 59 140H30C25.588 140 22 136.412 22 132C22 127.588 25.588 124 30 124C30.234 124 30.46 124.034 30.686 124.064L30.968 124.102C31.01 124.108 31.05 124.11 31.092 124.11C31.584 124.11 32.016 123.74 32.082 123.236C32.464 120.25 35.008 118 38 118C39.77 118 41.446 118.802 42.602 120.2C42.798 120.436 43.084 120.564 43.374 120.564C43.528 120.564 43.686 120.528 43.83 120.452C43.894 120.418 43.944 120.37 43.998 120.324C43.998 120.324 43.998 117.322 43.998 117C43.998 112.038 48.036 108 52.998 108C57.76 108 61.692 111.744 61.946 116.526C61.968 116.942 62.246 117.3 62.644 117.426C62.744 117.458 62.846 117.474 62.948 117.474C63.248 117.474 63.54 117.336 63.732 117.09C65.276 115.126 67.558 114 70 114C74.412 114 78 117.588 78 122C78 122.234 77.966 122.46 77.936 122.686L77.898 122.968C77.866 123.236 77.942 123.504 78.11 123.714C78.278 123.924 78.524 124.058 78.79 124.084C82.902 124.494 86 127.898 86 132C86 136.412 82.412 140 78 140H67C66.448 140 66 140.448 66 141C66 141.552 66.448 142 67 142H78C83.514 142 88 137.514 88 132C88 127.206 84.622 123.174 79.994 122.246Z" fill="#232538"/>
<path d="M166.996 129C166.996 129 170.13 129 173.996 129C177.862 129 180.996 125.866 180.996 122C180.996 118.438 178.326 115.532 174.886 115.09C174.942 114.732 174.996 114.374 174.996 114C174.996 110.134 171.862 107 167.996 107C165.932 107 164.096 107.91 162.816 109.33C162.048 105.714 158.842 103 154.996 103C150.578 103 146.996 106.582 146.996 111C146.996 111.382 147.056 111.748 147.108 112.116C146.252 111.428 145.178 111 143.996 111C141.54 111 139.506 112.774 139.086 115.11C138.728 115.054 138.37 115 137.996 115C134.13 115 130.996 118.134 130.996 122C130.996 125.866 134.13 129 137.996 129C141.862 129 152.996 129 152.996 129V130H166.996V129Z" fill="#FAFBFC"/>
<path d="M170.496 120C170.22 120 169.996 119.776 169.996 119.5C169.996 117.054 171.986 115.064 174.432 115.064C174.5 115.082 175.906 115.062 176.92 115.336C177.186 115.408 177.344 115.682 177.272 115.948C177.2 116.216 176.926 116.374 176.66 116.3C175.772 116.06 174.46 116.06 174.434 116.064C172.538 116.064 170.996 117.606 170.996 119.5C170.996 119.776 170.772 120 170.496 120ZM156.996 128C156.731 128 156.477 128.105 156.289 128.293C156.101 128.48 155.996 128.735 155.996 129C155.996 129.265 156.101 129.52 156.289 129.707C156.477 129.895 156.731 130 156.996 130C157.261 130 157.516 129.895 157.703 129.707C157.891 129.52 157.996 129.265 157.996 129C157.996 128.735 157.891 128.48 157.703 128.293C157.516 128.105 157.261 128 156.996 128Z" fill="#232538"/>
<path d="M173.996 130H166.996C166.444 130 165.996 129.552 165.996 129C165.996 128.448 166.444 128 166.996 128H173.996C177.304 128 179.996 125.308 179.996 122C179.996 119.008 177.746 116.464 174.76 116.082C174.492 116.046 174.25 115.906 174.088 115.69C173.926 115.474 173.858 115.202 173.9 114.936C173.946 114.628 173.996 114.32 173.996 114C173.996 110.692 171.304 108 167.996 108C166.296 108 164.72 108.71 163.558 110C163.308 110.278 162.916 110.396 162.558 110.296C162.194 110.198 161.916 109.906 161.838 109.538C161.156 106.33 158.278 104 154.996 104C151.136 104 147.996 107.14 147.996 111C147.996 111.286 148.038 111.56 148.078 111.836C148.136 112.242 147.952 112.712 147.594 112.916C147.236 113.12 146.802 113.152 146.482 112.896C145.752 112.31 144.894 112 143.996 112C142.064 112 140.412 113.382 140.07 115.288C139.974 115.822 139.478 116.18 138.932 116.098C138.624 116.05 138.316 116 137.996 116C134.688 116 131.996 118.692 131.996 122C131.996 125.308 134.688 128 137.996 128H152.996C153.548 128 153.996 128.448 153.996 129C153.996 129.552 153.548 130 152.996 130H137.996C133.584 130 129.996 126.412 129.996 122C129.996 117.588 133.584 114 137.996 114C138.114 114 138.228 114.004 138.344 114.012C139.172 111.64 141.418 110 143.996 110C144.694 110 145.374 110.122 146.018 110.36C146.348 105.694 150.248 102 154.996 102C158.658 102 161.928 104.254 163.302 107.548C164.662 106.552 166.306 106 167.996 106C172.408 106 175.996 109.588 175.996 114C175.996 114.096 175.994 114.19 175.988 114.284C179.474 115.18 181.996 118.338 181.996 122C181.996 126.412 178.408 130 173.996 130Z" fill="#232538"/>
<path d="M162.996 128C162.678 128 161.314 128 160.996 128C160.444 128 159.996 128.448 159.996 129C159.996 129.552 160.444 130 160.996 130C161.314 130 162.678 130 162.996 130C163.548 130 163.996 129.552 163.996 129C163.996 128.448 163.548 128 162.996 128Z" fill="#232538"/>
<path d="M105 44H109C109.552 44 110 43.552 110 43C110 42.448 109.552 42 109 42H105C104.448 42 104 42.448 104 43C104 43.552 104.448 44 105 44ZM89 36H109C109.552 36 110 35.552 110 35C110 34.448 109.552 34 109 34H89C88.448 34 88 34.448 88 35C88 35.552 88.446 36 89 36ZM113 36H115C115.552 36 116 35.552 116 35C116 34.448 115.552 34 115 34H113C112.448 34 112 34.448 112 35C112 35.552 112.448 36 113 36ZM81 44H87C87.552 44 88 43.552 88 43C88 42.448 87.552 42 87 42H81C80.448 42 80 42.448 80 43C80 43.552 80.448 44 81 44ZM91.06 44H101C101.552 44 102 43.552 102 43C102 42.448 101.552 42 101 42H91.06C90.508 42 90.06 42.448 90.06 43C90.06 43.552 90.508 44 91.06 44ZM97 40H121C121.552 40 122 39.552 122 39C122 38.448 121.552 38 121 38H97C96.448 38 96 38.448 96 39C96 39.552 96.448 40 97 40ZM83 40H93C93.552 40 94 39.552 94 39C94 38.448 93.552 38 93 38H83C82.448 38 82 38.448 82 39C82 39.552 82.448 40 83 40Z" fill="#FAFBFC"/>
<path d="M62.4502 121L64.7502 147H71.0002V121H62.4502Z" fill="#FABF82"/>
<path d="M71 148H64.75C64.232 148 63.798 147.604 63.754 147.088L61.454 121.088C61.428 120.808 61.522 120.532 61.712 120.326C61.9 120.118 62.168 120 62.45 120H71C71.552 120 72 120.448 72 121V147C72 147.552 71.552 148 71 148ZM65.666 146H70V122H63.542L65.666 146Z" fill="#232538"/>
<path d="M90.9001 126.92L85.0001 147H79.0001L82.7601 127.58L78.0801 119H87.7401L90.5201 124.08C90.9801 124.94 91.1201 125.96 90.9001 126.92Z" fill="#FABF82"/>
<path d="M85.0002 148H79.0002C78.7022 148 78.4182 147.866 78.2282 147.636C78.0382 147.406 77.9602 147.102 78.0182 146.808L81.7102 127.742L77.2042 119.478C77.0342 119.168 77.0402 118.792 77.2222 118.488C77.4002 118.186 77.7262 118 78.0802 118H87.7402C88.1062 118 88.4422 118.2 88.6162 118.52L91.3962 123.6C91.9822 124.69 92.1502 125.946 91.8742 127.142C91.8702 127.162 91.8642 127.182 91.8582 127.2L85.9582 147.28C85.8342 147.708 85.4442 148 85.0002 148ZM80.2122 146H84.2522L89.9322 126.668C90.0882 125.96 89.9802 125.19 89.6402 124.552L87.1462 120H79.7642L83.6382 127.102C83.7502 127.306 83.7862 127.542 83.7442 127.77L80.2122 146Z" fill="#232538"/>
<path d="M61.5663 57.042C59.3703 56.724 57.3543 58.248 57.0403 60.434L56.6562 63.116L64.5943 64.116L64.9583 61.568C65.2723 59.378 63.7523 57.354 61.5663 57.042Z" fill="#FABF82"/>
<path d="M65.4484 65.23L55.5264 63.98L56.0524 60.292C56.2424 58.964 56.9344 57.792 58.0064 56.992C59.0744 56.192 60.3964 55.856 61.7124 56.052C64.2004 56.408 66.0004 58.554 66.0004 61C66.0004 61.234 65.9844 61.47 65.9504 61.708L65.4484 65.23ZM57.7924 62.25L63.7464 63L63.9704 61.426C64.2044 59.788 63.0644 58.264 61.4284 58.032H61.4264C60.6404 57.922 59.8464 58.118 59.2064 58.596C58.5644 59.076 58.1484 59.78 58.0344 60.578L57.7924 62.25Z" fill="#232538"/>
<path d="M92 87H66C66 87 69.068 69.648 69.2 69C70.126 64.436 74.162 61 79 61C83.838 61 87.874 64.436 88.8 69C88.932 69.646 92 87 92 87Z" fill="#232538"/>
<path d="M92 88H66C65.706 88 65.424 87.87 65.234 87.642C65.042 87.416 64.962 87.116 65.016 86.826C65.142 86.118 68.088 69.454 68.22 68.802C69.256 63.702 73.79 60 79 60C84.21 60 88.744 63.702 89.782 68.8C89.912 69.452 92.86 86.116 92.986 86.824C93.038 87.116 92.958 87.414 92.768 87.64C92.576 87.868 92.294 88 92 88ZM67.192 86H90.81C89.712 79.796 87.918 69.67 87.822 69.2C86.972 65.028 83.264 62 79 62C74.736 62 71.028 65.028 70.18 69.2C70.084 69.668 68.29 79.796 67.192 86Z" fill="#232538"/>
<path d="M75.25 77L75.256 84.408C75.828 85.92 77.292 87 79 87C80.734 87 82.2 85.884 82.754 84.336L82.75 77H75.25Z" fill="#FABF82"/>
<path d="M79 87.75C77.038 87.75 75.25 86.514 74.554 84.674L74.506 84.41L74.5 76.25H83.5L83.458 84.588C82.782 86.48 80.99 87.75 79 87.75ZM76.006 84.264C76.514 85.458 77.7 86.25 79 86.25C80.316 86.25 81.51 85.43 82.004 84.2L82 77.75H76L76.006 84.264Z" fill="#232538"/>
<path d="M93.9004 53.154C91.7764 53.762 90.5464 55.974 91.1544 58.1L92.0764 61.068L99.7344 58.792L98.8444 55.902C98.2384 53.778 96.0284 52.544 93.9004 53.154Z" fill="#FABF82"/>
<path d="M92.0762 62.068C91.6482 62.068 91.2542 61.792 91.1202 61.364L90.2002 58.396C89.4362 55.724 90.9762 52.95 93.6262 52.192C94.9122 51.824 96.2602 51.978 97.4302 52.628C98.5962 53.276 99.4402 54.34 99.8062 55.624L100.688 58.496C100.768 58.75 100.74 59.028 100.614 59.262C100.488 59.498 100.274 59.674 100.018 59.75L92.3602 62.028C92.2662 62.054 92.1702 62.068 92.0762 62.068ZM95.0062 53.998C94.7282 53.998 94.4502 54.038 94.1762 54.116C92.5862 54.572 91.6622 56.236 92.1162 57.826L92.7402 59.828L98.4842 58.12L97.8922 56.196C97.6662 55.406 97.1582 54.768 96.4582 54.378C96.0062 54.126 95.5102 53.998 95.0062 53.998Z" fill="#232538"/>
<path d="M72.75 69.676V74C72.75 77.022 74.392 80.75 79 80.75C83.924 80.75 85.242 76.348 85.246 74.042C85.25 71.748 85.25 70.178 85.25 69.676C84.646 69.466 82.348 68.75 79.012 68.75C79.008 68.75 79.004 68.75 79 68.75C75.656 68.75 73.354 69.464 72.75 69.676Z" fill="#FABF82"/>
<path d="M79 81.5C74.164 81.5 72 77.734 72 74V69.676C72 69.358 72.202 69.074 72.502 68.968C73.152 68.742 75.542 68 79 68C82.46 68 84.848 68.742 85.498 68.968C85.798 69.074 86 69.358 86 69.676L85.996 74.042C85.99 77.04 84.124 81.5 79 81.5ZM73.5 70.224V74C73.5 76.768 74.942 80 79 80C83.34 80 84.492 76.102 84.496 74.042L84.5 70.226C83.546 69.948 81.618 69.502 79.012 69.502C76.386 69.5 74.454 69.946 73.5 70.224Z" fill="#232538"/>
<path d="M57.764 125.45C58.75 125.794 61.716 126.6 68 126.6C82.636 126.6 89.272 119.736 90.454 118.36C90.574 118.224 90.598 118.074 90.6 117.978C90.602 117.892 90.582 117.756 90.488 117.622L82.124 106.534C81.778 106.076 81.748 105.456 82.044 104.966L102.08 71.864C102.598 71.008 102.734 69.964 102.456 68.992L99.352 58.904L92.462 60.952L94.922 68.872C95.042 69.254 94.99 69.67 94.784 70.012L87.942 81.314C87.734 81.658 87.39 81.894 86.994 81.966L83.4 82.624V83C83.4 85.426 81.426 87.4 79 87.4C76.986 87.4 75.286 86.04 74.764 84.192L72.502 84.602C72.002 84.692 71.494 84.508 71.172 84.116L63.182 74.412C62.932 74.108 62.82 73.712 62.876 73.324L64.142 64.458L57 63.558L55.44 74.486C55.296 75.488 55.58 76.508 56.224 77.282L67.922 91.49C68.294 91.942 68.346 92.576 68.054 93.082L63.216 101.45C61.936 103.494 61.088 105.692 60.664 108.02C60.662 108.032 58.312 120.394 57.436 124.768C57.426 124.814 57.404 124.938 57.404 125.03C57.4 125.172 57.546 125.372 57.764 125.45Z" fill="#E6484F"/>
<path d="M98.4202 60.642L101.108 69.38C101.28 69.976 101.196 70.616 100.88 71.138L92.7622 84.55L80.8442 104.24C80.2522 105.22 80.3142 106.462 81.0042 107.376L88.9582 117.92C87.0802 119.862 80.7522 125.2 68.0002 125.2C63.0622 125.2 60.2962 124.704 58.9442 124.344C59.9002 119.522 62.0122 108.41 62.0382 108.272C62.4302 106.12 63.2162 104.088 64.4242 102.15L69.2622 93.782C69.8462 92.77 69.7422 91.502 69.0002 90.6L57.3002 76.392C56.9102 75.92 56.7362 75.298 56.8242 74.684L58.1902 65.12L62.5562 65.67L61.4922 73.126C61.3802 73.904 61.6022 74.694 62.1022 75.302L70.0922 85.006C70.6302 85.658 71.4262 86.026 72.2542 86.026C72.4202 86.026 72.5882 86.012 72.7562 85.98L73.9102 85.77C74.8942 87.572 76.8082 88.798 79.0042 88.798C81.9302 88.798 84.3582 86.62 84.7482 83.8L87.2482 83.346C88.0382 83.202 88.7282 82.728 89.1422 82.04L95.9842 70.736C96.3982 70.05 96.5002 69.22 96.2622 68.454L94.2202 61.888L98.4202 60.642ZM100.282 57.168L90.7042 60.016L93.5882 69.29L86.7462 80.594L82.0002 81.454C82.0002 81.454 82.0002 82.462 82.0002 83C82.0002 84.656 80.6562 86 79.0002 86C77.3442 86 76.0002 84.656 76.0002 83V82.546L72.2522 83.228L64.2622 73.524L65.7302 63.25L55.8062 62L54.0502 74.292C53.8502 75.68 54.2482 77.098 55.1402 78.178L66.8382 92.382L62.0002 100.75C60.6582 102.898 59.7362 105.28 59.2822 107.772C59.2822 107.772 56.9362 120.124 56.0582 124.494C56.0342 124.618 56.0002 124.854 56.0002 125.032C56.0002 125.782 56.5322 126.5 57.3002 126.77C58.9062 127.334 62.2262 128 68.0002 128C81.9842 128 89.2042 121.964 91.5162 119.272C91.8302 118.906 91.9942 118.454 92.0002 118C92.0062 117.584 91.8822 117.164 91.6242 116.804L83.2422 105.69L95.1602 86L103.278 72.588C103.996 71.402 104.19 69.958 103.802 68.606L100.282 57.168Z" fill="#232538"/>
<path d="M97.1021 105.852C96.6061 108.006 97.9481 110.152 100.1 110.65C100.402 110.718 100.706 110.752 101.004 110.752C102.824 110.752 104.47 109.502 104.898 107.652L105.61 104.566L97.7641 102.978L97.1021 105.852Z" fill="#FABF82"/>
<path d="M101.004 111.752C100.628 111.752 100.25 111.71 99.878 111.626C97.566 111.09 96 109.026 96 106.75C96 106.38 96.04 106.004 96.126 105.626L96.79 102.75C96.914 102.224 97.426 101.886 97.964 101.996L105.806 103.598C106.072 103.652 106.302 103.81 106.448 104.036C106.592 104.262 106.642 104.538 106.58 104.802L105.872 107.876C105.346 110.16 103.344 111.752 101.004 111.752ZM98.522 104.152L98.076 106.076C97.704 107.688 98.712 109.304 100.324 109.676C101.908 110.026 103.554 109.018 103.924 107.426L104.402 105.352L98.522 104.152Z" fill="#232538"/>
<path d="M148.032 51.134C145.888 50.56 143.704 51.836 143.136 53.968L142.35 56.918L150.138 58.766L150.868 56.03C151.434 53.896 150.166 51.706 148.032 51.134Z" fill="#FABF82"/>
<path d="M150.858 59.936L141.142 57.558L142.168 53.71C142.514 52.418 143.34 51.336 144.496 50.668C145.648 50.002 146.992 49.82 148.288 50.168C150.546 50.77 152.032 52.836 152 55.074C151.994 55.476 151.94 55.882 151.832 56.286L150.858 59.936ZM143.602 56.102L149.432 57.526L149.898 55.774C150.324 54.176 149.37 52.528 147.772 52.102C146.99 51.894 146.186 52.002 145.496 52.4C144.802 52.802 144.306 53.45 144.1 54.228L143.602 56.102Z" fill="#232538"/>
<path d="M124 83C126.43 83 128.434 81.3 128.892 78.998C128.898 78.998 128.904 78.996 128.908 78.996L127.456 71H117.958L119.644 80.36C120.502 81.946 122.146 83 124 83Z" fill="#FABF82"/>
<path d="M124 83.75C121.92 83.75 119.998 82.588 118.984 80.718L118.906 80.494L117.062 70.25H128.08L129.786 79.61L129.5 79.658C128.786 82.058 126.55 83.75 124 83.75ZM120.362 80.106C121.126 81.432 122.51 82.25 124 82.25C126.018 82.25 127.708 80.894 128.138 78.942L126.83 71.75H118.856L120.362 80.106Z" fill="#232538"/>
<path d="M122.25 60.25C121.167 60.25 120.094 60.4634 119.093 60.878C118.092 61.2926 117.182 61.9003 116.416 62.6664C115.65 63.4325 115.043 64.3419 114.628 65.3429C114.213 66.3438 114 67.4166 114 68.5C114 69.5834 114.213 70.6562 114.628 71.6571C115.043 72.6581 115.65 73.5675 116.416 74.3336C117.182 75.0997 118.092 75.7074 119.093 76.122C120.094 76.5366 121.167 76.75 122.25 76.75C123.333 76.75 124.406 76.5366 125.407 76.122C126.408 75.7074 127.318 75.0997 128.084 74.3336C128.85 73.5675 129.457 72.6581 129.872 71.6571C130.287 70.6562 130.5 69.5834 130.5 68.5C130.5 67.4166 130.287 66.3438 129.872 65.3429C129.457 64.3419 128.85 63.4325 128.084 62.6664C127.318 61.9003 126.408 61.2926 125.407 60.878C124.406 60.4634 123.333 60.25 122.25 60.25Z" fill="#FABF82"/>
<path d="M122.25 77.5C117.288 77.5 113.25 73.462 113.25 68.5C113.25 63.538 117.288 59.5 122.25 59.5C127.212 59.5 131.25 63.538 131.25 68.5C131.25 73.462 127.212 77.5 122.25 77.5ZM122.25 61C118.116 61 114.75 64.364 114.75 68.5C114.75 72.636 118.116 76 122.25 76C126.384 76 129.75 72.636 129.75 68.5C129.75 64.364 126.384 61 122.25 61Z" fill="#232538"/>
<path d="M131.6 65.098C131.01 61.69 130.344 57.838 124.55 57.57L123.346 56.014L119.772 56.632L119.704 56.648C115.966 57.614 112 60.614 112 66C112 66.66 112.06 67.356 112.186 68.088L112.65 70.764L114.978 72.254L116.882 74.568L115.604 67.184L125.048 62.268L127.962 64.724L129.282 72.35L130.348 69.55L132 67.414L131.6 65.098Z" fill="#232538"/>
<path d="M115 107H133.172L135.032 88.728L146.3 72.26C146.558 71.884 146.748 71.472 146.868 71.03L150.136 58.768L142.35 56.92L139.218 68.448L132.294 78.568L131.85 78.626C130.896 78.75 129.904 78.874 128.892 79C128.434 81.3 126.43 83 124 83C122.046 83 120.296 81.852 119.486 80.12L118.368 80.248C116.366 80.48 114.822 80.66 114.126 80.748C113.12 80.874 112.084 81.09 111.308 81.792L101.306 90.796C100.702 91.34 100.284 92.054 100.1 92.85L97.7622 102.976L105.606 104.578L107.62 95.852L114.998 89.592L115 107Z" fill="#55A7F9"/>
<path d="M115.484 107L105.83 123.504C105.386 124.19 105.12 124.938 105.032 125.708L100.998 147.008L109.056 147L115.02 127.722L124.086 116.278L131.128 127.29L132.912 146.998H140.996L140.952 125.318C140.89 124.852 140.76 124.398 140.568 123.966L133.028 107H115.484Z" fill="#7C8A9F"/>
<path d="M143.656 58.996L147.932 60.04L145.128 70.558C145.062 70.804 144.958 71.032 144.814 71.24L133.69 87.5C133.426 87.886 133.262 88.332 133.216 88.798L131.382 106.818C131.332 107.304 131.41 107.792 131.608 108.238L138.924 124.7C139.032 124.942 139.108 125.196 139.152 125.456L139.192 145.198H134.556L132.942 127.37C132.902 126.922 132.754 126.492 132.512 126.114L126.356 116.488C125.868 115.726 125.042 115.246 124.138 115.2C124.094 115.202 124.046 115.2 124 115.2C123.148 115.2 122.338 115.59 121.806 116.262L113.61 126.606C113.392 126.88 113.23 127.192 113.126 127.526L107.724 145.2H103.172L106.786 126.114C106.798 126.046 106.81 125.978 106.816 125.91C106.872 125.416 107.044 124.936 107.312 124.524C107.336 124.488 107.36 124.45 107.382 124.412L116.416 108.968C116.666 108.54 116.8 108.052 116.8 107.554V91.75C116.8 90.66 116.166 89.668 115.176 89.21C114.8 89.038 114.4 88.952 114 88.952C113.348 88.952 112.704 89.18 112.188 89.618L106.71 94.266C106.25 94.656 105.928 95.184 105.794 95.772L104.25 102.464L99.9361 101.584L101.858 93.26C101.96 92.822 102.188 92.43 102.512 92.136L112.524 83.126C112.846 82.834 113.392 82.656 114.354 82.536C115.002 82.454 116.39 82.294 118.2 82.084L118.55 82.044C119.8 83.736 121.806 84.8 124 84.8C126.836 84.8 129.246 83.1 130.268 80.64C130.884 80.562 131.49 80.486 132.08 80.41C132.872 80.308 133.582 79.872 134.032 79.214L140.702 69.464C140.882 69.202 141.014 68.912 141.096 68.604L143.656 58.996ZM141.658 55.626L138.392 67.882L131.722 77.632C130.53 77.786 129.27 77.944 127.992 78.1C127.934 80.262 126.174 82 124 82C122.15 82 120.61 80.738 120.152 79.034C117.242 79.372 114.904 79.64 114 79.754C112.808 79.906 111.592 80.182 110.636 81.052L100.636 90.052C99.8781 90.74 99.3561 91.63 99.1261 92.626L96.5581 103.752L106.362 105.752L108.52 96.4L114 91.752V107.556L104.966 123C104.458 123.782 104.142 124.67 104.036 125.594L100.016 146.822C100.006 146.882 100 146.942 100 147C100 147.54 100.438 148 101 148H109.056C109.5 148 109.89 147.708 110.014 147.284L115.804 128.344L124 118L130.156 127.626L131.918 147.092C131.964 147.606 132.396 148 132.914 148H140.998C141.55 148 141.998 147.552 141.998 146.998L141.954 125.256C141.882 124.672 141.724 124.102 141.484 123.562L134.17 107.104L136 89.084L147.124 72.824C147.446 72.356 147.682 71.84 147.832 71.288L151.376 58L141.658 55.626Z" fill="#232538"/>
<path d="M115 106H133V108H115V106Z" fill="#232538"/>
</svg>
