<svg width="200" height="200" viewBox="0 0 200 200" fill="none" xmlns="http://www.w3.org/2000/svg">
<path d="M174.43 113.42C176.7 109.11 178 104.21 178 99C178 85.758 169.682 74.486 157.998 70.044C157.998 70.03 158 70.016 158 70C158 46.804 139.196 28 116 28C96.432 28 80.038 41.402 75.374 59.514C72.422 58.544 69.276 58 66 58C50.616 58 37.954 69.586 36.22 84.504C25.812 86.706 18 95.938 18 107C18 119.702 28.298 130 41 130C41.354 130 41.704 129.976 42.052 129.956C42.044 130.306 42 130.648 42 131C42 153.644 60.356 172 83 172C95.874 172 107.35 166.056 114.868 156.772C119.224 161.222 125.28 164 132 164C141.3 164 149.348 158.7 153.332 150.964C155.436 151.634 157.674 152 160 152C172.15 152 182 142.15 182 130C182 123.378 179.06 117.454 174.43 113.42Z" fill="#FAFBFC"/>
<path d="M71 73V74H77V73C77 73 85.484 73 88 73C92.97 73 97 68.97 97 64C97 59.334 93.436 55.542 88.89 55.09C88.934 54.728 89 54.374 89 54C89 49.03 84.97 45 80 45C77.124 45 74.594 46.372 72.946 48.472C72.666 43.2 68.342 39 63 39C57.478 39 53 43.478 53 49C53 49.892 53.154 50.74 53.374 51.564C52.09 50.01 50.172 49 48 49C44.438 49 41.532 51.67 41.09 55.11C40.728 55.066 40.374 55 40 55C35.03 55 31 59.03 31 64C31 68.97 35.03 73 40 73C44.97 73 59 73 59 73H71Z" fill="#FAFBFC"/>
<path d="M63 38C56.934 38 52 42.934 52 49C52 49.032 52 49.062 52 49.094C50.796 48.384 49.42 48 48 48C44.338 48 41.178 50.522 40.284 54.01C40.19 54.004 40.096 54 40 54C34.486 54 30 58.486 30 64C30 69.514 34.486 74 40 74H71C71.552 74 72 73.552 72 73C72 72.448 71.552 72 71 72H40C35.588 72 32 68.412 32 64C32 59.588 35.588 56 40 56C40.234 56 40.46 56.034 40.686 56.064L40.968 56.102C41.01 56.108 41.05 56.11 41.092 56.11C41.584 56.11 42.016 55.74 42.082 55.236C42.464 52.25 45.008 50 48 50C49.77 50 51.446 50.802 52.602 52.2C52.798 52.436 53.084 52.564 53.374 52.564C53.53 52.564 53.686 52.528 53.83 52.452C54.248 52.238 54.458 51.76 54.338 51.306C54.108 50.436 54 49.704 54 49C54 44.038 58.038 40 63 40C67.762 40 71.694 43.744 71.948 48.526C71.97 48.942 72.248 49.3 72.646 49.426C72.746 49.458 72.848 49.474 72.95 49.474C73.25 49.474 73.542 49.336 73.734 49.09C75.276 47.126 77.558 46 80 46C84.412 46 88 49.588 88 54C88 54.234 87.966 54.46 87.936 54.686L87.898 54.968C87.866 55.236 87.942 55.504 88.11 55.714C88.278 55.924 88.524 56.058 88.79 56.084C92.902 56.494 96 59.898 96 64C96 68.412 92.412 72 88 72H77C76.448 72 76 72.448 76 73C76 73.552 76.448 74 77 74H88C93.514 74 98 69.514 98 64C98 59.206 94.622 55.174 89.994 54.246C89.998 54.164 90 54.082 90 54C90 48.486 85.514 44 80 44C77.648 44 75.414 44.832 73.634 46.328C72.438 41.52 68.11 38 63 38Z" fill="#232538"/>
<path d="M60.0002 52C57.1942 52 54.7822 53.998 54.1742 56.682C53.4402 56.238 52.6022 56 51.7502 56C49.3462 56 47.3542 57.794 47.0442 60.136C46.6382 60.044 46.2522 60 45.8742 60C42.8162 60 40.2522 62.4 40.0382 65.464C40.0202 65.74 40.2282 65.98 40.5022 66C40.5142 66 40.5262 66 40.5382 66C40.7982 66 41.0182 65.798 41.0362 65.536C41.2142 62.994 43.3382 61 45.8742 61C46.3322 61 46.8142 61.084 47.3502 61.254C47.3942 61.268 47.4402 61.274 47.4842 61.274C47.5942 61.274 47.7042 61.234 47.7962 61.166C47.9242 61.074 48.0002 60.91 48.0002 60.75C48.0002 58.682 49.6822 57 51.7502 57C52.6442 57 53.5202 57.336 54.2122 57.946C54.3062 58.028 54.4242 58.072 54.5422 58.072C54.6062 58.072 54.6682 58.06 54.7282 58.034C54.9042 57.964 55.0242 57.8 55.0382 57.61C55.2462 55.024 57.4242 53 60.0002 53C60.4162 53 60.8502 53.068 61.3642 53.214C61.4102 53.228 61.4582 53.234 61.5042 53.234C61.7222 53.234 61.9182 53.088 61.9822 52.87C62.0582 52.604 61.9042 52.328 61.6382 52.252C61.0342 52.08 60.5122 52 60.0002 52Z" fill="#232538"/>
<path d="M87.7659 55C85.1139 55 82.7499 56.794 82.0179 59.364C81.9419 59.63 82.0959 59.906 82.3619 59.982C82.4099 59.994 82.4559 60 82.4999 60C82.7179 60 82.9179 59.856 82.9799 59.636C83.5899 57.496 85.5579 56 87.7659 56C87.9999 56 88.2259 56.028 88.4499 56.058C88.4739 56.062 88.4959 56.064 88.5199 56.064C88.7619 56.064 88.9779 55.88 89.0119 55.63C89.0499 55.356 88.8579 55.104 88.5839 55.068C88.3159 55.032 88.0439 55 87.7659 55Z" fill="#232538"/>
<path d="M55 142H35C34.448 142 34 141.552 34 141C34 140.448 34.448 140 35 140H55C55.552 140 56 140.448 56 141C56 141.552 55.554 142 55 142Z" fill="#FAFBFC"/>
<path d="M61 142H59C58.448 142 58 141.552 58 141C58 140.448 58.448 140 59 140H61C61.552 140 62 140.448 62 141C62 141.552 61.554 142 61 142Z" fill="#FAFBFC"/>
<path d="M70.982 146H53C52.448 146 52 145.552 52 145C52 144.448 52.448 144 53 144H70.982C71.534 144 71.982 144.448 71.982 145C71.982 145.552 71.534 146 70.982 146Z" fill="#FAFBFC"/>
<path d="M49 146H47C46.448 146 46 145.552 46 145C46 144.448 46.448 144 47 144H49C49.552 144 50 144.448 50 145C50 145.552 49.554 146 49 146Z" fill="#FAFBFC"/>
<path d="M43 146H39C38.448 146 38 145.552 38 145C38 144.448 38.448 144 39 144H43C43.552 144 44 144.448 44 145C44 145.552 43.554 146 43 146Z" fill="#FAFBFC"/>
<path d="M55 150H51C50.448 150 50 149.552 50 149C50 148.448 50.448 148 51 148H55C55.552 148 56 148.448 56 149C56 149.552 55.552 150 55 150Z" fill="#FAFBFC"/>
<path d="M61 132C60.646 132 59.354 132 59 132C58.448 132 58 132.448 58 133C58 133.552 58.448 134 59 134C59.354 134 60.646 134 61 134C61.552 134 62 133.552 62 133C62 132.448 61.552 132 61 132Z" fill="#FAFBFC"/>
<path d="M61 136C60.646 136 51.354 136 51 136C50.448 136 50 136.448 50 137C50 137.552 50.448 138 51 138C51.354 138 60.646 138 61 138C61.552 138 62 137.552 62 137C62 136.448 61.552 136 61 136Z" fill="#FAFBFC"/>
<path d="M71 140C70.646 140 65.354 140 65 140C64.448 140 64 140.448 64 141C64 141.552 64.448 142 65 142C65.354 142 70.646 142 71 142C71.552 142 72 141.552 72 141C72 140.448 71.552 140 71 140Z" fill="#FAFBFC"/>
<path d="M169 134H149C148.448 134 148 133.552 148 133C148 132.448 148.448 132 149 132H169C169.552 132 170 132.448 170 133C170 133.552 169.552 134 169 134Z" fill="#FAFBFC"/>
<path d="M177 134H173C172.448 134 172 133.552 172 133C172 132.448 172.448 132 173 132H177C177.552 132 178 132.448 178 133C178 133.552 177.552 134 177 134Z" fill="#FAFBFC"/>
<path d="M187 138H167C166.448 138 166 137.552 166 137C166 136.448 166.448 136 167 136H187C187.552 136 188 136.448 188 137C188 137.552 187.554 138 187 138Z" fill="#FAFBFC"/>
<path d="M163 138H161C160.448 138 160 137.552 160 137C160 136.448 160.448 136 161 136H163C163.552 136 164 136.448 164 137C164 137.552 163.552 138 163 138Z" fill="#FAFBFC"/>
<path d="M156.94 138H153C152.448 138 152 137.552 152 137C152 136.448 152.448 136 153 136H156.94C157.492 136 157.94 136.448 157.94 137C157.94 137.552 157.492 138 156.94 138Z" fill="#FAFBFC"/>
<path d="M175 130H165C164.448 130 164 129.552 164 129C164 128.448 164.448 128 165 128H175C175.552 128 176 128.448 176 129C176 129.552 175.554 130 175 130Z" fill="#FAFBFC"/>
<path d="M169 142H165C164.448 142 164 141.552 164 141C164 140.448 164.448 140 165 140H169C169.552 140 170 140.448 170 141C170 141.552 169.552 142 169 142Z" fill="#FAFBFC"/>
<path d="M175 121C175 121 178.134 121 182 121C185.866 121 189 117.866 189 114C189 110.438 186.33 107.532 182.89 107.09C182.946 106.732 183 106.374 183 106C183 102.134 179.866 99 176 99C173.936 99 172.1 99.91 170.82 101.33C170.052 97.714 166.846 95 163 95C158.582 95 155 98.582 155 103C155 103.382 155.06 103.748 155.112 104.116C154.256 103.428 153.184 103 152 103C149.544 103 147.51 104.774 147.09 107.11C146.732 107.054 146.374 107 146 107C142.134 107 139 110.134 139 114C139 117.866 142.134 121 146 121C149.866 121 161 121 161 121V122H175V121Z" fill="#FAFBFC"/>
<path d="M178.5 112C178.224 112 178 111.776 178 111.5C178 109.054 179.99 107.064 182.436 107.064C182.504 107.082 183.91 107.062 184.924 107.336C185.19 107.408 185.348 107.682 185.276 107.948C185.204 108.216 184.93 108.374 184.664 108.3C183.776 108.06 182.464 108.06 182.438 108.064C180.542 108.064 179 109.606 179 111.5C179 111.776 178.776 112 178.5 112Z" fill="#232538"/>
<path d="M165 122C165.552 122 166 121.552 166 121C166 120.448 165.552 120 165 120C164.448 120 164 120.448 164 121C164 121.552 164.448 122 165 122Z" fill="#232538"/>
<path d="M182 122H175C174.448 122 174 121.552 174 121C174 120.448 174.448 120 175 120H182C185.308 120 188 117.308 188 114C188 111.008 185.75 108.464 182.764 108.082C182.496 108.046 182.254 107.906 182.092 107.69C181.93 107.474 181.862 107.202 181.904 106.936C181.95 106.628 182 106.32 182 106C182 102.692 179.308 100 176 100C174.3 100 172.724 100.71 171.562 102C171.312 102.278 170.92 102.396 170.562 102.296C170.198 102.198 169.92 101.906 169.842 101.538C169.16 98.33 166.282 96 163 96C159.14 96 156 99.14 156 103C156 103.286 156.042 103.56 156.082 103.836C156.14 104.242 155.956 104.712 155.598 104.916C155.24 105.12 154.806 105.152 154.486 104.896C153.756 104.31 152.898 104 152 104C150.068 104 148.416 105.382 148.074 107.288C147.978 107.822 147.482 108.18 146.936 108.098C146.628 108.05 146.32 108 146 108C142.692 108 140 110.692 140 114C140 117.308 142.692 120 146 120H161C161.552 120 162 120.448 162 121C162 121.552 161.552 122 161 122H146C141.588 122 138 118.412 138 114C138 109.588 141.588 106 146 106C146.118 106 146.232 106.004 146.348 106.012C147.176 103.64 149.422 102 152 102C152.698 102 153.378 102.122 154.022 102.36C154.352 97.694 158.252 94 163 94C166.662 94 169.932 96.254 171.306 99.548C172.666 98.552 174.31 98 176 98C180.412 98 184 101.588 184 106C184 106.096 183.998 106.19 183.992 106.284C187.478 107.18 190 110.338 190 114C190 118.412 186.412 122 182 122Z" fill="#232538"/>
<path d="M171 120C170.682 120 169.318 120 169 120C168.448 120 168 120.448 168 121C168 121.552 168.448 122 169 122C169.318 122 170.682 122 171 122C171.552 122 172 121.552 172 121C172 120.448 171.552 120 171 120Z" fill="#232538"/>
<path d="M88.3517 121.008C101.278 114.756 105.714 97.1929 98.2596 81.7802C90.8048 66.3676 74.2824 58.9417 61.3556 65.1941C48.4289 71.4465 43.993 89.0094 51.4477 104.422C58.9025 119.835 75.4249 127.261 88.3517 121.008Z" fill="#A1A1CA"/>
<path d="M82.8442 126.658L77.6562 123.684C76.8742 123.236 76.9142 122.094 77.7262 121.7L86.6142 117.4L95.5022 113.1C96.3142 112.708 97.2342 113.384 97.1002 114.276L96.2122 120.19C95.3202 126.13 97.1682 132.148 101.238 136.564C104.88 140.514 108.832 144.958 109.492 146.322L110.214 147.812C112.034 151.574 110.908 156.262 107.336 158.43C103.238 160.918 97.9962 159.3 95.9602 155.088L95.0902 153.288C94.4302 151.924 93.4002 146.066 92.5642 140.76C91.6242 134.832 88.0542 129.646 82.8442 126.658Z" fill="#FBCD59"/>
<path d="M103.178 160.616C102.322 160.616 101.462 160.492 100.612 160.24C98.1842 159.524 96.1602 157.806 95.0582 155.528L94.1862 153.728C93.9682 153.274 93.3022 151.898 91.5722 140.918C90.6802 135.256 87.3162 130.376 82.3462 127.524L77.1582 124.55C76.4722 124.158 76.0642 123.424 76.0922 122.634C76.1202 121.844 76.5782 121.142 77.2902 120.798L95.0662 112.2C95.7782 111.856 96.6122 111.934 97.2482 112.402C97.8842 112.87 98.2062 113.646 98.0882 114.426L97.2002 120.34C96.3482 126.006 98.0882 131.674 101.972 135.888C109.508 144.064 110.172 145.438 110.39 145.888L111.112 147.38C113.194 151.684 111.762 156.916 107.854 159.288C106.408 160.168 104.804 160.616 103.178 160.616ZM78.1522 122.818L83.3402 125.792C88.8402 128.944 92.5602 134.344 93.5482 140.608C95.0682 150.254 95.7602 152.388 95.9882 152.858L96.8602 154.658C97.7182 156.43 99.2922 157.766 101.18 158.324C103.094 158.89 105.096 158.626 106.816 157.58C109.854 155.736 110.95 151.638 109.312 148.252L108.59 146.76C108.308 146.178 106.882 144.168 100.502 137.244C96.2042 132.582 94.2802 126.312 95.2222 120.044L96.1122 114.13L95.5022 113.102L95.9382 114.002L78.1602 122.6L77.6562 123.684L78.1522 122.818Z" fill="#232538"/>
<path d="M101.506 92.424C103.24 104.564 98.3522 116.166 88.3542 121.002C78.3562 125.838 66.2262 122.466 57.7842 113.572C65.1842 114.436 95.7902 99.632 101.506 92.424Z" fill="#EF9922"/>
<path d="M47.9682 91.66C47.0582 80.304 51.9402 69.744 61.3562 65.188C70.7722 60.632 82.0842 63.362 90.4202 71.124C85.3402 78.026 56.5342 91.96 47.9682 91.66Z" fill="#A8DBDB"/>
<path d="M71.1362 65.772C81.0222 65.772 90.6802 72.532 95.7402 82.994C99.0602 89.856 99.9462 97.366 98.2362 104.138C96.5722 110.73 92.6282 115.826 87.1362 118.482C84.4782 119.768 81.5982 120.42 78.5762 120.42C68.6902 120.42 59.0322 113.66 53.9722 103.198C50.6522 96.336 49.7662 88.826 51.4762 82.054C53.1402 75.462 57.0842 70.366 62.5782 67.71C65.2342 66.424 68.1142 65.772 71.1362 65.772ZM71.1362 62.972C67.7862 62.972 64.4682 63.684 61.3562 65.19C48.4302 71.442 43.9942 89.006 51.4502 104.418C57.1122 116.122 68.0022 123.22 78.5762 123.22C81.9262 123.22 85.2442 122.508 88.3562 121.002C101.282 114.75 105.718 97.186 98.2622 81.774C92.6002 70.07 81.7082 62.972 71.1362 62.972Z" fill="#232538"/>
<path d="M51.536 91.65C50.988 91.65 50.502 91.606 50.082 91.514C49.542 91.398 49.198 90.868 49.314 90.328C49.43 89.786 49.962 89.44 50.5 89.56C51.34 89.738 53.498 89.806 58.528 88.238C59.054 88.076 59.614 88.368 59.78 88.896C59.944 89.424 59.65 89.984 59.122 90.148C55.912 91.148 53.37 91.65 51.536 91.65Z" fill="#232538"/>
<path d="M65.8822 87.602C65.4902 87.602 65.1181 87.37 64.9581 86.986C64.7461 86.476 64.9882 85.89 65.4982 85.678C69.9142 83.844 74.4482 81.6 78.2602 79.364C78.7362 79.082 79.3501 79.244 79.6281 79.72C79.9081 80.196 79.7482 80.808 79.2722 81.088C75.3842 83.37 70.7641 85.656 66.2661 87.524C66.1401 87.578 66.0102 87.602 65.8822 87.602Z" fill="#232538"/>
<path d="M83.7421 78.01C83.4321 78.01 83.1281 77.868 82.9321 77.598C82.6061 77.15 82.7061 76.526 83.1521 76.202C86.5341 73.744 87.4721 72.272 87.7301 71.614C87.9321 71.1 88.5121 70.84 89.0261 71.048C89.5401 71.25 89.7941 71.83 89.5921 72.342C88.9921 73.876 87.2201 75.718 84.3281 77.82C84.1501 77.948 83.9441 78.01 83.7421 78.01Z" fill="#232538"/>
<path d="M71.5242 111.05C71.1142 111.05 70.7302 110.796 70.5822 110.386C70.3962 109.866 70.6662 109.294 71.1862 109.108C82.7102 104.982 97.4142 96.842 99.0982 92.532C99.3002 92.018 99.8782 91.764 100.394 91.964C100.908 92.166 101.162 92.746 100.962 93.26C98.8222 98.732 82.3962 107.218 71.8602 110.99C71.7502 111.032 71.6362 111.05 71.5242 111.05Z" fill="#232538"/>
<path d="M79.0762 116.604C78.8162 116.604 78.5962 116.402 78.5782 116.138C78.5602 115.862 78.7682 115.624 79.0422 115.604C82.6902 115.354 84.9602 113.902 84.9842 113.888C85.2122 113.738 85.5262 113.802 85.6762 114.034C85.8262 114.266 85.7602 114.576 85.5302 114.726C85.4302 114.792 83.0182 116.336 79.1122 116.602C79.0982 116.604 79.0862 116.604 79.0762 116.604Z" fill="#232538"/>
<path d="M75.8881 116.508C75.8661 116.508 75.8461 116.508 75.8241 116.504C75.2041 116.426 74.5821 116.314 73.9761 116.17C72.4181 115.804 70.8521 115.22 69.3201 114.434C66.1621 112.812 63.3461 110.418 60.9461 107.318C60.7781 107.1 60.8181 106.786 61.0361 106.616C61.2521 106.448 61.5661 106.486 61.7381 106.706C64.0461 109.69 66.7501 111.99 69.7781 113.544C71.2361 114.292 72.7261 114.848 74.2041 115.196C74.7781 115.33 75.3641 115.436 75.9481 115.51C76.2221 115.546 76.4161 115.796 76.3821 116.068C76.3501 116.324 76.1361 116.508 75.8881 116.508Z" fill="#232538"/>
<path d="M58.4599 103.048C58.2819 103.048 58.1099 102.952 58.0199 102.784C56.1759 99.352 55.4619 96.664 55.4339 96.552C55.3639 96.284 55.5239 96.01 55.7899 95.942C56.0579 95.87 56.3299 96.03 56.3999 96.298C56.4059 96.324 57.1179 98.99 58.8999 102.312C59.0299 102.556 58.9399 102.858 58.6959 102.988C58.6219 103.028 58.5399 103.048 58.4599 103.048Z" fill="#232538"/>
<path d="M54.9281 87.036C54.9161 87.036 54.9041 87.036 54.8901 87.036C54.6141 87.016 54.4081 86.776 54.4281 86.5C55.2121 75.722 62.6341 70.916 62.9501 70.718C63.1821 70.572 63.4921 70.64 63.6381 70.874C63.7861 71.108 63.7161 71.416 63.4841 71.564C63.4101 71.61 56.1701 76.318 55.4261 86.572C55.4061 86.834 55.1861 87.036 54.9281 87.036Z" fill="#232538"/>
<path d="M103.266 155.906C102.468 155.906 101.732 155.702 101.066 155.296C98.8883 153.968 98.0723 150.816 97.7803 149.054C97.7383 148.804 97.6543 148.316 97.5303 147.652C97.4803 147.38 97.6603 147.12 97.9323 147.068C98.2043 147.024 98.4643 147.198 98.5163 147.47C98.6403 148.144 98.7263 148.638 98.7663 148.89C99.0303 150.482 99.7503 153.32 101.586 154.44C102.456 154.97 103.506 155.042 104.71 154.656C104.97 154.568 105.254 154.716 105.338 154.978C105.422 155.242 105.278 155.522 105.016 155.606C104.406 155.808 103.822 155.906 103.266 155.906Z" fill="#232538"/>
<path d="M97.3801 144.808C97.1481 144.808 96.9401 144.646 96.8921 144.41C96.1561 140.894 95.0081 136.062 93.7021 133.014C93.5941 132.76 93.7121 132.468 93.9661 132.358C94.2201 132.25 94.5141 132.366 94.6221 132.622C95.9581 135.744 97.1261 140.644 97.8701 144.206C97.9261 144.476 97.7541 144.742 97.4841 144.798C97.4501 144.804 97.4161 144.808 97.3801 144.808Z" fill="#232538"/>
<path d="M91.8142 129.542C91.6682 129.542 91.5222 129.478 91.4242 129.356C88.9682 126.3 85.8642 124.088 85.8322 124.066C85.6082 123.906 85.5542 123.594 85.7122 123.368C85.8742 123.142 86.1862 123.09 86.4102 123.248C86.5402 123.34 89.6562 125.56 92.2022 128.728C92.3742 128.944 92.3402 129.258 92.1262 129.432C92.0342 129.504 91.9242 129.542 91.8142 129.542Z" fill="#232538"/>
<path d="M158.095 75.4726C161.995 58.802 153.823 42.6359 139.841 39.3648C125.859 36.0936 111.363 46.956 107.462 63.6267C103.562 80.2973 111.735 96.4634 125.717 99.7345C139.699 103.006 154.195 92.1433 158.095 75.4726Z" fill="#F1BC19"/>
<path d="M132.338 104.05L136.75 100.012C137.416 99.402 137.126 98.298 136.248 98.092L126.634 95.842L117.02 93.592C116.142 93.386 115.392 94.25 115.718 95.09L117.88 100.666C120.052 106.266 119.564 112.544 116.56 117.744C113.872 122.396 110.988 127.596 110.642 129.072L110.264 130.684C109.312 134.752 111.436 139.082 115.396 140.416C119.938 141.946 124.7 139.22 125.766 134.664L126.222 132.716C126.568 131.24 126.29 125.3 125.946 119.938C125.558 113.946 127.908 108.104 132.338 104.05Z" fill="#EDD773"/>
<path d="M117.996 141.85C117.022 141.85 116.038 141.688 115.076 141.364C110.742 139.904 108.2 135.114 109.29 130.458L109.666 128.846C109.78 128.36 110.124 126.88 115.69 117.244C118.56 112.28 119.016 106.37 116.944 101.028L114.782 95.452C114.496 94.716 114.642 93.888 115.158 93.292C115.676 92.696 116.478 92.438 117.244 92.618L136.47 97.118C137.238 97.298 137.84 97.882 138.04 98.646C138.24 99.41 138.002 100.216 137.42 100.748L133.008 104.786C128.782 108.656 126.568 114.154 126.938 119.874C127.652 130.974 127.304 132.458 127.19 132.944L126.734 134.892C126.158 137.354 124.56 139.474 122.348 140.706C120.99 141.466 119.502 141.85 117.996 141.85ZM116.792 94.566L116.65 94.73L118.812 100.306C121.104 106.216 120.6 112.754 117.426 118.244C112.712 126.404 111.762 128.674 111.616 129.3L111.24 130.912C110.382 134.576 112.35 138.334 115.716 139.468C117.626 140.108 119.636 139.93 121.38 138.958C123.1 138 124.344 136.352 124.792 134.436L125.248 132.488C125.396 131.86 125.552 129.404 124.948 120.004C124.54 113.674 126.988 107.59 131.664 103.312L136.076 99.274L136.022 99.066L116.792 94.566ZM132.338 104.05H132.358H132.338Z" fill="#232538"/>
<path d="M106.632 74.73C107.598 86.954 114.908 97.206 125.72 99.736C136.532 102.266 147.632 96.322 153.922 85.794C146.894 88.258 113.788 80.512 106.632 74.73Z" fill="#88AE45"/>
<path d="M158.706 62.266C157.108 50.988 150.032 41.75 139.848 39.368C129.662 36.984 119.224 42.124 112.788 51.522C119.256 57.144 150.414 64.434 158.706 62.266Z" fill="#E6484F"/>
<path d="M134.812 41.586C136.288 41.586 137.768 41.756 139.208 42.094C151.664 45.008 158.916 59.698 155.374 74.838C152.298 87.98 141.946 97.518 130.756 97.518C129.278 97.518 127.798 97.348 126.358 97.01C120.416 95.62 115.454 91.512 112.386 85.444C109.234 79.21 108.456 71.69 110.192 64.266C113.27 51.126 123.622 41.586 134.812 41.586ZM134.812 38.786C122.54 38.786 110.902 48.958 107.468 63.628C103.568 80.298 111.74 96.464 125.722 99.736C127.4 100.128 129.084 100.318 130.758 100.318C143.03 100.318 154.668 90.146 158.102 75.476C162.002 58.806 153.83 42.64 139.848 39.368C138.17 38.976 136.486 38.786 134.812 38.786Z" fill="#232538"/>
<path d="M151.166 63.396C150.066 63.396 148.84 63.342 147.492 63.232C146.942 63.188 146.532 62.704 146.576 62.154C146.622 61.604 147.116 61.208 147.654 61.238C152.902 61.664 154.998 61.126 155.778 60.77C156.282 60.538 156.874 60.76 157.104 61.26C157.336 61.762 157.116 62.356 156.614 62.586C155.44 63.126 153.614 63.396 151.166 63.396Z" fill="#232538"/>
<path d="M140.12 62.25C140.064 62.25 140.004 62.246 139.948 62.236C135.146 61.396 130.14 60.178 125.848 58.804C125.322 58.636 125.032 58.072 125.2 57.548C125.368 57.022 125.926 56.732 126.456 56.9C130.664 58.246 135.576 59.442 140.29 60.266C140.834 60.362 141.198 60.88 141.104 61.424C141.018 61.91 140.596 62.25 140.12 62.25Z" fill="#232538"/>
<path d="M120.592 56.802C120.46 56.802 120.326 56.776 120.196 56.72C116.908 55.3 114.778 53.888 113.86 52.526C113.552 52.068 113.672 51.446 114.13 51.138C114.588 50.83 115.208 50.95 115.518 51.408C115.912 51.992 117.148 53.222 120.988 54.882C121.494 55.1 121.728 55.69 121.51 56.196C121.348 56.576 120.98 56.802 120.592 56.802Z" fill="#232538"/>
<path d="M139.748 86.366C139.706 86.366 139.666 86.364 139.624 86.358C128.518 84.984 110.634 80.3 107.348 75.43C107.04 74.972 107.16 74.35 107.618 74.042C108.078 73.734 108.698 73.854 109.006 74.312C111.594 78.148 127.722 82.872 139.87 84.376C140.418 84.444 140.808 84.944 140.74 85.492C140.676 85.996 140.246 86.366 139.748 86.366Z" fill="#232538"/>
<path d="M131.294 93.612C128.8 93.612 127.192 93.028 127.106 92.996C126.848 92.9 126.716 92.612 126.812 92.354C126.91 92.096 127.194 91.962 127.454 92.06C127.48 92.07 130.03 92.988 133.626 92.434C133.91 92.394 134.154 92.58 134.196 92.852C134.238 93.126 134.05 93.38 133.778 93.422C132.882 93.558 132.046 93.612 131.294 93.612Z" fill="#232538"/>
<path d="M136.794 92.636C136.588 92.636 136.398 92.51 136.324 92.306C136.23 92.046 136.366 91.76 136.624 91.666C137.176 91.466 137.726 91.236 138.256 90.976C139.622 90.314 140.954 89.446 142.214 88.396C144.828 86.216 146.964 83.38 148.56 79.964C148.678 79.714 148.976 79.606 149.226 79.722C149.476 79.84 149.584 80.138 149.468 80.388C147.808 83.936 145.584 86.89 142.856 89.164C141.534 90.266 140.134 91.178 138.694 91.876C138.132 92.15 137.55 92.394 136.964 92.606C136.908 92.626 136.85 92.636 136.794 92.636Z" fill="#232538"/>
<path d="M150.852 75.686C150.808 75.686 150.762 75.68 150.718 75.668C150.452 75.594 150.298 75.318 150.372 75.052C151.384 71.422 151.496 68.666 151.496 68.638C151.506 68.362 151.762 68.164 152.014 68.156C152.29 68.166 152.506 68.398 152.496 68.674C152.492 68.79 152.382 71.568 151.334 75.322C151.272 75.542 151.07 75.686 150.852 75.686Z" fill="#232538"/>
<path d="M150.794 59.29C150.58 59.29 150.38 59.15 150.316 58.934C147.344 49.09 139.248 46.082 139.166 46.052C138.908 45.96 138.772 45.674 138.864 45.414C138.958 45.154 139.244 45.016 139.502 45.112C139.854 45.238 148.148 48.302 151.272 58.646C151.352 58.91 151.202 59.188 150.938 59.27C150.89 59.282 150.842 59.29 150.794 59.29Z" fill="#232538"/>
<path d="M117.642 137.182C117.446 137.182 117.244 137.172 117.038 137.154C116.762 137.128 116.56 136.886 116.584 136.612C116.608 136.336 116.846 136.132 117.126 136.158C118.384 136.268 119.394 135.972 120.128 135.264C121.734 133.712 121.738 130.526 121.664 129.23C121.65 128.976 121.626 128.474 121.598 127.79C121.588 127.514 121.804 127.282 122.078 127.27C122.392 127.256 122.586 127.476 122.598 127.75C122.624 128.426 122.648 128.922 122.662 129.172C122.762 130.954 122.658 134.208 120.822 135.982C120 136.78 118.932 137.182 117.642 137.182Z" fill="#232538"/>
<path d="M122.014 124.954C121.742 124.954 121.518 124.736 121.514 124.46C121.462 120.822 121.528 115.782 122.148 112.446C122.198 112.174 122.454 111.994 122.732 112.046C123.004 112.096 123.182 112.358 123.132 112.63C122.528 115.884 122.462 120.852 122.514 124.448C122.518 124.724 122.298 124.95 122.02 124.954C122.02 124.954 122.016 124.954 122.014 124.954Z" fill="#232538"/>
<path d="M124.106 108.838C124.032 108.838 123.956 108.822 123.886 108.788C123.638 108.666 123.536 108.366 123.658 108.118C125.45 104.47 128.004 101.622 128.112 101.504C128.298 101.3 128.612 101.284 128.818 101.468C129.024 101.654 129.038 101.968 128.854 102.174C128.828 102.202 126.284 105.04 124.556 108.56C124.468 108.736 124.292 108.838 124.106 108.838Z" fill="#232538"/>
</svg>
