<svg width="200" height="200" viewBox="0 0 200 200" fill="none" xmlns="http://www.w3.org/2000/svg">
<path d="M174.43 113.42C176.7 109.11 178 104.21 178 99C178 85.758 169.682 74.486 157.998 70.044C157.998 70.03 158 70.016 158 70C158 46.804 139.196 28 116 28C96.432 28 80.038 41.402 75.374 59.514C72.422 58.544 69.276 58 66 58C50.616 58 37.954 69.586 36.22 84.504C25.812 86.706 18 95.938 18 107C18 119.702 28.298 130 41 130C41.354 130 41.704 129.976 42.052 129.956C42.044 130.306 42 130.648 42 131C42 153.644 60.356 172 83 172C95.874 172 107.35 166.056 114.868 156.772C119.224 161.222 125.28 164 132 164C141.3 164 149.348 158.7 153.332 150.964C155.436 151.634 157.674 152 160 152C172.15 152 182 142.15 182 130C182 123.378 179.06 117.454 174.43 113.42Z" fill="#FAFBFC"/>
<path d="M124.25 77C124.25 77 116.97 77 112 77C107.03 77 103 72.97 103 68C103 63.334 106.564 59.542 111.11 59.09C111.066 58.728 111 58.374 111 58C111 53.03 115.03 49 120 49C122.876 49 125.406 50.372 127.054 52.472C127.334 47.2 131.658 43 137 43C142.522 43 147 47.478 147 53C147 53.892 146.846 54.74 146.626 55.564C147.91 54.01 149.826 53 152 53C155.562 53 158.468 55.67 158.91 59.11C159.272 59.066 159.626 59 160 59C164.97 59 169 63.03 169 68C169 72.97 164.97 77 160 77C155.03 77 141 77 141 77H130.25V78H124.25V77Z" fill="#FAFBFC"/>
<path d="M137 42C143.066 42 148 46.934 148 53C148 53.032 148 53.062 148 53.094C149.204 52.384 150.58 52 152 52C155.662 52 158.822 54.522 159.716 58.01C159.81 58.004 159.904 58 160 58C165.514 58 170 62.486 170 68C170 73.514 165.514 78 160 78H130.25C129.698 78 129.25 77.552 129.25 77C129.25 76.448 129.698 76 130.25 76H160C164.412 76 168 72.412 168 68C168 63.588 164.412 60 160 60C159.766 60 159.54 60.034 159.314 60.064L159.032 60.102C158.99 60.108 158.95 60.11 158.908 60.11C158.416 60.11 157.984 59.74 157.918 59.236C157.536 56.25 154.992 54 152 54C150.23 54 148.554 54.802 147.398 56.2C147.202 56.436 146.916 56.564 146.626 56.564C146.47 56.564 146.314 56.528 146.17 56.452C145.752 56.238 145.542 55.76 145.662 55.306C145.892 54.436 146 53.704 146 53C146 48.038 141.962 44 137 44C132.238 44 128.306 47.744 128.052 52.526C128.03 52.942 127.752 53.3 127.354 53.426C127.254 53.458 127.152 53.474 127.05 53.474C126.75 53.474 126.458 53.336 126.266 53.09C124.724 51.126 122.442 50 120 50C115.588 50 112 53.588 112 58C112 58.234 112.034 58.46 112.064 58.686L112.102 58.968C112.134 59.236 112.058 59.504 111.89 59.714C111.722 59.924 111.476 60.058 111.21 60.084C107.098 60.494 104 63.898 104 68C104 72.412 107.588 76 112 76H124.25C124.802 76 125.25 76.448 125.25 77C125.25 77.552 124.802 78 124.25 78H112C106.486 78 102 73.514 102 68C102 63.206 105.378 59.174 110.006 58.246C110.002 58.164 110 58.082 110 58C110 52.486 114.486 48 120 48C122.352 48 124.586 48.832 126.366 50.328C127.562 45.52 131.89 42 137 42Z" fill="#232538"/>
<path d="M140 56C142.806 56 145.218 57.998 145.826 60.682C146.56 60.238 147.398 60 148.25 60C150.654 60 152.646 61.794 152.956 64.136C153.362 64.044 153.748 64 154.126 64C157.184 64 159.748 66.4 159.962 69.464C159.98 69.74 159.772 69.98 159.498 70C159.486 70 159.474 70 159.462 70C159.202 70 158.982 69.798 158.964 69.536C158.786 66.994 156.662 65 154.126 65C153.668 65 153.186 65.084 152.65 65.254C152.606 65.268 152.56 65.274 152.516 65.274C152.406 65.274 152.296 65.234 152.204 65.166C152.076 65.074 152 64.91 152 64.75C152 62.682 150.318 61 148.25 61C147.356 61 146.48 61.336 145.788 61.946C145.694 62.028 145.576 62.072 145.458 62.072C145.394 62.072 145.332 62.06 145.272 62.034C145.096 61.964 144.976 61.8 144.962 61.61C144.754 59.024 142.576 57 140 57C139.584 57 139.15 57.068 138.636 57.214C138.59 57.228 138.542 57.234 138.496 57.234C138.278 57.234 138.082 57.088 138.018 56.87C137.942 56.604 138.096 56.328 138.362 56.252C138.966 56.08 139.488 56 140 56ZM112.234 59C114.886 59 117.25 60.794 117.982 63.364C118.058 63.63 117.904 63.906 117.638 63.982C117.59 63.994 117.544 64 117.5 64C117.282 64 117.082 63.856 117.02 63.636C116.41 61.496 114.442 60 112.234 60C112 60 111.774 60.028 111.55 60.058C111.526 60.062 111.504 60.064 111.48 60.064C111.238 60.064 111.022 59.88 110.988 59.63C110.95 59.356 111.142 59.104 111.416 59.068C111.684 59.032 111.956 59 112.234 59Z" fill="#232538"/>
<path d="M164.81 122H145C144.448 122 144 121.552 144 121C144 120.448 144.448 120 145 120H164.81C165.362 120 165.81 120.448 165.81 121C165.81 121.552 165.364 122 164.81 122ZM171 122H169C168.448 122 168 121.552 168 121C168 120.448 168.448 120 169 120H171C171.552 120 172 120.448 172 121C172 121.552 171.554 122 171 122ZM180.982 126H163C162.448 126 162 125.552 162 125C162 124.448 162.448 124 163 124H180.982C181.534 124 181.982 124.448 181.982 125C181.982 125.552 181.534 126 180.982 126ZM159 126H157C156.448 126 156 125.552 156 125C156 124.448 156.448 124 157 124H159C159.552 124 160 124.448 160 125C160 125.552 159.554 126 159 126ZM153 126H149C148.448 126 148 125.552 148 125C148 124.448 148.448 124 149 124H153C153.552 124 154 124.448 154 125C154 125.552 153.554 126 153 126ZM165 130H161C160.448 130 160 129.552 160 129C160 128.448 160.448 128 161 128H165C165.552 128 166 128.448 166 129C166 129.552 165.552 130 165 130ZM171 112C170.646 112 169.354 112 169 112C168.448 112 168 112.448 168 113C168 113.552 168.448 114 169 114C169.354 114 170.646 114 171 114C171.552 114 172 113.552 172 113C172 112.448 171.552 112 171 112ZM171 116C170.646 116 161.354 116 161 116C160.448 116 160 116.448 160 117C160 117.552 160.448 118 161 118C161.354 118 170.646 118 171 118C171.552 118 172 117.552 172 117C172 116.448 171.552 116 171 116ZM181 120C180.646 120 175.354 120 175 120C174.448 120 174 120.448 174 121C174 121.552 174.448 122 175 122C175.354 122 180.646 122 181 122C181.552 122 182 121.552 182 121C182 120.448 181.552 120 181 120Z" fill="#FAFBFC"/>
<path d="M53 144H33C32.448 144 32 143.552 32 143C32 142.448 32.448 142 33 142H53C53.552 142 54 142.448 54 143C54 143.552 53.552 144 53 144ZM61 144H57C56.448 144 56 143.552 56 143C56 142.448 56.448 142 57 142H61C61.552 142 62 142.448 62 143C62 143.552 61.552 144 61 144ZM71 148H51C50.448 148 50 147.552 50 147C50 146.448 50.448 146 51 146H71C71.552 146 72 146.448 72 147C72 147.552 71.554 148 71 148ZM47 148H45C44.448 148 44 147.552 44 147C44 146.448 44.448 146 45 146H47C47.552 146 48 146.448 48 147C48 147.552 47.552 148 47 148ZM40.75 148H37C36.448 148 36 147.552 36 147C36 146.448 36.448 146 37 146H40.75C41.302 146 41.75 146.448 41.75 147C41.75 147.552 41.302 148 40.75 148ZM59 140H49C48.448 140 48 139.552 48 139C48 138.448 48.448 138 49 138H59C59.552 138 60 138.448 60 139C60 139.552 59.554 140 59 140ZM53 152H49C48.448 152 48 151.552 48 151C48 150.448 48.448 150 49 150H53C53.552 150 54 150.448 54 151C54 151.552 53.552 152 53 152Z" fill="#FAFBFC"/>
<path d="M102.309 146.784L85.3828 152.078L85.4348 93.958L118.633 93.99L118.581 152.088L102.309 146.784Z" fill="#E6484F"/>
<path d="M86.8325 95.362L117.23 95.39L117.182 150.16L103.168 145.59L102.318 145.312L101.464 145.58L86.7845 150.172L86.8325 95.362ZM84.0365 92.558L83.9805 153.984L102.3 148.252L119.978 154.016L120.032 92.59L84.0365 92.558Z" fill="#232538"/>
<path d="M91 145.5C90.724 145.5 90.5 145.276 90.5 145V143C90.5 142.724 90.724 142.5 91 142.5C91.276 142.5 91.5 142.724 91.5 143V145C91.5 145.276 91.276 145.5 91 145.5Z" fill="#232538"/>
<path d="M91 139.5C90.724 139.5 90.5 139.276 90.5 139V131C90.5 130.724 90.724 130.5 91 130.5C91.276 130.5 91.5 130.724 91.5 131V139C91.5 139.276 91.276 139.5 91 139.5Z" fill="#232538"/>
<path d="M113 147.5C112.724 147.5 112.5 147.276 112.5 147V139C112.5 138.724 112.724 138.5 113 138.5C113.276 138.5 113.5 138.724 113.5 139V147C113.5 147.276 113.276 147.5 113 147.5Z" fill="#232538"/>
<path d="M109.83 127.772C109.212 127.772 108.618 127.636 108.06 127.366L105.766 126.256C104.84 125.806 103.806 125.57 102.774 125.57C101.744 125.57 100.71 125.806 99.7841 126.254L97.4901 127.366C96.9321 127.636 96.3361 127.772 95.7181 127.772C94.5161 127.774 93.3841 127.246 92.6081 126.328L90.9641 124.38C89.6561 122.834 87.7421 121.944 85.7141 121.944C85.7141 121.944 82.9481 122.028 82.9461 122.028C81.0181 122.028 79.4141 120.82 78.9141 119.094L78.2041 116.646C77.6161 114.618 76.1561 112.998 74.2001 112.2L71.8421 111.238C70.1201 110.536 69.0921 108.76 69.3461 106.918L69.6921 104.392C69.9801 102.302 69.3061 100.228 67.8441 98.702L66.0801 96.864C64.7921 95.522 64.5781 93.482 65.5581 91.902L66.9001 89.738C68.0141 87.944 68.2421 85.774 67.5261 83.786L66.6621 81.39C66.0321 79.64 66.6641 77.688 68.2041 76.644L70.3121 75.212C72.0581 74.024 73.1481 72.138 73.3041 70.03L73.4901 67.488C73.6261 65.634 74.9981 64.11 76.8281 63.78L79.3361 63.326C81.4161 62.954 83.1801 61.672 84.1761 59.808L85.3781 57.566C86.0881 56.24 87.4621 55.418 88.9661 55.418C89.2921 55.418 89.6201 55.458 89.9381 55.536L92.4101 56.146C92.9481 56.276 93.4981 56.346 94.0481 56.346C95.5661 56.346 97.0621 55.832 98.2621 54.9L100.274 53.34C100.996 52.782 101.858 52.484 102.77 52.484C103.682 52.484 104.544 52.78 105.266 53.34L107.28 54.9C108.478 55.832 109.974 56.346 111.494 56.346C112.044 56.346 112.596 56.278 113.132 56.146L115.606 55.536C115.924 55.458 116.252 55.418 116.578 55.418C118.08 55.418 119.454 56.24 120.164 57.564L121.368 59.81C122.364 61.672 124.128 62.954 126.208 63.328L128.714 63.778C130.546 64.108 131.918 65.634 132.054 67.486L132.24 70.028C132.394 72.136 133.486 74.022 135.232 75.21L137.34 76.642C138.88 77.686 139.512 79.638 138.882 81.388L138.018 83.784C137.304 85.77 137.53 87.938 138.644 89.734L139.988 91.9C140.968 93.48 140.754 95.522 139.466 96.862L137.704 98.7C136.242 100.226 135.568 102.3 135.856 104.392L136.202 106.916C136.454 108.758 135.428 110.536 133.706 111.236L131.346 112.198C129.39 112.994 127.932 114.616 127.344 116.644L126.634 119.092C126.134 120.82 124.526 122.028 122.728 122.028L119.832 121.942C117.804 121.942 115.89 122.83 114.582 124.38L112.94 126.324C112.166 127.246 111.032 127.772 109.83 127.772Z" fill="#F9E65C"/>
<path d="M102.774 53.888C103.372 53.888 103.938 54.082 104.412 54.45L106.424 56.012C107.868 57.132 109.668 57.748 111.494 57.748C112.158 57.748 112.824 57.668 113.468 57.508L115.942 56.9C116.152 56.848 116.366 56.822 116.58 56.822C117.566 56.822 118.466 57.362 118.932 58.232L120.134 60.478C121.334 62.72 123.46 64.264 125.962 64.712L128.468 65.162C129.67 65.378 130.57 66.378 130.66 67.596L130.846 70.136C131.032 72.672 132.344 74.944 134.448 76.374L136.554 77.804C137.564 78.49 137.98 79.772 137.566 80.92L136.702 83.316C135.84 85.708 136.114 88.32 137.454 90.48L138.798 92.646C139.442 93.682 139.3 95.022 138.456 95.9L136.692 97.738C134.932 99.572 134.12 102.07 134.466 104.588L134.812 107.112C134.978 108.32 134.306 109.488 133.174 109.946L130.816 110.908C128.462 111.868 126.704 113.82 125.996 116.262L125.286 118.708C124.958 119.84 123.904 120.632 122.64 120.632C122.638 120.632 122.638 120.632 122.636 120.632L120.09 120.55L119.828 120.546C117.386 120.546 115.084 121.616 113.51 123.48L111.866 125.426C111.358 126.028 110.614 126.374 109.824 126.374C109.42 126.374 109.03 126.284 108.664 126.108L106.37 124.998C105.254 124.458 104.008 124.172 102.768 124.172C101.528 124.172 100.284 124.458 99.166 124.998L96.874 126.108C96.508 126.284 96.118 126.374 95.714 126.374C94.924 126.374 94.18 126.028 93.672 125.426L92.028 123.48C90.454 121.616 88.15 120.546 85.71 120.546L85.448 120.55L82.816 120.634C81.636 120.634 80.582 119.842 80.254 118.708L79.544 116.262C78.836 113.82 77.078 111.868 74.724 110.908L72.364 109.946C71.234 109.486 70.562 108.32 70.728 107.112L71.074 104.588C71.42 102.068 70.608 99.572 68.848 97.738L67.084 95.9C66.24 95.022 66.098 93.682 66.742 92.646L68.084 90.482C69.424 88.322 69.7 85.71 68.838 83.318L67.974 80.922C67.56 79.774 67.976 78.494 68.986 77.808L71.094 76.378C73.198 74.948 74.51 72.674 74.696 70.14L74.882 67.6C74.97 66.384 75.872 65.382 77.072 65.166L79.578 64.716C82.082 64.268 84.206 62.724 85.406 60.482L86.608 58.236C87.074 57.366 87.976 56.826 88.96 56.826C89.174 56.826 89.388 56.852 89.598 56.904L92.072 57.512C92.718 57.672 93.382 57.752 94.048 57.752C95.874 57.752 97.676 57.136 99.118 56.016L101.13 54.454C101.61 54.084 102.176 53.888 102.774 53.888ZM102.774 51.088C101.59 51.088 100.408 51.472 99.42 52.238L97.408 53.8C96.438 54.552 95.256 54.948 94.054 54.948C93.618 54.948 93.18 54.896 92.748 54.79L90.274 54.182C89.838 54.074 89.4 54.022 88.966 54.022C86.986 54.022 85.114 55.104 84.146 56.91L82.944 59.156C82.154 60.63 80.734 61.66 79.09 61.956L76.582 62.406C74.124 62.848 72.276 64.9 72.094 67.392L71.908 69.932C71.786 71.598 70.908 73.118 69.526 74.058L67.418 75.488C65.352 76.892 64.498 79.518 65.346 81.868L66.21 84.264C66.776 85.838 66.594 87.582 65.712 89.002L64.37 91.168C63.052 93.29 63.342 96.036 65.072 97.838L66.836 99.676C67.994 100.882 68.536 102.552 68.308 104.208L67.962 106.732C67.622 109.206 69.002 111.598 71.316 112.54L73.674 113.502C75.222 114.132 76.396 115.438 76.862 117.044L77.572 119.49C78.252 121.832 80.398 123.436 82.824 123.436C82.882 123.436 82.94 123.436 82.998 123.434L85.544 123.352C85.602 123.35 85.66 123.35 85.718 123.35C87.326 123.35 88.856 124.058 89.898 125.29L91.542 127.236C92.608 128.498 94.15 129.176 95.724 129.176C96.53 129.176 97.342 128.998 98.104 128.63L100.396 127.52C101.148 127.156 101.964 126.974 102.778 126.974C103.592 126.974 104.408 127.156 105.16 127.52L107.452 128.63C108.214 128.998 109.026 129.176 109.832 129.176C111.404 129.176 112.948 128.498 114.014 127.236L115.658 125.29C116.7 124.056 118.23 123.35 119.838 123.35C119.896 123.35 119.954 123.35 120.012 123.352L122.558 123.434C122.616 123.436 122.674 123.436 122.732 123.436C125.158 123.436 127.304 121.832 127.984 119.49L128.694 117.044C129.16 115.438 130.334 114.134 131.882 113.502L134.24 112.54C136.554 111.598 137.934 109.206 137.594 106.732L137.248 104.208C137.02 102.552 137.562 100.882 138.72 99.676L140.484 97.838C142.214 96.036 142.502 93.29 141.186 91.168L139.836 89C138.954 87.58 138.772 85.834 139.338 84.262L140.202 81.866C141.048 79.516 140.196 76.89 138.13 75.486L136.022 74.056C134.64 73.116 133.762 71.598 133.64 69.93L133.454 67.39C133.272 64.898 131.424 62.848 128.966 62.404L126.458 61.954C124.812 61.66 123.394 60.628 122.604 59.154L121.4 56.91C120.432 55.104 118.56 54.022 116.58 54.022C116.146 54.022 115.708 54.074 115.272 54.182L112.8 54.79C112.368 54.896 111.93 54.948 111.494 54.948C110.292 54.948 109.11 54.552 108.14 53.8L106.128 52.238C105.14 51.472 103.958 51.088 102.774 51.088Z" fill="#232538"/>
<path d="M130.628 83.192C130.2 83.192 129.804 82.916 129.672 82.486C129.546 82.078 129.412 81.672 129.268 81.274C128.712 79.722 128.01 78.208 127.182 76.776C126.906 76.298 127.07 75.686 127.548 75.41C128.024 75.128 128.638 75.296 128.914 75.776C129.8 77.312 130.554 78.934 131.152 80.598C131.306 81.028 131.45 81.462 131.584 81.896C131.746 82.426 131.45 82.984 130.922 83.146C130.824 83.178 130.724 83.192 130.628 83.192ZM74.242 85.226C74.17 85.226 74.098 85.218 74.026 85.202C73.486 85.082 73.146 84.55 73.266 84.008C76.292 70.326 88.702 60.396 102.774 60.396C111.422 60.396 119.672 64.102 125.408 70.562C125.842 71.05 126.26 71.552 126.66 72.07C127 72.506 126.92 73.134 126.484 73.472C126.05 73.812 125.418 73.73 125.082 73.296C124.706 72.814 124.318 72.346 123.912 71.89C118.556 65.856 110.852 62.396 102.774 62.396C89.632 62.396 78.042 71.668 75.218 84.44C75.114 84.908 74.702 85.226 74.242 85.226ZM102.774 120.654C88.042 120.654 75.522 110.168 73.004 95.72C72.91 95.176 73.274 94.658 73.818 94.564C74.368 94.46 74.88 94.832 74.976 95.376C77.326 108.864 89.018 118.654 102.776 118.654C118.336 118.654 130.994 106.036 130.994 90.528C130.994 89.114 130.888 87.694 130.678 86.308C130.596 85.764 130.972 85.254 131.518 85.172C132.068 85.09 132.574 85.464 132.656 86.012C132.88 87.494 132.992 89.016 132.992 90.53C132.992 107.138 119.436 120.654 102.774 120.654Z" fill="#232538"/>
<path d="M91.9679 71.648C91.7959 71.648 91.6279 71.558 91.5359 71.398C91.3979 71.16 91.4799 70.854 91.7179 70.714C92.8939 70.034 94.1339 69.458 95.4039 69.004C95.7339 68.888 96.0619 68.778 96.3959 68.676C96.6659 68.598 96.9399 68.74 97.0219 69.004C97.1039 69.268 96.9559 69.548 96.6919 69.63C96.3699 69.73 96.0539 69.836 95.7399 69.946C94.5299 70.382 93.3439 70.93 92.2179 71.582C92.1399 71.626 92.0539 71.648 91.9679 71.648ZM98.1179 113.26C98.0819 113.26 98.0459 113.256 98.0099 113.248C87.5539 110.934 79.9639 101.45 79.9639 90.694C79.9639 84.084 82.7959 77.78 87.7339 73.396C88.1079 73.064 88.4919 72.744 88.8859 72.438C89.1039 72.262 89.4179 72.31 89.5879 72.526C89.7559 72.744 89.7159 73.06 89.4999 73.228C89.1239 73.52 88.7539 73.826 88.3979 74.142C83.6739 78.338 80.9639 84.37 80.9639 90.694C80.9639 100.986 88.2239 110.06 98.2259 112.272C98.4959 112.332 98.6659 112.598 98.6059 112.868C98.5539 113.102 98.3459 113.26 98.1179 113.26ZM106.872 113.456C106.634 113.456 106.422 113.284 106.38 113.042C106.332 112.77 106.514 112.51 106.786 112.464C117.348 110.622 125.016 101.468 125.016 90.694C125.016 78.51 115.136 68.598 102.99 68.598C101.882 68.598 100.77 68.68 99.6839 68.844C99.4179 68.902 99.1559 68.7 99.1159 68.424C99.0739 68.15 99.2619 67.896 99.5359 67.856C100.67 67.684 101.832 67.598 102.99 67.598C115.688 67.598 126.016 77.96 126.016 90.694C126.016 101.954 118.002 111.524 106.958 113.448C106.93 113.454 106.902 113.456 106.872 113.456Z" fill="#232538"/>
<path d="M55 113C55 113 51.866 113 48 113C44.134 113 41 109.866 41 106C41 102.438 43.67 99.532 47.11 99.09C47.054 98.732 47 98.374 47 98C47 94.134 50.134 91 54 91C56.064 91 57.9 91.91 59.18 93.33C59.948 89.714 63.154 87 67 87C71.418 87 75 90.582 75 95C75 95.382 74.94 95.748 74.888 96.116C75.744 95.428 76.816 95 78 95C80.456 95 82.49 96.774 82.91 99.11C83.268 99.054 83.626 99 84 99C87.866 99 91 102.134 91 106C91 109.866 87.866 113 84 113C80.134 113 69 113 69 113V114H55V113Z" fill="#FAFBFC"/>
<path d="M51.5004 104C51.7764 104 52.0004 103.776 52.0004 103.5C52.0004 101.054 50.0104 99.064 47.5644 99.064C47.4964 99.082 46.0904 99.062 45.0764 99.336C44.8104 99.408 44.6524 99.682 44.7244 99.948C44.7964 100.216 45.0704 100.374 45.3364 100.3C46.2244 100.06 47.5364 100.06 47.5624 100.064C49.4584 100.064 51.0004 101.606 51.0004 103.5C51.0004 103.776 51.2244 104 51.5004 104ZM65.0004 112C64.7352 112 64.4809 112.105 64.2933 112.293C64.1058 112.48 64.0004 112.735 64.0004 113C64.0004 113.265 64.1058 113.52 64.2933 113.707C64.4809 113.895 64.7352 114 65.0004 114C65.2657 114 65.52 113.895 65.7075 113.707C65.8951 113.52 66.0004 113.265 66.0004 113C66.0004 112.735 65.8951 112.48 65.7075 112.293C65.52 112.105 65.2657 112 65.0004 112Z" fill="#232538"/>
<path d="M48 114H55C55.552 114 56 113.552 56 113C56 112.448 55.552 112 55 112H48C44.692 112 42 109.308 42 106C42 103.008 44.25 100.464 47.236 100.082C47.504 100.046 47.746 99.906 47.908 99.69C48.07 99.474 48.138 99.202 48.096 98.936C48.05 98.628 48 98.32 48 98C48 94.692 50.692 92 54 92C55.7 92 57.276 92.71 58.438 94C58.688 94.278 59.08 94.396 59.438 94.296C59.802 94.198 60.08 93.906 60.158 93.538C60.84 90.33 63.718 88 67 88C70.86 88 74 91.14 74 95C74 95.286 73.958 95.56 73.918 95.836C73.86 96.242 74.044 96.712 74.402 96.916C74.76 97.12 75.194 97.152 75.514 96.896C76.244 96.31 77.102 96 78 96C79.932 96 81.584 97.382 81.926 99.288C82.022 99.822 82.518 100.18 83.064 100.098C83.372 100.05 83.68 100 84 100C87.308 100 90 102.692 90 106C90 109.308 87.308 112 84 112H69C68.448 112 68 112.448 68 113C68 113.552 68.448 114 69 114H84C88.412 114 92 110.412 92 106C92 101.588 88.412 98 84 98C83.882 98 83.768 98.004 83.652 98.012C82.824 95.64 80.578 94 78 94C77.302 94 76.622 94.122 75.978 94.36C75.648 89.694 71.748 86 67 86C63.338 86 60.068 88.254 58.694 91.548C57.334 90.552 55.69 90 54 90C49.588 90 46 93.588 46 98C46 98.096 46.002 98.19 46.008 98.284C42.522 99.18 40 102.338 40 106C40 110.412 43.588 114 48 114Z" fill="#232538"/>
<path d="M59 112C59.318 112 60.682 112 61 112C61.552 112 62 112.448 62 113C62 113.552 61.552 114 61 114C60.682 114 59.318 114 59 114C58.448 114 58 113.552 58 113C58 112.448 58.448 112 59 112Z" fill="#232538"/>
<path d="M113 135.5C112.724 135.5 112.5 135.276 112.5 135V131C112.5 130.724 112.724 130.5 113 130.5C113.276 130.5 113.5 130.724 113.5 131V135C113.5 135.276 113.276 135.5 113 135.5Z" fill="#232538"/>
</svg>
