<svg width="200" height="200" viewBox="0 0 200 200" fill="none" xmlns="http://www.w3.org/2000/svg">
<path d="M174.43 113.42C176.7 109.11 178 104.21 178 99C178 85.758 169.682 74.486 157.998 70.044C157.998 70.03 158 70.016 158 70C158 46.804 139.196 28 116 28C96.432 28 80.038 41.402 75.374 59.514C72.422 58.544 69.276 58 66 58C50.616 58 37.954 69.586 36.22 84.504C25.812 86.706 18 95.938 18 107C18 119.702 28.298 130 41 130C41.354 130 41.704 129.976 42.052 129.956C42.044 130.306 42 130.648 42 131C42 153.644 60.356 172 83 172C95.874 172 107.35 166.056 114.868 156.772C119.224 161.222 125.28 164 132 164C141.3 164 149.348 158.7 153.332 150.964C155.436 151.634 157.674 152 160 152C172.15 152 182 142.15 182 130C182 123.378 179.06 117.454 174.43 113.42Z" fill="#FAFBFC"/>
<path d="M66.81 158H47C46.448 158 46 157.552 46 157C46 156.448 46.448 156 47 156H66.81C67.362 156 67.81 156.448 67.81 157C67.81 157.552 67.364 158 66.81 158Z" fill="#FAFBFC"/>
<path d="M73 158H71C70.448 158 70 157.552 70 157C70 156.448 70.448 156 71 156H73C73.552 156 74 156.448 74 157C74 157.552 73.554 158 73 158Z" fill="#FAFBFC"/>
<path d="M82.982 162H65C64.448 162 64 161.552 64 161C64 160.448 64.448 160 65 160H82.982C83.534 160 83.982 160.448 83.982 161C83.982 161.552 83.534 162 82.982 162Z" fill="#FAFBFC"/>
<path d="M61 162H59C58.448 162 58 161.552 58 161C58 160.448 58.448 160 59 160H61C61.552 160 62 160.448 62 161C62 161.552 61.554 162 61 162Z" fill="#FAFBFC"/>
<path d="M55 162H51C50.448 162 50 161.552 50 161C50 160.448 50.448 160 51 160H55C55.552 160 56 160.448 56 161C56 161.552 55.554 162 55 162Z" fill="#FAFBFC"/>
<path d="M67 166H63C62.448 166 62 165.552 62 165C62 164.448 62.448 164 63 164H67C67.552 164 68 164.448 68 165C68 165.552 67.552 166 67 166Z" fill="#FAFBFC"/>
<path d="M73 148C72.646 148 71.354 148 71 148C70.448 148 70 148.448 70 149C70 149.552 70.448 150 71 150C71.354 150 72.646 150 73 150C73.552 150 74 149.552 74 149C74 148.448 73.552 148 73 148Z" fill="#FAFBFC"/>
<path d="M73 152C72.646 152 63.354 152 63 152C62.448 152 62 152.448 62 153C62 153.552 62.448 154 63 154C63.354 154 72.646 154 73 154C73.552 154 74 153.552 74 153C74 152.448 73.552 152 73 152Z" fill="#FAFBFC"/>
<path d="M83 156C82.646 156 77.354 156 77 156C76.448 156 76 156.448 76 157C76 157.552 76.448 158 77 158C77.354 158 82.646 158 83 158C83.552 158 84 157.552 84 157C84 156.448 83.552 156 83 156Z" fill="#FAFBFC"/>
<path d="M142 48H122C121.448 48 121 47.552 121 47C121 46.448 121.448 46 122 46H142C142.552 46 143 46.448 143 47C143 47.552 142.552 48 142 48Z" fill="#FAFBFC"/>
<path d="M150 48H146C145.448 48 145 47.552 145 47C145 46.448 145.448 46 146 46H150C150.552 46 151 46.448 151 47C151 47.552 150.552 48 150 48Z" fill="#FAFBFC"/>
<path d="M160 52H140C139.448 52 139 51.552 139 51C139 50.448 139.448 50 140 50H160C160.552 50 161 50.448 161 51C161 51.552 160.554 52 160 52Z" fill="#FAFBFC"/>
<path d="M136 52H134C133.448 52 133 51.552 133 51C133 50.448 133.448 50 134 50H136C136.552 50 137 50.448 137 51C137 51.552 136.552 52 136 52Z" fill="#FAFBFC"/>
<path d="M129.75 52H126C125.448 52 125 51.552 125 51C125 50.448 125.448 50 126 50H129.75C130.302 50 130.75 50.448 130.75 51C130.75 51.552 130.302 52 129.75 52Z" fill="#FAFBFC"/>
<path d="M148 44H138C137.448 44 137 43.552 137 43C137 42.448 137.448 42 138 42H148C148.552 42 149 42.448 149 43C149 43.552 148.554 44 148 44Z" fill="#FAFBFC"/>
<path d="M142 56H138C137.448 56 137 55.552 137 55C137 54.448 137.448 54 138 54H142C142.552 54 143 54.448 143 55C143 55.552 142.552 56 142 56Z" fill="#FAFBFC"/>
<path d="M88 60H99.5C104.47 61.5 108.5 57.47 108.5 52.5C108.5 47.834 104.936 44.042 100.39 43.59C100.434 43.228 100.5 42.874 100.5 42.5C100.5 37.53 96.47 33.5 91.5 33.5C88.624 33.5 86.094 34.872 84.446 36.972C84.166 31.7 79.842 27.5 74.5 27.5C68.978 27.5 64.5 31.978 64.5 37.5C64.5 38.392 64.654 39.24 64.874 40.064C63.59 38.51 61.674 37.5 59.5 37.5C55.938 37.5 53.032 40.17 52.59 43.61C52.228 43.566 51.874 43.5 51.5 43.5C46.53 43.5 42.5 47.53 42.5 52.5C42.5 57.47 46.53 61.5 51.5 60H70.5H82V62H88V60Z" fill="#FAFBFC"/>
<path d="M75 26C68.934 26 64 30.934 64 37C64 37.032 64 37.062 64 37.094C62.796 36.384 61.42 36 60 36C56.338 36 53.178 38.522 52.284 42.01C52.19 42.004 52.096 42 52 42C45.802 42 40.902 47.668 42.214 54.094C43.174 58.796 47.592 62 52.392 62H81.75C82.302 62 82.75 61.552 82.75 61C82.75 60.448 82.302 60 81.75 60H52.314C48.474 60 44.94 57.436 44.172 53.674C43.122 48.534 47.042 44 52 44C52.234 44 52.46 44.034 52.686 44.064L52.968 44.102C53.01 44.108 53.05 44.11 53.092 44.11C53.584 44.11 54.016 43.74 54.082 43.236C54.464 40.25 57.008 38 60 38C61.77 38 63.446 38.802 64.602 40.2C64.798 40.436 65.084 40.564 65.374 40.564C65.53 40.564 65.686 40.528 65.83 40.452C66.248 40.238 66.458 39.76 66.338 39.306C66.018 38.106 65.934 37.168 66.044 36.208C66.524 31.954 69.962 28.39 74.228 28.032C79.33 27.602 83.678 31.488 83.946 36.524C83.968 36.94 84.246 37.298 84.644 37.424C84.744 37.456 84.846 37.472 84.948 37.472C85.248 37.472 85.54 37.334 85.732 37.088C87.276 35.126 89.558 34 92 34C96.412 34 100 37.588 100 42C100 42.234 99.966 42.46 99.936 42.686L99.898 42.968C99.866 43.236 99.942 43.504 100.11 43.714C100.278 43.924 100.524 44.058 100.79 44.084C105.494 44.552 108.874 48.942 107.798 53.814C106.982 57.52 103.45 60 99.654 60H87.75C87.198 60 86.75 60.448 86.75 61C86.75 61.552 87.198 62 87.75 62H99.626C104.56 62 109.042 58.592 109.856 53.724C110.78 48.198 107.168 43.284 101.994 42.244C101.998 42.164 102 42.082 102 42C102 36.486 97.514 32 92 32C89.648 32 87.414 32.832 85.634 34.328C84.438 29.52 80.11 26 75 26Z" fill="#232538"/>
<path d="M71.5002 40.5C68.6942 40.5 66.2822 42.498 65.6742 45.182C64.9402 44.738 64.1022 44.5 63.2502 44.5C60.8462 44.5 58.8542 46.294 58.5442 48.636C58.1382 48.546 57.7522 48.5 57.3742 48.5C54.3162 48.5 51.7522 50.9 51.5382 53.964C51.5202 54.24 51.7262 54.478 52.0022 54.498C52.0142 54.498 52.0262 54.498 52.0382 54.498C52.2982 54.498 52.5182 54.296 52.5362 54.034C52.7142 51.492 54.8382 49.498 57.3742 49.498C57.8322 49.498 58.3142 49.582 58.8502 49.752C58.8942 49.766 58.9402 49.772 58.9842 49.772C59.0942 49.772 59.2042 49.732 59.2962 49.664C59.4242 49.57 59.5002 49.406 59.5002 49.246C59.5002 47.178 61.1822 45.496 63.2502 45.496C64.1442 45.496 65.0202 45.832 65.7122 46.442C65.8062 46.524 65.9242 46.568 66.0422 46.568C66.1062 46.568 66.1682 46.556 66.2282 46.53C66.4042 46.46 66.5242 46.296 66.5382 46.106C66.7422 43.522 68.9202 41.496 71.4962 41.496C71.9122 41.496 72.3462 41.564 72.8602 41.71C72.9062 41.724 72.9542 41.73 73.0002 41.73C73.2182 41.73 73.4142 41.584 73.4782 41.366C73.5542 41.1 73.4002 40.824 73.1342 40.748C72.5342 40.58 72.0122 40.5 71.5002 40.5Z" fill="#232538"/>
<path d="M99.2664 43.5C96.6144 43.5 94.2504 45.294 93.5184 47.864C93.4424 48.13 93.5964 48.406 93.8624 48.482C93.9084 48.496 93.9544 48.502 93.9984 48.502C94.2164 48.502 94.4164 48.358 94.4784 48.138C95.0884 45.996 97.0564 44.502 99.2644 44.502C99.4984 44.502 99.7244 44.53 99.9484 44.56C99.9724 44.564 99.9944 44.566 100.018 44.566C100.26 44.566 100.476 44.382 100.51 44.132C100.548 43.858 100.356 43.606 100.082 43.57C99.8164 43.532 99.5444 43.5 99.2664 43.5Z" fill="#232538"/>
<path d="M103.045 146.854C99.0508 146.854 94.6788 146.382 90.0548 145.448C87.1788 144.868 84.9788 143.796 82.4328 142.556C81.4708 142.086 80.4708 141.6 79.3808 141.112C75.9268 139.566 71.1348 136.346 68.6968 133.934C63.3628 128.66 56.2828 120.25 55.0928 107.3C55.4748 107.898 55.8548 108.498 56.2328 109.096C57.4748 111.06 58.7628 113.092 60.1408 115.064L62.6548 118.66L62.6908 113.796C62.7008 110.608 62.9008 109.124 63.1208 108.456C63.7948 109.354 64.7088 111.552 65.2788 112.918C65.6068 113.704 65.9008 114.406 66.1428 114.888L66.4628 115.532C68.1928 119.012 68.4128 119.228 72.3148 121.318L72.8368 121.598C74.0408 122.244 75.4208 123.19 76.8808 124.19C79.5788 126.036 82.3648 127.946 84.9888 128.678C91.4828 130.492 95.6068 131.336 97.9588 131.336C100.131 131.336 100.919 130.612 101.543 129.87C101.791 129.574 101.875 129.474 102.685 129.474C103.409 129.474 104.451 129.608 105.781 129.874L105.949 129.908L106.119 129.9C111.099 129.678 115.801 127.676 120.495 123.784C123.863 120.988 128.203 116.8 129.749 112.718C130.449 110.876 130.097 109.128 129.789 107.586C129.501 106.152 129.253 104.916 129.723 103.634C131.017 100.096 131.039 96.592 129.785 93.5C129.165 91.968 128.687 90.702 128.239 89.508C127.497 87.54 126.795 85.68 125.645 83.156C125.145 82.058 123.801 81.108 121.809 79.786C120.997 79.248 120.157 78.69 119.701 78.276C117.685 76.444 113.985 74.154 111.093 73.516C109.013 73.056 106.945 72.824 104.947 72.824C96.0628 72.824 88.6128 77.426 81.8848 82.4C81.4348 82.732 80.7308 83.366 79.9568 84.066C78.9968 84.938 77.5428 86.256 76.9428 86.556C73.5308 88.264 70.8528 89.322 68.0488 89.322C66.6608 89.322 65.2728 89.062 63.8048 88.528C62.2268 87.952 60.5968 87.17 60.2468 86.818C59.1208 85.692 58.6028 84.242 58.6608 82.384C58.8468 76.486 64.6948 69.014 67.1008 66.892C67.9668 66.13 68.8808 65.43 69.7948 64.728C70.5488 64.15 71.3008 63.572 72.0288 62.962C72.8648 62.264 73.6648 61.526 74.4688 60.788C75.2888 60.032 76.1088 59.276 76.9688 58.568C82.4548 54.042 89.8228 51.352 97.7148 50.998C98.7108 50.954 99.7408 50.93 100.789 50.93C108.751 50.93 116.407 52.234 121.793 54.508C127.841 57.06 132.251 61.252 136.917 65.688C137.717 66.448 138.529 67.22 139.359 67.994C139.865 68.464 140.577 69 141.403 69.62C143.529 71.214 146.739 73.622 147.449 76.004C147.755 77.032 147.531 77.938 147.267 78.988C146.915 80.398 146.479 82.144 147.475 84.24C147.855 85.604 148.167 86.622 148.445 87.54C148.963 89.238 149.371 90.58 149.931 93.192C150.919 97.796 150.793 105.468 149.655 109.946C149.205 111.714 148.565 113.954 147.589 115.578C146.405 117.55 144.963 119.61 143.571 121.602C142.151 123.634 140.683 125.734 139.447 127.788C137.969 130.252 136.437 131.79 134.497 133.736L133.337 134.908C128.647 139.692 122.627 142.952 113.809 145.476C110.617 146.39 106.993 146.854 103.045 146.854Z" fill="#78A0CF"/>
<path d="M100.784 52.33C108.566 52.33 116.026 53.594 121.246 55.796C127.06 58.25 131.18 62.168 135.952 66.704C136.754 67.468 137.568 68.24 138.4 69.016C138.96 69.538 139.7 70.094 140.558 70.738C142.416 72.132 145.526 74.464 146.104 76.402C146.292 77.032 146.166 77.606 145.906 78.646C145.526 80.166 145.012 82.23 146.156 84.726C146.526 86.046 146.83 87.044 147.104 87.946C147.632 89.678 148.014 90.93 148.562 93.484C149.512 97.914 149.392 105.294 148.298 109.602C147.874 111.274 147.272 113.384 146.388 114.858C145.228 116.788 143.802 118.828 142.422 120.802C140.988 122.852 139.506 124.972 138.248 127.066C136.854 129.386 135.448 130.798 133.502 132.752C133.128 133.128 132.74 133.516 132.336 133.928C127.826 138.53 121.994 141.678 113.424 144.13C110.352 145.01 106.86 145.456 103.044 145.456C99.1405 145.456 94.8625 144.992 90.3305 144.078C87.6285 143.534 85.5025 142.496 83.0425 141.298C82.0685 140.824 81.0565 140.33 79.9545 139.836C76.6865 138.372 71.9825 135.214 69.6825 132.942C65.5325 128.838 60.2925 122.782 57.7865 114.098C58.1825 114.69 58.5845 115.284 58.9965 115.872L64.0285 123.064L64.0905 114.286L64.0925 113.808C64.0925 113.776 64.0925 113.746 64.0925 113.714C64.3865 114.418 64.6465 115.03 64.8905 115.52L65.2125 116.166C67.0765 119.916 67.4985 120.334 71.6565 122.56L72.1765 122.838C73.3125 123.448 74.6625 124.374 76.0925 125.352C78.8825 127.264 81.7685 129.24 84.6145 130.034C91.3265 131.908 95.4425 132.744 97.9625 132.744C100.51 132.744 101.676 131.864 102.526 130.886C102.572 130.884 102.626 130.884 102.69 130.884C103.322 130.884 104.272 131.01 105.51 131.258L105.844 131.324L106.184 131.308C111.482 131.072 116.456 128.966 121.39 124.872C124.888 121.97 129.404 117.594 131.06 113.226C131.902 111.006 131.492 108.962 131.162 107.32C130.878 105.904 130.72 104.992 131.038 104.126C132.454 100.258 132.472 96.408 131.084 92.986C130.466 91.462 129.992 90.202 129.544 89.012C128.794 87.024 128.088 85.148 126.92 82.586C126.216 81.04 124.532 79.922 122.58 78.628C121.848 78.142 121.018 77.592 120.64 77.25C118.44 75.25 114.558 72.858 111.394 72.158C109.216 71.678 107.046 71.434 104.946 71.434C95.6585 71.434 87.9725 76.168 81.0505 81.282C80.5145 81.678 79.8225 82.306 79.0225 83.032C78.2445 83.74 76.7945 85.054 76.3165 85.312C73.0865 86.928 70.5785 87.93 68.0485 87.93C66.8265 87.93 65.5945 87.698 64.2825 87.22C63.0225 86.762 61.5445 86.078 61.2365 85.838C60.3885 84.99 60.0145 83.908 60.0605 82.438C60.2305 77.046 65.8285 69.892 68.0265 67.952C68.8445 67.232 69.7205 66.558 70.6485 65.846C71.4165 65.256 72.1825 64.666 72.9245 64.046C73.7945 63.32 74.6185 62.56 75.4145 61.828C76.2485 61.06 77.0365 60.334 77.8565 59.658C83.1105 55.324 90.1845 52.746 97.7745 52.406C98.7565 52.352 99.7685 52.33 100.784 52.33ZM64.5105 108.784H64.5205H64.5105ZM102.712 130.66H102.722H102.712ZM100.782 49.53C99.7125 49.53 98.6625 49.554 97.6485 49.6C89.8645 49.95 82.0845 52.53 76.0745 57.49C74.3725 58.894 72.8225 60.476 71.1285 61.892C69.5065 63.248 67.7585 64.448 66.1745 65.846C62.6425 68.96 53.1525 81.708 59.2565 87.812C60.0205 88.576 62.6145 89.588 63.3265 89.846C65.0045 90.458 66.5525 90.724 68.0505 90.724C71.2285 90.724 74.1665 89.516 77.5705 87.81C78.8125 87.188 81.5985 84.354 82.7165 83.528C90.3745 77.868 97.1565 74.226 104.946 74.228C106.826 74.228 108.766 74.44 110.79 74.888C113.336 75.45 116.828 77.562 118.756 79.316C120.164 80.596 123.77 82.424 124.37 83.74C126.184 87.726 126.828 89.936 128.488 94.032C129.676 96.966 129.496 100.186 128.408 103.158C127.216 106.408 129.572 109.248 128.442 112.23C127.002 116.026 122.728 120.12 119.602 122.714C115.646 125.998 111.194 128.28 106.058 128.508C104.526 128.202 103.458 128.08 102.688 128.08C99.6845 128.08 101.28 129.942 97.9625 129.942C96.0385 129.942 92.4585 129.316 85.3685 127.334C81.5805 126.276 76.9665 122.228 73.5025 120.368C69.0625 117.986 69.4165 118.302 67.3985 114.264C66.5805 112.63 65.1485 108.356 63.7625 107.164C63.4385 106.922 63.1585 106.812 62.9145 106.812C61.1985 106.812 61.3105 112.192 61.2945 114.264C59.1605 111.214 57.2865 108.07 55.2645 104.978C55.0765 104.69 54.7925 104.562 54.5105 104.562C54.0245 104.562 53.5445 104.942 53.5725 105.534C54.2465 119.942 61.9865 129.262 67.7185 134.932C70.3805 137.564 75.3985 140.86 78.8145 142.39C82.8245 144.186 85.6125 145.98 89.7825 146.822C94.0325 147.68 98.5645 148.254 103.05 148.254C106.868 148.254 110.652 147.838 114.2 146.822C121.83 144.638 128.788 141.558 134.342 135.888C136.872 133.304 138.792 131.608 140.654 128.508C143.072 124.484 146.376 120.324 148.794 116.3C149.802 114.624 150.472 112.442 151.018 110.292C152.224 105.538 152.334 97.696 151.306 92.9C150.424 88.786 149.91 87.76 148.794 83.744C147.236 80.626 149.704 78.65 148.794 75.606C147.668 71.84 142.112 68.648 140.316 66.974C134.502 61.552 129.666 56.314 122.342 53.222C116.092 50.584 107.924 49.53 100.782 49.53Z" fill="#232538"/>
<path d="M99.7227 67.962C104.197 67.406 109.217 67.158 115.193 69.886L99.7227 67.962Z" fill="#78A0CF"/>
<path d="M115.193 70.386C115.123 70.386 115.053 70.372 114.985 70.34C108.991 67.604 103.991 67.934 99.7849 68.458C99.4849 68.494 99.2589 68.296 99.2269 68.024C99.1909 67.75 99.3869 67.5 99.6609 67.466C104.011 66.926 109.169 66.586 115.399 69.432C115.651 69.546 115.763 69.844 115.647 70.094C115.563 70.278 115.381 70.386 115.193 70.386Z" fill="#232538"/>
<path d="M79.5566 77.154C84.0186 73.644 89.2326 70.284 95.8286 68.676L79.5566 77.154Z" fill="#78A0CF"/>
<path d="M79.5568 77.654C79.4088 77.654 79.2628 77.588 79.1648 77.464C78.9928 77.246 79.0328 76.932 79.2488 76.762C83.1568 73.688 88.5588 69.934 95.7088 68.19C95.9808 68.124 96.2488 68.288 96.3148 68.558C96.3788 68.826 96.2148 69.096 95.9468 69.162C88.9828 70.86 83.6948 74.536 79.8648 77.548C79.7748 77.62 79.6668 77.654 79.5568 77.654Z" fill="#232538"/>
<path d="M64.4061 79.628C62.5881 82.096 67.7821 87.03 76.2261 79.888L64.4061 79.628Z" fill="#78A0CF"/>
<path d="M68.0989 84.098C66.6029 84.098 65.3889 83.63 64.5509 82.846C63.4569 81.824 63.2349 80.378 64.0069 79.332C64.1729 79.108 64.4869 79.064 64.7069 79.226C64.9289 79.39 64.9769 79.702 64.8129 79.926C64.3449 80.562 64.5149 81.442 65.2369 82.118C66.5709 83.37 70.3289 84.23 75.9089 79.508C76.1189 79.33 76.4349 79.356 76.6129 79.566C76.7929 79.776 76.7649 80.092 76.5549 80.27C73.3169 83.004 70.3809 84.098 68.0989 84.098Z" fill="#232538"/>
<path d="M101.552 141.408C97.9344 141.434 93.9964 141.06 89.7344 140.152L101.552 141.408Z" fill="#78A0CF"/>
<path d="M101.202 141.91C97.4723 141.91 93.5803 141.484 89.6323 140.642C89.3603 140.584 89.1883 140.318 89.2483 140.048C89.3043 139.78 89.5663 139.604 89.8403 139.664C93.8463 140.518 97.7803 140.94 101.55 140.908C101.888 140.896 102.05 141.128 102.054 141.404C102.056 141.68 101.834 141.906 101.558 141.908C101.438 141.91 101.32 141.91 101.202 141.91Z" fill="#232538"/>
<path d="M133.505 126.646C133.505 126.646 124.873 138.988 106.593 141.104L133.505 126.646Z" fill="#78A0CF"/>
<path d="M106.595 141.604C106.343 141.604 106.129 141.416 106.099 141.162C106.065 140.888 106.263 140.64 106.539 140.608C124.365 138.544 133.011 126.482 133.095 126.36C133.255 126.132 133.567 126.08 133.793 126.238C134.019 126.396 134.075 126.708 133.917 126.934C133.829 127.06 124.945 139.484 106.653 141.602C106.631 141.602 106.615 141.604 106.595 141.604Z" fill="#232538"/>
<path d="M82.9802 128.554C82.8022 128.554 82.6222 128.508 82.4602 128.408C77.5302 125.412 73.7342 119.824 71.7682 112.674C71.6222 112.142 71.9362 111.59 72.4682 111.444C73.0102 111.298 73.5502 111.61 73.6982 112.144C75.4982 118.702 79.0742 124.008 83.4982 126.7C83.9702 126.986 84.1202 127.602 83.8322 128.074C83.6462 128.384 83.3162 128.554 82.9802 128.554Z" fill="#232538"/>
<path d="M71.1306 121.48C70.8386 121.48 70.5486 121.352 70.3506 121.106C67.2186 117.212 65.5586 112.592 65.2806 106.98C65.2526 106.428 65.6766 105.96 66.2306 105.932C66.7786 105.9 67.2506 106.33 67.2766 106.882C67.5346 112.058 69.0506 116.302 71.9086 119.854C72.2546 120.284 72.1866 120.914 71.7566 121.26C71.5726 121.408 71.3526 121.48 71.1306 121.48Z" fill="#232538"/>
<path d="M58.9362 104.31C58.4362 104.31 58.0042 103.936 57.9442 103.426C57.5302 99.888 57.7522 96.656 58.5842 94.08C58.7542 93.554 59.3182 93.266 59.8422 93.436C60.3702 93.606 60.6562 94.17 60.4862 94.696C59.7422 97 59.5482 99.938 59.9322 103.194C59.9942 103.742 59.6022 104.24 59.0562 104.304C59.0142 104.308 58.9742 104.31 58.9362 104.31Z" fill="#232538"/>
<path d="M168.5 123C168.5 123 171.634 123 175.5 123C179.366 123 182.5 119.866 182.5 116C182.5 112.438 179.83 109.532 176.39 109.09C176.446 108.732 176.5 108.374 176.5 108C176.5 104.134 173.366 101 169.5 101C167.436 101 165.6 101.91 164.32 103.33C163.552 99.714 160.346 97 156.5 97C152.082 97 148.5 100.582 148.5 105C148.5 105.382 148.56 105.748 148.612 106.116C147.756 105.428 146.682 105 145.5 105C143.044 105 141.01 106.774 140.59 109.11C140.232 109.054 139.874 109 139.5 109C135.634 109 132.5 112.134 132.5 116C132.5 119.866 135.634 123 139.5 123C143.366 123 154.5 123 154.5 123V124H168.5V123Z" fill="#FAFBFC"/>
<path d="M172 114C171.724 114 171.5 113.776 171.5 113.5C171.5 111.054 173.49 109.064 175.936 109.064C176.004 109.082 177.41 109.062 178.424 109.336C178.69 109.408 178.848 109.682 178.776 109.948C178.704 110.216 178.43 110.374 178.164 110.3C177.276 110.06 175.964 110.06 175.938 110.064C174.042 110.064 172.5 111.606 172.5 113.5C172.5 113.776 172.276 114 172 114Z" fill="#232538"/>
<path d="M158.5 124C159.052 124 159.5 123.552 159.5 123C159.5 122.448 159.052 122 158.5 122C157.948 122 157.5 122.448 157.5 123C157.5 123.552 157.948 124 158.5 124Z" fill="#232538"/>
<path d="M175.5 124H168.5C167.948 124 167.5 123.552 167.5 123C167.5 122.448 167.948 122 168.5 122H175.5C178.808 122 181.5 119.308 181.5 116C181.5 113.008 179.25 110.464 176.264 110.082C175.996 110.046 175.754 109.906 175.592 109.69C175.43 109.474 175.362 109.202 175.404 108.936C175.45 108.628 175.5 108.32 175.5 108C175.5 104.692 172.808 102 169.5 102C167.8 102 166.224 102.71 165.062 104C164.812 104.278 164.42 104.396 164.062 104.296C163.698 104.198 163.42 103.906 163.342 103.538C162.66 100.33 159.782 98 156.5 98C152.64 98 149.5 101.14 149.5 105C149.5 105.286 149.542 105.56 149.582 105.836C149.64 106.242 149.456 106.712 149.098 106.916C148.74 107.12 148.306 107.152 147.986 106.896C147.256 106.31 146.398 106 145.5 106C143.568 106 141.916 107.382 141.574 109.288C141.478 109.822 140.982 110.18 140.436 110.098C140.128 110.05 139.82 110 139.5 110C136.192 110 133.5 112.692 133.5 116C133.5 119.308 136.192 122 139.5 122H154.5C155.052 122 155.5 122.448 155.5 123C155.5 123.552 155.052 124 154.5 124H139.5C135.088 124 131.5 120.412 131.5 116C131.5 111.588 135.088 108 139.5 108C139.618 108 139.732 108.004 139.848 108.012C140.676 105.64 142.922 104 145.5 104C146.198 104 146.878 104.122 147.522 104.36C147.852 99.694 151.752 96 156.5 96C160.162 96 163.432 98.254 164.806 101.548C166.166 100.552 167.81 100 169.5 100C173.912 100 177.5 103.588 177.5 108C177.5 108.096 177.498 108.19 177.492 108.284C180.978 109.18 183.5 112.338 183.5 116C183.5 120.412 179.912 124 175.5 124Z" fill="#232538"/>
<path d="M164.5 122C164.182 122 162.818 122 162.5 122C161.948 122 161.5 122.448 161.5 123C161.5 123.552 161.948 124 162.5 124C162.818 124 164.182 124 164.5 124C165.052 124 165.5 123.552 165.5 123C165.5 122.448 165.052 122 164.5 122Z" fill="#232538"/>
</svg>
